<?xml version="1.0" encoding="UTF-8" standalone="no"?>
<!-- Created with Inkscape (http://www.inkscape.org/) -->

<svg
   xmlns:dc="http://purl.org/dc/elements/1.1/"
   xmlns:cc="http://creativecommons.org/ns#"
   xmlns:rdf="http://www.w3.org/1999/02/22-rdf-syntax-ns#"
   xmlns:svg="http://www.w3.org/2000/svg"
   xmlns="http://www.w3.org/2000/svg"
   xmlns:sodipodi="http://sodipodi.sourceforge.net/DTD/sodipodi-0.dtd"
   xmlns:inkscape="http://www.inkscape.org/namespaces/inkscape"
   width="600"
   height="1100"
   id="svg2"
   version="1.1"
   inkscape:version="0.91 r13725"
   sodipodi:docname="Overall Use Case Diagram.svg"
   inkscape:export-filename="dasdasd.png"
   inkscape:export-xdpi="90"
   inkscape:export-ydpi="90">
  <defs
     id="defs4">
    <marker
       inkscape:stockid="Arrow1Mend"
       orient="auto"
       refY="0"
       refX="0"
       id="Arrow1Mend"
       style="overflow:visible">
      <path
         id="path4306"
         d="M 0,0 5,-5 -12.5,0 5,5 0,0 z"
         style="fill-rule:evenodd;stroke:#000000;stroke-width:1pt"
         transform="matrix(-0.4,0,0,-0.4,-4,0)"
         inkscape:connector-curvature="0" />
    </marker>
    <marker
       inkscape:stockid="Arrow1Mstart"
       orient="auto"
       refY="0"
       refX="0"
       id="Arrow1Mstart"
       style="overflow:visible">
      <path
         id="path4303"
         d="M 0,0 5,-5 -12.5,0 5,5 0,0 z"
         style="fill-rule:evenodd;stroke:#000000;stroke-width:1pt"
         transform="matrix(0.4,0,0,0.4,4,0)"
         inkscape:connector-curvature="0" />
    </marker>
    <marker
       inkscape:stockid="Arrow1Lstart"
       orient="auto"
       refY="0"
       refX="0"
       id="Arrow1Lstart"
       style="overflow:visible">
      <path
         id="path4297"
         d="M 0,0 5,-5 -12.5,0 5,5 0,0 z"
         style="fill-rule:evenodd;stroke:#000000;stroke-width:1pt"
         transform="matrix(0.8,0,0,0.8,10,0)"
         inkscape:connector-curvature="0" />
    </marker>
  </defs>
  <sodipodi:namedview
     id="base"
     pagecolor="#ffffff"
     bordercolor="#666666"
     borderopacity="1.0"
     inkscape:pageopacity="0.0"
     inkscape:pageshadow="2"
     inkscape:zoom="0.5"
     inkscape:cx="-528.97562"
     inkscape:cy="574.27543"
     inkscape:document-units="px"
     inkscape:current-layer="layer1"
     showgrid="false"
     inkscape:snap-object-midpoints="false"
     inkscape:object-paths="false"
     inkscape:object-nodes="false"
     inkscape:snap-smooth-nodes="false"
     inkscape:window-width="1600"
     inkscape:window-height="838"
     inkscape:window-x="-8"
     inkscape:window-y="-8"
     inkscape:window-maximized="1"
     showguides="true"
     inkscape:guide-bbox="true" />
  <metadata
     id="metadata7">
    <rdf:RDF>
      <cc:Work
         rdf:about="">
        <dc:format>image/svg+xml</dc:format>
        <dc:type
           rdf:resource="http://purl.org/dc/dcmitype/StillImage" />
        <dc:title />
      </cc:Work>
    </rdf:RDF>
  </metadata>
  <g
     inkscape:label="Ebene 1"
     inkscape:groupmode="layer"
     id="layer1"
     transform="translate(0,47.63782)">
    <rect
       style="fill:none;stroke:#000000;stroke-width:2;stroke-miterlimit:4;stroke-opacity:1;stroke-dasharray:none"
       id="rect2985"
       width="440.09598"
       height="959.72644"
       x="121.98038"
       y="54.268871"
       rx="0.15296"
       ry="0.15296002" />
    <g
       id="g3759"
       transform="matrix(0.33901919,0,0,0.33901919,-39.250341,467.42814)"
       style="stroke:#000000;stroke-width:2.94968557;stroke-miterlimit:4;stroke-opacity:1;stroke-dasharray:none">
      <path
         sodipodi:nodetypes="ccccccccc"
         inkscape:connector-curvature="0"
         id="path3757"
         d="m 322.14287,155.93361 1.3e-4,174.46429 -67.14299,67.67858 67.14299,-67.67858 63.92843,65.17857 -63.92843,-65.17857 0,-102.32143 -96.42871,0 200,0"
         style="fill:none;stroke:#000000;stroke-width:2.94968557;stroke-linecap:butt;stroke-linejoin:miter;stroke-miterlimit:4;stroke-opacity:1;stroke-dasharray:none" />
      <path
         transform="matrix(0.84126984,0,0,0.84126984,7.8684833,100.46565)"
         d="m 418.57144,65.933609 a 45,45 0 0 1 -45,45.000001 45,45 0 0 1 -45,-45.000001 45,45 0 0 1 45,-45 45,45 0 0 1 45,45 z"
         sodipodi:ry="45"
         sodipodi:rx="45"
         sodipodi:cy="65.933609"
         sodipodi:cx="373.57144"
         id="path3755"
         style="fill:#ffffff;fill-opacity:1;stroke:#000000;stroke-width:3.50622988;stroke-linecap:butt;stroke-linejoin:round;stroke-miterlimit:4;stroke-opacity:1;stroke-dasharray:none;stroke-dashoffset:0"
         sodipodi:type="arc" />
    </g>
    <g
       transform="translate(-77.466242,434.19895)"
       id="g3870">
      <path
         d="m 360.62444,290.70715 a 69.700523,34.345188 0 0 1 -69.70052,34.34519 69.700523,34.345188 0 0 1 -69.70052,-34.34519 69.700523,34.345188 0 0 1 69.70052,-34.34518 69.700523,34.345188 0 0 1 69.70052,34.34518 z"
         sodipodi:ry="34.345188"
         sodipodi:rx="69.700523"
         sodipodi:cy="290.70715"
         sodipodi:cx="290.92392"
         id="path3872"
         style="fill:#01ff01;fill-opacity:1;fill-rule:nonzero;stroke:#000000;stroke-width:1.25571775;stroke-linecap:butt;stroke-linejoin:round;stroke-miterlimit:4;stroke-opacity:1;stroke-dasharray:none;stroke-dashoffset:0"
         sodipodi:type="arc"
         transform="matrix(0.79710144,0,0,0.7956138,59.028044,299.83283)" />
      <text
         id="text3874"
         y="520.79871"
         x="290.96786"
         style="font-size:18px;font-style:normal;font-variant:normal;font-weight:bold;font-stretch:normal;text-align:center;text-anchor:middle;fill:#000000;fill-opacity:1;fill-rule:nonzero;stroke:none;font-family:DejaVu Sans;-inkscape-font-specification:DejaVu Sans Bold"
         xml:space="preserve"><tspan
           y="520.79871"
           x="290.96786"
           sodipodi:role="line"
           id="tspan3878">exit</tspan><tspan
           y="543.29871"
           x="290.96786"
           sodipodi:role="line"
           id="tspan3892">program</tspan></text>
    </g>
    <path
       style="fill:none;stroke:#000000;stroke-width:1px;stroke-linecap:round;stroke-linejoin:round;stroke-opacity:1"
       d="m 101.14226,573.91223 55.82139,-232.45061 m -0.39771,244.00296 -55.42368,-11.55235 m 0,0 56,-461.80909 m -56,461.80909 56.23739,140.85667 m 0.51386,250.66335 -56.75125,-391.52002"
       id="path3955"
       inkscape:connector-curvature="0"
       sodipodi:nodetypes="cccccccccc" />
    <g
       id="g4177"
       transform="translate(0,38.950292)">
      <rect
         ry="0.15296002"
         rx="0.15296"
         y="552.94031"
         x="156.91661"
         height="81.228294"
         width="371.39514"
         id="rect4115"
         style="fill:#eeeeee;fill-opacity:1;stroke:#000000;stroke-width:2.00000024;stroke-miterlimit:4;stroke-opacity:1;stroke-dasharray:none" />
      <path
         sodipodi:nodetypes="cccc"
         inkscape:connector-curvature="0"
         id="path4117"
         d="m 156.91658,562.4494 0,-30.46578 75.59136,0 16.43531,30.46578"
         style="fill:#eeeeee;fill-opacity:1;stroke:#000000;stroke-width:2.00000024;stroke-linecap:round;stroke-linejoin:miter;stroke-miterlimit:4;stroke-opacity:1;stroke-dasharray:none" />
      <text
         id="text4119"
         y="553.7688"
         x="194.49832"
         style="font-size:18px;font-style:normal;font-variant:normal;font-weight:bold;font-stretch:normal;text-align:center;text-anchor:middle;fill:#000000;fill-opacity:1;fill-rule:nonzero;stroke:none;font-family:DejaVu Sans;-inkscape-font-specification:DejaVu Sans Bold"
         xml:space="preserve"><tspan
           y="553.7688"
           x="194.49832"
           id="tspan4121"
           sodipodi:role="line">Wiki</tspan></text>
    </g>
    <g
       id="g3932"
       transform="translate(-34.375744,-37.60585)">
      <path
         transform="matrix(0.60144926,0,0,0.7956138,115.94794,444.28464)"
         sodipodi:type="arc"
         style="fill:#01ff01;fill-opacity:1;fill-rule:nonzero;stroke:#000000;stroke-width:1.44560397;stroke-linecap:butt;stroke-linejoin:round;stroke-miterlimit:4;stroke-opacity:1;stroke-dasharray:none;stroke-dashoffset:0"
         id="path3916"
         sodipodi:cx="290.92392"
         sodipodi:cy="290.70715"
         sodipodi:rx="69.700523"
         sodipodi:ry="34.345188"
         d="m 360.62444,290.70715 a 69.700523,34.345188 0 0 1 -69.70052,34.34519 69.700523,34.345188 0 0 1 -69.70052,-34.34519 69.700523,34.345188 0 0 1 69.70052,-34.34518 69.700523,34.345188 0 0 1 69.70052,34.34518 z" />
      <text
         xml:space="preserve"
         style="font-size:18px;font-style:normal;font-variant:normal;font-weight:bold;font-stretch:normal;text-align:center;text-anchor:middle;fill:#000000;fill-opacity:1;fill-rule:nonzero;stroke:none;font-family:DejaVu Sans;-inkscape-font-specification:DejaVu Sans Bold"
         x="291.0997"
         y="671.16315"
         id="text3918"><tspan
           id="tspan3922"
           sodipodi:role="line"
           x="291.0997"
           y="671.16315">view</tspan><tspan
           sodipodi:role="line"
           x="291.0997"
           y="693.66315"
           id="tspan3926">wiki</tspan></text>
    </g>
    <g
       id="g3832"
       transform="translate(-34.67337,104.89268)">
      <ellipse
         id="path3813"
         style="fill:#01ffae;fill-opacity:1;fill-rule:nonzero;stroke:#000000;stroke-width:1.22334492;stroke-linecap:butt;stroke-linejoin:round;stroke-miterlimit:4;stroke-opacity:1;stroke-dasharray:none;stroke-dashoffset:0"
         transform="matrix(0.81809794,0,0,0.81676425,218.78328,295.63753)"
         sodipodi:type="arc"
         sodipodi:ry="34.345188"
         sodipodi:rx="69.700523"
         sodipodi:cy="290.70715"
         sodipodi:cx="290.92392"
         d="m 360.62444,290.70715 a 69.700523,34.345188 0 0 1 -69.70052,34.34519 69.700523,34.345188 0 0 1 -69.70052,-34.34519 69.700523,34.345188 0 0 1 69.70052,-34.34518 69.700523,34.345188 0 0 1 69.70052,34.34518 z" />
      <g
         transform="translate(165.86362,-79.869082)"
         id="g3815">
        <text
           xml:space="preserve"
           style="font-style:normal;font-variant:normal;font-weight:bold;font-stretch:normal;font-size:18px;font-family:'DejaVu Sans';-inkscape-font-specification:'DejaVu Sans Bold';text-align:center;text-anchor:middle;fill:#000000;fill-opacity:1;fill-rule:nonzero;stroke:none"
           x="290.96786"
           y="602.1972"
           id="text3817"><tspan
             sodipodi:role="line"
             x="290.96786"
             y="602.1972"
             id="tspan3442">extend</tspan><tspan
             sodipodi:role="line"
             x="290.96786"
             y="624.6972"
             id="tspan3446">functions</tspan></text>
      </g>
    </g>
    <rect
       ry="0.15296002"
       rx="0.15296"
       y="351.94031"
       x="156.91661"
       height="190.50647"
       width="371.39517"
       id="rect4084"
       style="fill:#eeeeee;fill-opacity:1;stroke:#000000;stroke-width:2.00000024;stroke-miterlimit:4;stroke-opacity:1;stroke-dasharray:none" />
    <g
       id="g3480"
       transform="translate(0,50)">
      <path
         style="fill:#eeeeee;fill-opacity:1;stroke:#000000;stroke-width:2.00000024;stroke-linecap:round;stroke-linejoin:miter;stroke-miterlimit:4;stroke-opacity:1;stroke-dasharray:none"
         d="m 156.91658,310.44937 0,-30.46578 75.59136,0 16.43531,30.46578"
         id="path4086"
         inkscape:connector-curvature="0"
         sodipodi:nodetypes="cccc" />
      <text
         xml:space="preserve"
         style="font-size:18px;font-style:normal;font-variant:normal;font-weight:bold;font-stretch:normal;text-align:center;text-anchor:middle;fill:#000000;fill-opacity:1;fill-rule:nonzero;stroke:none;font-family:DejaVu Sans;-inkscape-font-specification:DejaVu Sans Bold"
         x="194.49832"
         y="301.76874"
         id="text4098"><tspan
           sodipodi:role="line"
           id="tspan4100"
           x="194.49832"
           y="301.76874">Game</tspan></text>
    </g>
    <rect
       ry="0.15296002"
       rx="0.15296"
       y="717.56268"
       x="156.91661"
       height="202.49023"
       width="371.39514"
       id="rect4185"
       style="fill:#eeeeee;fill-opacity:1;stroke:#000000;stroke-width:2.00000024;stroke-miterlimit:4;stroke-opacity:1;stroke-dasharray:none" />
    <g
       id="g3413"
       transform="translate(3.0717773e-5,40)">
      <path
         style="fill:#eeeeee;fill-opacity:1;stroke:#000000;stroke-width:2.00000024;stroke-linecap:round;stroke-linejoin:miter;stroke-miterlimit:4;stroke-opacity:1;stroke-dasharray:none"
         d="m 156.91658,686.07177 0,-30.46578 75.59136,0 16.43531,30.46578"
         id="path4187"
         inkscape:connector-curvature="0"
         sodipodi:nodetypes="cccc" />
      <text
         xml:space="preserve"
         style="font-size:18px;font-style:normal;font-variant:normal;font-weight:bold;font-stretch:normal;text-align:center;text-anchor:middle;fill:#000000;fill-opacity:1;fill-rule:nonzero;stroke:none;font-family:DejaVu Sans;-inkscape-font-specification:DejaVu Sans Bold"
         x="194.49832"
         y="677.39117"
         id="text4189"><tspan
           sodipodi:role="line"
           id="tspan4191"
           x="194.49832"
           y="677.39117">Info</tspan></text>
    </g>
    <g
       id="g3451"
       transform="translate(0,30)">
      <g
         transform="translate(-206.10168,193.27224)"
         id="g3839">
        <path
           d="m 360.62444,290.70715 a 69.700523,34.345188 0 0 1 -69.70052,34.34519 69.700523,34.345188 0 0 1 -69.70052,-34.34519 69.700523,34.345188 0 0 1 69.70052,-34.34518 69.700523,34.345188 0 0 1 69.70052,34.34518 z"
           sodipodi:ry="34.345188"
           sodipodi:rx="69.700523"
           sodipodi:cy="290.70715"
           sodipodi:cx="290.92392"
           id="path3773"
           style="fill:#01ff01;fill-opacity:1;fill-rule:nonzero;stroke:#000000;stroke-width:1.22223067;stroke-linecap:butt;stroke-linejoin:round;stroke-miterlimit:4;stroke-opacity:1;stroke-dasharray:none;stroke-dashoffset:0"
           sodipodi:type="arc"
           transform="matrix(0.81884057,0,0,0.81751232,224.42954,27.796659)" />
        <text
           id="text3769"
           y="271.51428"
           x="462.64987"
           style="font-size:18px;font-style:normal;font-variant:normal;font-weight:bold;font-stretch:normal;text-align:center;text-anchor:middle;fill:#000000;fill-opacity:1;fill-rule:nonzero;stroke:none;font-family:DejaVu Sans;-inkscape-font-specification:DejaVu Sans Bold"
           xml:space="preserve"><tspan
             y="271.51428"
             x="462.64987"
             id="tspan3771"
             sodipodi:role="line">quit game</tspan></text>
      </g>
      <g
         transform="translate(-18.08065,-24.909795)"
         id="g3092">
        <ellipse
           id="path3795"
           style="fill:#01ffae;fill-opacity:1;fill-rule:nonzero;stroke:#000000;stroke-width:1;stroke-linecap:butt;stroke-linejoin:round;stroke-miterlimit:4;stroke-opacity:1;stroke-dasharray:none;stroke-dashoffset:0"
           transform="translate(149.2709,192.92822)"
           d="m 360.62444,290.70715 a 69.700523,34.345188 0 0 1 -69.70052,34.34519 69.700523,34.345188 0 0 1 -69.70052,-34.34519 69.700523,34.345188 0 0 1 69.70052,-34.34518 69.700523,34.345188 0 0 1 69.70052,34.34518 z"
           sodipodi:type="arc"
           sodipodi:ry="34.345188"
           sodipodi:rx="69.700523"
           sodipodi:cy="290.70715"
           sodipodi:cx="290.92392" />
        <text
           id="text3797"
           y="469.22327"
           x="440.22119"
           style="font-size:18px;font-style:normal;font-variant:normal;font-weight:bold;font-stretch:normal;text-align:center;text-anchor:middle;fill:#000000;fill-opacity:1;fill-rule:nonzero;stroke:none;font-family:DejaVu Sans;-inkscape-font-specification:DejaVu Sans Bold"
           xml:space="preserve"><tspan
             y="469.22327"
             x="440.22119"
             sodipodi:role="line"
             id="tspan3803">play</tspan><tspan
             id="tspan3070"
             y="491.72327"
             x="440.22119"
             sodipodi:role="line">game mode</tspan><tspan
             id="tspan3801"
             y="514.22327"
             x="440.22119"
             sodipodi:role="line">2</tspan></text>
      </g>
    </g>
    <g
       id="g3087"
       transform="translate(-165.566,0)">
      <g
         transform="translate(131.19025,246.31153)"
         id="g3907">
        <path
           d="m 360.62444,290.70715 a 69.700523,34.345188 0 0 1 -69.70052,34.34519 69.700523,34.345188 0 0 1 -69.70052,-34.34519 69.700523,34.345188 0 0 1 69.70052,-34.34518 69.700523,34.345188 0 0 1 69.70052,34.34518 z"
           sodipodi:ry="34.345188"
           sodipodi:rx="69.700523"
           sodipodi:cy="290.70715"
           sodipodi:cx="290.92392"
           id="path3882"
           style="fill:#01ff01;fill-opacity:1;fill-rule:nonzero;stroke:#000000;stroke-width:1.08695924;stroke-linecap:butt;stroke-linejoin:round;stroke-miterlimit:4;stroke-opacity:1;stroke-dasharray:none;stroke-dashoffset:0"
           sodipodi:type="arc"
           transform="matrix(0.92028985,0,0,0.91970542,23.189589,349.11641)" />
        <g
           id="g3902">
          <text
             xml:space="preserve"
             style="font-size:18px;font-style:normal;font-variant:normal;font-weight:bold;font-stretch:normal;text-align:center;text-anchor:middle;fill:#000000;fill-opacity:1;fill-rule:nonzero;stroke:none;font-family:DejaVu Sans;-inkscape-font-specification:DejaVu Sans Bold"
             x="290.96786"
             y="602.1972"
             id="text3884"><tspan
               id="tspan3888"
               sodipodi:role="line"
               x="290.96786"
               y="602.1972">view</tspan><tspan
               sodipodi:role="line"
               x="290.96786"
               y="624.6972"
               id="tspan3896">instructions</tspan></text>
        </g>
      </g>
      <g
         id="g3938"
         transform="translate(131.19025,159.66455)">
        <path
           transform="matrix(0.92028985,0,0,0.91970542,23.189589,349.11641)"
           sodipodi:type="arc"
           style="fill:#01ff01;fill-opacity:1;fill-rule:nonzero;stroke:#000000;stroke-width:1.08695924;stroke-linecap:butt;stroke-linejoin:round;stroke-miterlimit:4;stroke-opacity:1;stroke-dasharray:none;stroke-dashoffset:0"
           id="path3940"
           sodipodi:cx="290.92392"
           sodipodi:cy="290.70715"
           sodipodi:rx="69.700523"
           sodipodi:ry="34.345188"
           d="m 360.62444,290.70715 a 69.700523,34.345188 0 0 1 -69.70052,34.34519 69.700523,34.345188 0 0 1 -69.70052,-34.34519 69.700523,34.345188 0 0 1 69.70052,-34.34518 69.700523,34.345188 0 0 1 69.70052,34.34518 z" />
        <g
           id="g3942">
          <text
             id="text3944"
             y="602.1972"
             x="290.96786"
             style="font-size:18px;font-style:normal;font-variant:normal;font-weight:bold;font-stretch:normal;text-align:center;text-anchor:middle;fill:#000000;fill-opacity:1;fill-rule:nonzero;stroke:none;font-family:DejaVu Sans;-inkscape-font-specification:DejaVu Sans Bold"
             xml:space="preserve"><tspan
               y="602.1972"
               x="290.96786"
               sodipodi:role="line"
               id="tspan3946">view</tspan><tspan
               id="tspan3948"
               y="624.6972"
               x="290.96786"
               sodipodi:role="line">information</tspan></text>
        </g>
      </g>
    </g>
    <g
       id="g3463"
       transform="translate(0,22)">
      <g
         transform="translate(-18.02889,-33)"
         id="g3099">
        <path
           transform="translate(149.21914,119.83953)"
           sodipodi:type="arc"
           style="fill:#01ff01;fill-opacity:1;fill-rule:nonzero;stroke:#000000;stroke-width:1;stroke-linecap:butt;stroke-linejoin:round;stroke-miterlimit:4;stroke-opacity:1;stroke-dasharray:none;stroke-dashoffset:0"
           id="path3787"
           sodipodi:cx="290.92392"
           sodipodi:cy="290.70715"
           sodipodi:rx="69.700523"
           sodipodi:ry="34.345188"
           d="m 360.62444,290.70715 a 69.700523,34.345188 0 0 1 -69.70052,34.34519 69.700523,34.345188 0 0 1 -69.70052,-34.34519 69.700523,34.345188 0 0 1 69.70052,-34.34518 69.700523,34.345188 0 0 1 69.70052,34.34518 z" />
        <text
           xml:space="preserve"
           style="font-size:18px;font-style:normal;font-variant:normal;font-weight:bold;font-stretch:normal;text-align:center;text-anchor:middle;fill:#000000;fill-opacity:1;fill-rule:nonzero;stroke:none;font-family:DejaVu Sans;-inkscape-font-specification:DejaVu Sans Bold"
           x="440.16946"
           y="396.13458"
           id="text3789"><tspan
             sodipodi:role="line"
             id="tspan3791"
             x="440.16946"
             y="396.13458">play</tspan><tspan
             id="tspan3068"
             sodipodi:role="line"
             x="440.16946"
             y="418.63458">game mode</tspan><tspan
             sodipodi:role="line"
             x="440.16946"
             y="441.13458"
             id="tspan3793">1</tspan></text>
      </g>
      <g
         transform="translate(21.049885,36.669149)"
         id="g3086">
        <path
           sodipodi:type="arc"
           style="fill:#01ff01;fill-opacity:1;fill-rule:nonzero;stroke:#000000;stroke-width:1.21453726;stroke-linecap:butt;stroke-linejoin:round;stroke-miterlimit:4;stroke-opacity:1;stroke-dasharray:none;stroke-dashoffset:0"
           id="path3763"
           sodipodi:cx="290.92392"
           sodipodi:cy="290.70715"
           sodipodi:rx="69.700523"
           sodipodi:ry="34.345188"
           d="m 360.62444,290.70715 a 69.700523,34.345188 0 0 1 -69.70052,34.34519 69.700523,34.345188 0 0 1 -69.70052,-34.34519 69.700523,34.345188 0 0 1 69.70052,-34.34518 69.700523,34.345188 0 0 1 69.70052,34.34518 z"
           transform="matrix(0.85507246,0,0,0.79282151,-13.262744,110.39865)" />
        <text
           xml:space="preserve"
           style="font-size:18px;font-style:normal;font-variant:normal;font-weight:bold;font-stretch:normal;text-align:center;text-anchor:middle;fill:#000000;fill-opacity:1;fill-rule:nonzero;stroke:none;font-family:DejaVu Sans;-inkscape-font-specification:DejaVu Sans Bold"
           x="235.49832"
           y="330.93848"
           id="text3765"><tspan
             sodipodi:role="line"
             id="tspan3767"
             x="235.49832"
             y="330.93848">start</tspan><tspan
             id="tspan3066"
             sodipodi:role="line"
             x="235.49832"
             y="353.43848">new game</tspan></text>
      </g>
    </g>
    <text
       xml:space="preserve"
       style="font-size:18px;font-style:normal;font-variant:normal;font-weight:bold;font-stretch:normal;text-align:center;text-anchor:middle;fill:#000000;fill-opacity:1;fill-rule:nonzero;stroke:none;font-family:DejaVu Sans;-inkscape-font-specification:DejaVu Sans Bold"
       x="70.382042"
       y="620.15717"
       id="text3807"><tspan
         sodipodi:role="line"
         id="tspan3809"
         x="70.382042"
         y="620.15717">User</tspan></text>
    <g
       id="g3485"
       transform="translate(0.1525172,-186)">
      <path
         sodipodi:nodetypes="cccc"
         inkscape:connector-curvature="0"
         id="path3957"
         d="m 121.82786,247.46851 0,-31.16369 221.26035,0 19.48901,31.16369"
         style="fill:#ffffff;fill-opacity:1;stroke:#000000;stroke-width:2;stroke-linecap:round;stroke-linejoin:miter;stroke-miterlimit:4;stroke-opacity:1;stroke-dasharray:none" />
      <text
         id="text3841"
         y="239.11244"
         x="236.27245"
         style="font-size:18px;font-style:normal;font-variant:normal;font-weight:bold;font-stretch:normal;text-align:center;text-anchor:middle;fill:#000000;fill-opacity:1;fill-rule:nonzero;stroke:none;font-family:DejaVu Sans;-inkscape-font-specification:DejaVu Sans Bold"
         xml:space="preserve"><tspan
           y="239.11244"
           x="236.27245"
           id="tspan3843"
           sodipodi:role="line">Nappy the Ingenious</tspan></text>
    </g>
    <g
       transform="translate(137.75624,369.15815)"
       id="g3103">
      <path
         transform="matrix(0.82608695,0,0,0.82481183,50.595466,210.53255)"
         sodipodi:type="arc"
         style="fill:#01ffae;fill-opacity:1;fill-rule:nonzero;stroke:#000000;stroke-width:1.21146166;stroke-linecap:butt;stroke-linejoin:round;stroke-miterlimit:4;stroke-opacity:1;stroke-dasharray:none;stroke-dashoffset:0"
         id="path3105"
         sodipodi:cx="290.92392"
         sodipodi:cy="290.70715"
         sodipodi:rx="69.700523"
         sodipodi:ry="34.345188"
         d="m 360.62444,290.70715 a 69.700523,34.345188 0 0 1 -69.70052,34.34519 69.700523,34.345188 0 0 1 -69.70052,-34.34519 69.700523,34.345188 0 0 1 69.70052,-34.34518 69.700523,34.345188 0 0 1 69.70052,34.34518 z" />
      <text
         xml:space="preserve"
         style="font-size:18px;font-style:normal;font-variant:normal;font-weight:bold;font-stretch:normal;text-align:center;text-anchor:middle;fill:#000000;fill-opacity:1;fill-rule:nonzero;stroke:none;font-family:DejaVu Sans;-inkscape-font-specification:DejaVu Sans Bold"
         x="290.92395"
         y="441.2402"
         id="text3107"><tspan
           sodipodi:role="line"
           id="tspan3109"
           x="290.92395"
           y="441.2402">view</tspan><tspan
           sodipodi:role="line"
           x="290.92395"
           y="463.7402"
           id="tspan3111">statistics</tspan></text>
    </g>
    <rect
       style="fill:#eeeeee;fill-opacity:1;stroke:#000000;stroke-width:2.00000024;stroke-miterlimit:4;stroke-opacity:1;stroke-dasharray:none"
       id="rect3123"
       width="371.39517"
       height="190.50647"
       x="156.91661"
       y="119.94031"
       rx="0.15296"
       ry="0.15296002" />
    <path
       style="fill:#eeeeee;fill-opacity:1;stroke:#000000;stroke-width:2.00000024;stroke-linecap:round;stroke-linejoin:miter;stroke-miterlimit:4;stroke-opacity:1;stroke-dasharray:none"
       d="m 156.91658,128.44937 0,-30.46578 173.52565,0 16.43531,30.46578"
       id="path3127"
       inkscape:connector-curvature="0"
       sodipodi:nodetypes="cccc" />
    <text
       xml:space="preserve"
       style="font-size:18px;font-style:normal;font-variant:normal;font-weight:bold;font-stretch:normal;text-align:start;text-anchor:start;fill:#000000;fill-opacity:1;fill-rule:nonzero;stroke:none;font-family:DejaVu Sans;-inkscape-font-specification:DejaVu Sans Bold"
       x="166.42606"
       y="119.76874"
       id="text3129"><tspan
         sodipodi:role="line"
         id="tspan3131"
         x="166.42606"
         y="119.76874">Change Options</tspan></text>
    <g
       id="g4016">
      <path
         d="m 360.62444,290.70715 a 69.700523,34.345188 0 0 1 -69.70052,34.34519 69.700523,34.345188 0 0 1 -69.70052,-34.34519 69.700523,34.345188 0 0 1 69.70052,-34.34518 69.700523,34.345188 0 0 1 69.70052,34.34518 z"
         sodipodi:ry="34.345188"
         sodipodi:rx="69.700523"
         sodipodi:cy="290.70715"
         sodipodi:cx="290.92392"
         id="path3137"
         style="fill:#01ffae;fill-opacity:1;fill-rule:nonzero;stroke:#000000;stroke-width:1.22223067;stroke-linecap:butt;stroke-linejoin:round;stroke-miterlimit:4;stroke-opacity:1;stroke-dasharray:none;stroke-dashoffset:0"
         sodipodi:type="arc"
         transform="matrix(0.81884057,0,0,0.81751232,18.32786,19.068899)" />
      <g
         id="g4266">
        <text
           xml:space="preserve"
           style="font-size:18px;font-style:normal;font-variant:normal;font-weight:bold;font-stretch:normal;text-align:center;text-anchor:middle;fill:#000000;fill-opacity:1;fill-rule:nonzero;stroke:none;font-family:DejaVu Sans;-inkscape-font-specification:DejaVu Sans Bold"
           x="256.5921"
           y="252.18604"
           id="text3139"><tspan
             sodipodi:role="line"
             id="tspan3141"
             x="256.5921"
             y="252.18604">change</tspan><tspan
             sodipodi:role="line"
             x="256.5921"
             y="274.68604"
             id="tspan3999">theme</tspan></text>
      </g>
    </g>
    <path
       d="m 360.62444,290.70715 a 69.700523,34.345188 0 0 1 -69.70052,34.34519 69.700523,34.345188 0 0 1 -69.70052,-34.34519 69.700523,34.345188 0 0 1 69.70052,-34.34518 69.700523,34.345188 0 0 1 69.70052,34.34518 z"
       sodipodi:ry="34.345188"
       sodipodi:rx="69.700523"
       sodipodi:cy="290.70715"
       sodipodi:cx="290.92392"
       id="path3159"
       style="fill:#01ffae;fill-opacity:1;fill-rule:nonzero;stroke:#000000;stroke-width:1.07645505;stroke-linecap:butt;stroke-linejoin:round;stroke-miterlimit:4;stroke-opacity:1;stroke-dasharray:none;stroke-dashoffset:0"
       sodipodi:type="arc"
       transform="matrix(0.92897516,0,0,0.92897516,151.85308,-102.51304)" />
    <text
       id="text3161"
       y="157.19218"
       x="422.14056"
       style="font-size:18px;font-style:normal;font-variant:normal;font-weight:bold;font-stretch:normal;text-align:center;text-anchor:middle;fill:#000000;fill-opacity:1;fill-rule:nonzero;stroke:none;font-family:DejaVu Sans;-inkscape-font-specification:DejaVu Sans Bold"
       xml:space="preserve"><tspan
         id="tspan3167"
         y="157.19218"
         x="422.14056"
         sodipodi:role="line">change</tspan><tspan
         y="179.69218"
         x="422.14056"
         sodipodi:role="line"
         id="tspan3997">gamemode</tspan></text>
    <g
       transform="translate(21.049885,-173.33085)"
       id="g3169">
      <path
         sodipodi:type="arc"
         style="fill:#01ff01;fill-opacity:1;fill-rule:nonzero;stroke:#000000;stroke-width:1.21453726;stroke-linecap:butt;stroke-linejoin:round;stroke-miterlimit:4;stroke-opacity:1;stroke-dasharray:none;stroke-dashoffset:0"
         id="path3171"
         sodipodi:cx="290.92392"
         sodipodi:cy="290.70715"
         sodipodi:rx="69.700523"
         sodipodi:ry="34.345188"
         d="m 360.62444,290.70715 a 69.700523,34.345188 0 0 1 -69.70052,34.34519 69.700523,34.345188 0 0 1 -69.70052,-34.34519 69.700523,34.345188 0 0 1 69.70052,-34.34518 69.700523,34.345188 0 0 1 69.70052,34.34518 z"
         transform="matrix(0.85507246,0,0,0.79282151,-13.262744,110.39865)" />
      <text
         xml:space="preserve"
         style="font-size:18px;font-style:normal;font-variant:normal;font-weight:bold;font-stretch:normal;text-align:center;text-anchor:middle;fill:#000000;fill-opacity:1;fill-rule:nonzero;stroke:none;font-family:DejaVu Sans;-inkscape-font-specification:DejaVu Sans Bold"
         x="235.49832"
         y="330.93848"
         id="text3173"><tspan
           id="tspan3177"
           sodipodi:role="line"
           x="235.49832"
           y="330.93848">change</tspan><tspan
           id="tspan3970"
           sodipodi:role="line"
           x="235.49832"
           y="353.43848">language</tspan></text>
    </g>
  </g>
</svg>
