<?xml version="1.0" encoding="UTF-8"?><svg xmlns="http://www.w3.org/2000/svg" xmlns:xlink="http://www.w3.org/1999/xlink" fill-opacity="1" color-rendering="auto" color-interpolation="auto" text-rendering="auto" stroke="black" stroke-linecap="square" width="584" stroke-miterlimit="10" shape-rendering="auto" stroke-opacity="1" fill="black" stroke-dasharray="none" font-weight="normal" stroke-width="1" height="591" font-family="'Dialog'" font-style="normal" stroke-linejoin="miter" font-size="12px" stroke-dashoffset="0" image-rendering="auto">
  <!--Generated by ySVG 2.5-->
  <defs id="genericDefs"/>
  <g>
    <defs id="defs1">
      <linearGradient x1="545.6369" gradientUnits="userSpaceOnUse" x2="545.6369" y1="335.25" y2="363.25" id="linearGradient1" spreadMethod="pad">
        <stop stop-opacity="1" stop-color="rgb(191,242,255)" offset="0%"/>
        <stop stop-opacity="1" stop-color="rgb(51,214,255)" offset="100%"/>
      </linearGradient>
      <linearGradient x1="545.6369" gradientUnits="userSpaceOnUse" x2="545.6369" y1="543.75" y2="571.75" id="linearGradient2" spreadMethod="pad">
        <stop stop-opacity="1" stop-color="rgb(191,242,255)" offset="0%"/>
        <stop stop-opacity="1" stop-color="rgb(51,214,255)" offset="100%"/>
      </linearGradient>
      <linearGradient x1="545.6369" gradientUnits="userSpaceOnUse" x2="545.6369" y1="153.0625" y2="181.0625" id="linearGradient3" spreadMethod="pad">
        <stop stop-opacity="1" stop-color="rgb(191,242,255)" offset="0%"/>
        <stop stop-opacity="1" stop-color="rgb(51,214,255)" offset="100%"/>
      </linearGradient>
      <linearGradient x1="280.6369" gradientUnits="userSpaceOnUse" x2="280.6369" y1="243.5" y2="271.5" id="linearGradient4" spreadMethod="pad">
        <stop stop-opacity="1" stop-color="rgb(191,242,255)" offset="0%"/>
        <stop stop-opacity="1" stop-color="rgb(51,214,255)" offset="100%"/>
      </linearGradient>
      <linearGradient x1="280.6369" gradientUnits="userSpaceOnUse" x2="280.6369" y1="543.75" y2="571.75" id="linearGradient5" spreadMethod="pad">
        <stop stop-opacity="1" stop-color="rgb(191,242,255)" offset="0%"/>
        <stop stop-opacity="1" stop-color="rgb(51,214,255)" offset="100%"/>
      </linearGradient>
      <clipPath clipPathUnits="userSpaceOnUse" id="clipPath1">
        <path d="M0 0 L584 0 L584 591 L0 591 L0 0 Z"/>
      </clipPath>
      <clipPath clipPathUnits="userSpaceOnUse" id="clipPath2">
        <path d="M198 69 L782 69 L782 660 L198 660 L198 69 Z"/>
      </clipPath>
    </defs>
    <g fill="white" text-rendering="geometricPrecision" shape-rendering="geometricPrecision" transform="translate(-198,-69)" stroke="white">
      <rect x="198" width="584" height="591" y="69" clip-path="url(#clipPath2)" stroke="none"/>
    </g>
    <g fill="rgb(255,242,188)" text-rendering="geometricPrecision" shape-rendering="geometricPrecision" transform="matrix(1,0,0,1,-198,-69)" stroke="rgb(255,242,188)">
      <path d="M213.6369 84.5 L213.6369 114.5 L766.6369 114.5 L766.6369 84.5 Z" stroke="none" clip-path="url(#clipPath2)"/>
      <rect x="213.6369" width="553" height="529.6" y="114.5" clip-path="url(#clipPath2)" stroke="none"/>
      <rect x="213.6369" y="114.5" clip-path="url(#clipPath2)" fill="white" width="278" height="529.6" stroke="none"/>
      <rect x="491.6369" y="114.5" clip-path="url(#clipPath2)" fill="white" width="275" height="529.6" stroke="none"/>
    </g>
    <g text-rendering="geometricPrecision" stroke-miterlimit="1.45" shape-rendering="geometricPrecision" transform="matrix(1,0,0,1,-198,-69)" stroke-linecap="butt">
      <rect fill="none" x="213.6369" width="553" height="559.6" y="84.5" clip-path="url(#clipPath2)"/>
    </g>
    <g font-size="15px" stroke-linecap="butt" transform="matrix(1,0,0,1,-198,-69)" text-rendering="geometricPrecision" font-family="sans-serif" shape-rendering="geometricPrecision" stroke-miterlimit="1.45">
      <text x="407.1864" xml:space="preserve" y="105.5806" clip-path="url(#clipPath2)" stroke="none">Use-Case: Gamemode 2</text>
      <text x="349.9689" xml:space="preserve" font-size="12px" y="131.5645" clip-path="url(#clipPath2)" stroke="none">User</text>
      <text x="610.2932" xml:space="preserve" font-size="12px" y="131.5645" clip-path="url(#clipPath2)" stroke="none">Nappy</text>
    </g>
    <g text-rendering="geometricPrecision" stroke-miterlimit="1.45" shape-rendering="geometricPrecision" transform="matrix(1,0,0,1,-198,-69)" stroke-linecap="butt">
      <rect fill="none" x="213.6369" width="278" height="529.6" y="114.5" clip-path="url(#clipPath2)"/>
      <rect fill="none" x="491.6369" width="275" height="529.6" y="114.5" clip-path="url(#clipPath2)"/>
      <rect fill="none" x="213.6369" width="553" height="529.6" y="114.5" clip-path="url(#clipPath2)"/>
    </g>
    <g font-size="15px" stroke-linecap="butt" transform="matrix(1,0,0,1,-198,-69)" text-rendering="geometricPrecision" font-family="sans-serif" shape-rendering="geometricPrecision" stroke-miterlimit="1.45">
      <text x="407.1864" xml:space="preserve" y="105.5806" clip-path="url(#clipPath2)" stroke="none">Use-Case: Gamemode 2</text>
      <text x="349.9689" xml:space="preserve" font-size="12px" y="131.5645" clip-path="url(#clipPath2)" stroke="none">User</text>
      <text x="610.2932" xml:space="preserve" font-size="12px" y="131.5645" clip-path="url(#clipPath2)" stroke="none">Nappy</text>
    </g>
    <g fill="rgb(0,204,255)" text-rendering="geometricPrecision" shape-rendering="geometricPrecision" transform="matrix(1,0,0,1,-198,-69)" stroke="rgb(0,204,255)">
      <path d="M545.6369 361.25 L709.6369 361.25 L709.6369 378.25 Q709.6369 388.25 699.6369 388.25 L555.6369 388.25 Q545.6369 388.25 545.6369 378.25 Z" stroke="none" clip-path="url(#clipPath2)"/>
      <path fill="url(#linearGradient1)" d="M545.6369 346.25 Q545.6369 336.25 555.6369 336.25 L699.6369 336.25 Q709.6369 336.25 709.6369 346.25 L709.6369 362.25 L545.6369 362.25 Z" clip-path="url(#clipPath2)" stroke="none"/>
      <path fill="none" d="M547.6369 346.25 Q547.6369 338.25 555.6369 338.25 L699.6369 338.25 Q707.6369 338.25 707.6369 346.25 L707.6369 378.25 Q707.6369 386.25 699.6369 386.25 L555.6369 386.25 Q547.6369 386.25 547.6369 378.25 Z" stroke-width="2" clip-path="url(#clipPath2)" stroke="rgb(217,247,255)"/>
      <path fill="none" d="M547.6369 346.25 Q547.6369 338.25 555.6369 338.25 L699.6369 338.25 Q707.6369 338.25 707.6369 346.25 L707.6369 378.25 Q707.6369 386.25 699.6369 386.25 L555.6369 386.25 Q547.6369 386.25 547.6369 378.25 Z" clip-path="url(#clipPath2)"/>
    </g>
    <g text-rendering="geometricPrecision" stroke-miterlimit="1.45" shape-rendering="geometricPrecision" font-family="sans-serif" transform="matrix(1,0,0,1,-198,-69)" stroke-linecap="butt">
      <text x="577.2726" xml:space="preserve" y="366.9639" clip-path="url(#clipPath2)" stroke="none">Frage beantworten</text>
    </g>
    <g fill="rgb(0,204,255)" text-rendering="geometricPrecision" shape-rendering="geometricPrecision" transform="matrix(1,0,0,1,-198,-69)" stroke="rgb(0,204,255)">
      <path d="M545.6369 569.75 L709.6369 569.75 L709.6369 586.75 Q709.6369 596.75 699.6369 596.75 L555.6369 596.75 Q545.6369 596.75 545.6369 586.75 Z" stroke="none" clip-path="url(#clipPath2)"/>
      <path fill="url(#linearGradient2)" d="M545.6369 554.75 Q545.6369 544.75 555.6369 544.75 L699.6369 544.75 Q709.6369 544.75 709.6369 554.75 L709.6369 570.75 L545.6369 570.75 Z" clip-path="url(#clipPath2)" stroke="none"/>
      <path fill="none" d="M547.6369 554.75 Q547.6369 546.75 555.6369 546.75 L699.6369 546.75 Q707.6369 546.75 707.6369 554.75 L707.6369 586.75 Q707.6369 594.75 699.6369 594.75 L555.6369 594.75 Q547.6369 594.75 547.6369 586.75 Z" stroke-width="2" clip-path="url(#clipPath2)" stroke="rgb(217,247,255)"/>
      <path fill="none" d="M547.6369 554.75 Q547.6369 546.75 555.6369 546.75 L699.6369 546.75 Q707.6369 546.75 707.6369 554.75 L707.6369 586.75 Q707.6369 594.75 699.6369 594.75 L555.6369 594.75 Q547.6369 594.75 547.6369 586.75 Z" clip-path="url(#clipPath2)"/>
    </g>
    <g text-rendering="geometricPrecision" stroke-miterlimit="1.45" shape-rendering="geometricPrecision" font-family="sans-serif" transform="matrix(1,0,0,1,-198,-69)" stroke-linecap="butt">
      <text x="574.6066" xml:space="preserve" y="575.4639" clip-path="url(#clipPath2)" stroke="none">Ergebnis auswerten</text>
    </g>
    <g text-rendering="geometricPrecision" shape-rendering="geometricPrecision" transform="matrix(1,0,0,1,-198,-69)">
      <circle r="9" clip-path="url(#clipPath2)" cx="627.6369" cy="625.125" stroke="none"/>
    </g>
    <g text-rendering="geometricPrecision" stroke-miterlimit="1.45" shape-rendering="geometricPrecision" transform="matrix(1,0,0,1,-198,-69)" stroke-linecap="butt">
      <circle fill="none" r="9" clip-path="url(#clipPath2)" cx="627.6369" cy="625.125"/>
      <circle stroke-linecap="square" clip-path="url(#clipPath2)" r="9" cx="362.6369" cy="180.0625" stroke="none" stroke-miterlimit="10"/>
      <circle fill="none" r="9" clip-path="url(#clipPath2)" cx="362.6369" cy="180.0625"/>
    </g>
    <g fill="rgb(0,204,255)" text-rendering="geometricPrecision" shape-rendering="geometricPrecision" transform="matrix(1,0,0,1,-198,-69)" stroke="rgb(0,204,255)">
      <path d="M545.6369 179.0625 L709.6369 179.0625 L709.6369 196.0625 Q709.6369 206.0625 699.6369 206.0625 L555.6369 206.0625 Q545.6369 206.0625 545.6369 196.0625 Z" stroke="none" clip-path="url(#clipPath2)"/>
      <path fill="url(#linearGradient3)" d="M545.6369 164.0625 Q545.6369 154.0625 555.6369 154.0625 L699.6369 154.0625 Q709.6369 154.0625 709.6369 164.0625 L709.6369 180.0625 L545.6369 180.0625 Z" clip-path="url(#clipPath2)" stroke="none"/>
      <path fill="none" d="M547.6369 164.0625 Q547.6369 156.0625 555.6369 156.0625 L699.6369 156.0625 Q707.6369 156.0625 707.6369 164.0625 L707.6369 196.0625 Q707.6369 204.0625 699.6369 204.0625 L555.6369 204.0625 Q547.6369 204.0625 547.6369 196.0625 Z" stroke-width="2" clip-path="url(#clipPath2)" stroke="rgb(217,247,255)"/>
      <path fill="none" d="M547.6369 164.0625 Q547.6369 156.0625 555.6369 156.0625 L699.6369 156.0625 Q707.6369 156.0625 707.6369 164.0625 L707.6369 196.0625 Q707.6369 204.0625 699.6369 204.0625 L555.6369 204.0625 Q547.6369 204.0625 547.6369 196.0625 Z" clip-path="url(#clipPath2)"/>
    </g>
    <g text-rendering="geometricPrecision" stroke-miterlimit="1.45" shape-rendering="geometricPrecision" font-family="sans-serif" transform="matrix(1,0,0,1,-198,-69)" stroke-linecap="butt">
      <text x="572.6057" xml:space="preserve" y="184.7764" clip-path="url(#clipPath2)" stroke="none">Sucht eine Figur aus</text>
    </g>
    <g fill="rgb(0,204,255)" text-rendering="geometricPrecision" shape-rendering="geometricPrecision" transform="matrix(1,0,0,1,-198,-69)" stroke="rgb(0,204,255)">
      <path d="M280.6369 269.5 L444.6369 269.5 L444.6369 286.5 Q444.6369 296.5 434.6369 296.5 L290.6369 296.5 Q280.6369 296.5 280.6369 286.5 Z" stroke="none" clip-path="url(#clipPath2)"/>
      <path fill="url(#linearGradient4)" d="M280.6369 254.5 Q280.6369 244.5 290.6369 244.5 L434.6369 244.5 Q444.6369 244.5 444.6369 254.5 L444.6369 270.5 L280.6369 270.5 Z" clip-path="url(#clipPath2)" stroke="none"/>
      <path fill="none" d="M282.6369 254.5 Q282.6369 246.5 290.6369 246.5 L434.6369 246.5 Q442.6369 246.5 442.6369 254.5 L442.6369 286.5 Q442.6369 294.5 434.6369 294.5 L290.6369 294.5 Q282.6369 294.5 282.6369 286.5 Z" stroke-width="2" clip-path="url(#clipPath2)" stroke="rgb(217,247,255)"/>
      <path fill="none" d="M282.6369 254.5 Q282.6369 246.5 290.6369 246.5 L434.6369 246.5 Q442.6369 246.5 442.6369 254.5 L442.6369 286.5 Q442.6369 294.5 434.6369 294.5 L290.6369 294.5 Q282.6369 294.5 282.6369 286.5 Z" clip-path="url(#clipPath2)"/>
    </g>
    <g text-rendering="geometricPrecision" stroke-miterlimit="1.45" shape-rendering="geometricPrecision" font-family="sans-serif" transform="matrix(1,0,0,1,-198,-69)" stroke-linecap="butt">
      <text x="316.6086" xml:space="preserve" y="275.2139" clip-path="url(#clipPath2)" stroke="none">Frage auswählen</text>
    </g>
    <g fill="rgb(0,204,255)" text-rendering="geometricPrecision" shape-rendering="geometricPrecision" transform="matrix(1,0,0,1,-198,-69)" stroke="rgb(0,204,255)">
      <path d="M292.6369 463 L362.6369 427.5 L432.6369 463 L362.6369 498.5 Z" fill-rule="evenodd" clip-path="url(#clipPath2)" stroke="none"/>
    </g>
    <g text-rendering="geometricPrecision" stroke-miterlimit="1.45" shape-rendering="geometricPrecision" font-family="sans-serif" transform="matrix(1,0,0,1,-198,-69)" stroke-linecap="butt">
      <text x="324.9523" xml:space="preserve" y="467.7139" clip-path="url(#clipPath2)" stroke="none">Figur erraten?</text>
      <path fill="none" d="M292.6369 463 L362.6369 427.5 L432.6369 463 L362.6369 498.5 Z" clip-path="url(#clipPath2)" fill-rule="evenodd"/>
    </g>
    <g fill="rgb(0,204,255)" text-rendering="geometricPrecision" shape-rendering="geometricPrecision" transform="matrix(1,0,0,1,-198,-69)" stroke="rgb(0,204,255)">
      <path d="M280.6369 569.75 L444.6369 569.75 L444.6369 586.75 Q444.6369 596.75 434.6369 596.75 L290.6369 596.75 Q280.6369 596.75 280.6369 586.75 Z" stroke="none" clip-path="url(#clipPath2)"/>
      <path fill="url(#linearGradient5)" d="M280.6369 554.75 Q280.6369 544.75 290.6369 544.75 L434.6369 544.75 Q444.6369 544.75 444.6369 554.75 L444.6369 570.75 L280.6369 570.75 Z" clip-path="url(#clipPath2)" stroke="none"/>
      <path fill="none" d="M282.6369 554.75 Q282.6369 546.75 290.6369 546.75 L434.6369 546.75 Q442.6369 546.75 442.6369 554.75 L442.6369 586.75 Q442.6369 594.75 434.6369 594.75 L290.6369 594.75 Q282.6369 594.75 282.6369 586.75 Z" stroke-width="2" clip-path="url(#clipPath2)" stroke="rgb(217,247,255)"/>
      <path fill="none" d="M282.6369 554.75 Q282.6369 546.75 290.6369 546.75 L434.6369 546.75 Q442.6369 546.75 442.6369 554.75 L442.6369 586.75 Q442.6369 594.75 434.6369 594.75 L290.6369 594.75 Q282.6369 594.75 282.6369 586.75 Z" clip-path="url(#clipPath2)"/>
    </g>
    <g text-rendering="geometricPrecision" stroke-miterlimit="1.45" shape-rendering="geometricPrecision" font-family="sans-serif" transform="matrix(1,0,0,1,-198,-69)" stroke-linecap="butt">
      <text x="318.6125" xml:space="preserve" y="575.4639" clip-path="url(#clipPath2)" stroke="none">Figur auswählen</text>
    </g>
    <g text-rendering="geometricPrecision" stroke-miterlimit="1.45" shape-rendering="geometricPrecision" transform="matrix(1,0,0,1,-198,-69)" stroke-linecap="butt">
      <path fill="none" d="M627.6369 596.7437 L627.6369 612.275 L627.6369 616.125" clip-path="url(#clipPath2)"/>
      <path d="M627.6369 616.125 L632.6369 604.125 L627.6369 607.125 L622.6369 604.125 Z" clip-path="url(#clipPath2)" stroke="none"/>
      <path fill="none" d="M371.6369 180.0625 L537.6057 180.0625" clip-path="url(#clipPath2)"/>
      <path d="M545.6057 180.0625 L533.6057 175.0625 L536.6057 180.0625 L533.6057 185.0625 Z" clip-path="url(#clipPath2)" stroke="none"/>
      <path fill="none" d="M627.6369 206.0721 L627.6369 270.5 L452.6407 270.5" clip-path="url(#clipPath2)"/>
      <path d="M444.6407 270.5 L456.6407 275.5 L453.6407 270.5 L456.6407 265.5 Z" clip-path="url(#clipPath2)" stroke="none"/>
      <path fill="none" d="M362.6369 296.5287 L362.6369 362.25 L537.6331 362.25" clip-path="url(#clipPath2)"/>
      <path d="M545.6331 362.25 L533.6331 357.25 L536.6331 362.25 L533.6331 367.25 Z" clip-path="url(#clipPath2)" stroke="none"/>
      <path fill="none" d="M627.6369 388.2426 L627.6369 462.5 L437 462.5 L433.25 462.5 L431.6484 462.5" clip-path="url(#clipPath2)"/>
      <path d="M431.6484 462.5 L443.6484 467.5 L440.6484 462.5 L443.6484 457.5 Z" clip-path="url(#clipPath2)" stroke="none"/>
      <path fill="none" d="M292.6373 463 L244.5 463 L244.5 270.5 L272.639 270.5" clip-path="url(#clipPath2)"/>
      <path d="M280.639 270.5 L268.639 265.5 L271.639 270.5 L268.639 275.5 Z" clip-path="url(#clipPath2)" stroke="none"/>
      <path fill="none" d="M362.6369 498.487 L362.6369 536.7452" clip-path="url(#clipPath2)"/>
      <path d="M362.6369 544.7452 L367.6369 532.7452 L362.6369 535.7452 L357.6369 532.7452 Z" clip-path="url(#clipPath2)" stroke="none"/>
      <path fill="none" d="M444.6407 570.75 L537.6549 570.75" clip-path="url(#clipPath2)"/>
      <path d="M545.6549 570.75 L533.6549 565.75 L536.6549 570.75 L533.6549 575.75 Z" clip-path="url(#clipPath2)" stroke="none"/>
    </g>
  </g>
</svg>
