<?xml version="1.0" encoding="UTF-8"?><svg xmlns="http://www.w3.org/2000/svg" xmlns:xlink="http://www.w3.org/1999/xlink" fill-opacity="1" color-rendering="auto" color-interpolation="auto" text-rendering="auto" stroke="black" stroke-linecap="square" width="584" stroke-miterlimit="10" shape-rendering="auto" stroke-opacity="1" fill="black" stroke-dasharray="none" font-weight="normal" stroke-width="1" height="768" font-family="'Dialog'" font-style="normal" stroke-linejoin="miter" font-size="12px" stroke-dashoffset="0" image-rendering="auto">
  <!--Generated by ySVG 2.5-->
  <defs id="genericDefs"/>
  <g>
    <defs id="defs1">
      <linearGradient x1="545.6369" gradientUnits="userSpaceOnUse" x2="545.6369" y1="335.25" y2="363.25" id="linearGradient1" spreadMethod="pad">
        <stop stop-opacity="1" stop-color="rgb(191,242,255)" offset="0%"/>
        <stop stop-opacity="1" stop-color="rgb(51,214,255)" offset="100%"/>
      </linearGradient>
      <linearGradient x1="545.6369" gradientUnits="userSpaceOnUse" x2="545.6369" y1="583.75" y2="611.75" id="linearGradient2" spreadMethod="pad">
        <stop stop-opacity="1" stop-color="rgb(191,242,255)" offset="0%"/>
        <stop stop-opacity="1" stop-color="rgb(51,214,255)" offset="100%"/>
      </linearGradient>
      <linearGradient x1="545.6369" gradientUnits="userSpaceOnUse" x2="545.6369" y1="212.0625" y2="240.0625" id="linearGradient3" spreadMethod="pad">
        <stop stop-opacity="1" stop-color="rgb(191,242,255)" offset="0%"/>
        <stop stop-opacity="1" stop-color="rgb(51,214,255)" offset="100%"/>
      </linearGradient>
      <linearGradient x1="280.6369" gradientUnits="userSpaceOnUse" x2="280.6369" y1="335.25" y2="363.25" id="linearGradient4" spreadMethod="pad">
        <stop stop-opacity="1" stop-color="rgb(191,242,255)" offset="0%"/>
        <stop stop-opacity="1" stop-color="rgb(51,214,255)" offset="100%"/>
      </linearGradient>
      <linearGradient x1="545.6369" gradientUnits="userSpaceOnUse" x2="545.6369" y1="665.75" y2="693.75" id="linearGradient5" spreadMethod="pad">
        <stop stop-opacity="1" stop-color="rgb(191,242,255)" offset="0%"/>
        <stop stop-opacity="1" stop-color="rgb(51,214,255)" offset="100%"/>
      </linearGradient>
      <linearGradient x1="280.6369" gradientUnits="userSpaceOnUse" x2="280.6369" y1="212.0625" y2="240.0625" id="linearGradient6" spreadMethod="pad">
        <stop stop-opacity="1" stop-color="rgb(191,242,255)" offset="0%"/>
        <stop stop-opacity="1" stop-color="rgb(51,214,255)" offset="100%"/>
      </linearGradient>
      <linearGradient x1="280.6369" gradientUnits="userSpaceOnUse" x2="280.6369" y1="583.75" y2="611.75" id="linearGradient7" spreadMethod="pad">
        <stop stop-opacity="1" stop-color="rgb(191,242,255)" offset="0%"/>
        <stop stop-opacity="1" stop-color="rgb(51,214,255)" offset="100%"/>
      </linearGradient>
      <clipPath clipPathUnits="userSpaceOnUse" id="clipPath1">
        <path d="M0 0 L584 0 L584 768 L0 768 L0 0 Z"/>
      </clipPath>
      <clipPath clipPathUnits="userSpaceOnUse" id="clipPath2">
        <path d="M198 69 L782 69 L782 837 L198 837 L198 69 Z"/>
      </clipPath>
    </defs>
    <g fill="white" text-rendering="geometricPrecision" shape-rendering="geometricPrecision" transform="translate(-198,-69)" stroke="white">
      <rect x="198" width="584" height="768" y="69" clip-path="url(#clipPath2)" stroke="none"/>
    </g>
    <g fill="rgb(255,242,188)" text-rendering="geometricPrecision" shape-rendering="geometricPrecision" transform="matrix(1,0,0,1,-198,-69)" stroke="rgb(255,242,188)">
      <path d="M213.6369 84.5 L213.6369 114.5 L766.6369 114.5 L766.6369 84.5 Z" stroke="none" clip-path="url(#clipPath2)"/>
      <rect x="213.6369" width="553" height="706.9333" y="114.5" clip-path="url(#clipPath2)" stroke="none"/>
      <rect x="213.6369" y="114.5" clip-path="url(#clipPath2)" fill="white" width="278" height="706.9333" stroke="none"/>
      <rect x="491.6369" y="114.5" clip-path="url(#clipPath2)" fill="white" width="275" height="706.9333" stroke="none"/>
    </g>
    <g text-rendering="geometricPrecision" stroke-miterlimit="1.45" shape-rendering="geometricPrecision" transform="matrix(1,0,0,1,-198,-69)" stroke-linecap="butt">
      <rect fill="none" x="213.6369" width="553" height="736.9333" y="84.5" clip-path="url(#clipPath2)"/>
    </g>
    <g font-size="15px" stroke-linecap="butt" transform="matrix(1,0,0,1,-198,-69)" text-rendering="geometricPrecision" font-family="sans-serif" shape-rendering="geometricPrecision" stroke-miterlimit="1.45">
      <text x="407.1864" xml:space="preserve" y="105.5806" clip-path="url(#clipPath2)" stroke="none">Use-Case: Gamemode 1</text>
      <text x="349.9689" xml:space="preserve" font-size="12px" y="131.5645" clip-path="url(#clipPath2)" stroke="none">User</text>
      <text x="610.2932" xml:space="preserve" font-size="12px" y="131.5645" clip-path="url(#clipPath2)" stroke="none">Nappy</text>
    </g>
    <g text-rendering="geometricPrecision" stroke-miterlimit="1.45" shape-rendering="geometricPrecision" transform="matrix(1,0,0,1,-198,-69)" stroke-linecap="butt">
      <rect fill="none" x="213.6369" width="278" height="706.9333" y="114.5" clip-path="url(#clipPath2)"/>
      <rect fill="none" x="491.6369" width="275" height="706.9333" y="114.5" clip-path="url(#clipPath2)"/>
      <rect fill="none" x="213.6369" width="553" height="706.9333" y="114.5" clip-path="url(#clipPath2)"/>
    </g>
    <g font-size="15px" stroke-linecap="butt" transform="matrix(1,0,0,1,-198,-69)" text-rendering="geometricPrecision" font-family="sans-serif" shape-rendering="geometricPrecision" stroke-miterlimit="1.45">
      <text x="407.1864" xml:space="preserve" y="105.5806" clip-path="url(#clipPath2)" stroke="none">Use-Case: Gamemode 1</text>
      <text x="349.9689" xml:space="preserve" font-size="12px" y="131.5645" clip-path="url(#clipPath2)" stroke="none">User</text>
      <text x="610.2932" xml:space="preserve" font-size="12px" y="131.5645" clip-path="url(#clipPath2)" stroke="none">Nappy</text>
    </g>
    <g fill="rgb(0,204,255)" text-rendering="geometricPrecision" shape-rendering="geometricPrecision" transform="matrix(1,0,0,1,-198,-69)" stroke="rgb(0,204,255)">
      <path d="M545.6369 361.25 L709.6369 361.25 L709.6369 378.25 Q709.6369 388.25 699.6369 388.25 L555.6369 388.25 Q545.6369 388.25 545.6369 378.25 Z" stroke="none" clip-path="url(#clipPath2)"/>
      <path fill="url(#linearGradient1)" d="M545.6369 346.25 Q545.6369 336.25 555.6369 336.25 L699.6369 336.25 Q709.6369 336.25 709.6369 346.25 L709.6369 362.25 L545.6369 362.25 Z" clip-path="url(#clipPath2)" stroke="none"/>
      <path fill="none" d="M547.6369 346.25 Q547.6369 338.25 555.6369 338.25 L699.6369 338.25 Q707.6369 338.25 707.6369 346.25 L707.6369 378.25 Q707.6369 386.25 699.6369 386.25 L555.6369 386.25 Q547.6369 386.25 547.6369 378.25 Z" stroke-width="2" clip-path="url(#clipPath2)" stroke="rgb(217,247,255)"/>
      <path fill="none" d="M547.6369 346.25 Q547.6369 338.25 555.6369 338.25 L699.6369 338.25 Q707.6369 338.25 707.6369 346.25 L707.6369 378.25 Q707.6369 386.25 699.6369 386.25 L555.6369 386.25 Q547.6369 386.25 547.6369 378.25 Z" clip-path="url(#clipPath2)"/>
    </g>
    <g text-rendering="geometricPrecision" stroke-miterlimit="1.45" shape-rendering="geometricPrecision" font-family="sans-serif" transform="matrix(1,0,0,1,-198,-69)" stroke-linecap="butt">
      <text x="592.9523" xml:space="preserve" y="366.9639" clip-path="url(#clipPath2)" stroke="none">Frage stellen</text>
    </g>
    <g fill="rgb(0,204,255)" text-rendering="geometricPrecision" shape-rendering="geometricPrecision" transform="matrix(1,0,0,1,-198,-69)" stroke="rgb(0,204,255)">
      <path d="M545.6369 609.75 L709.6369 609.75 L709.6369 626.75 Q709.6369 636.75 699.6369 636.75 L555.6369 636.75 Q545.6369 636.75 545.6369 626.75 Z" stroke="none" clip-path="url(#clipPath2)"/>
      <path fill="url(#linearGradient2)" d="M545.6369 594.75 Q545.6369 584.75 555.6369 584.75 L699.6369 584.75 Q709.6369 584.75 709.6369 594.75 L709.6369 610.75 L545.6369 610.75 Z" clip-path="url(#clipPath2)" stroke="none"/>
      <path fill="none" d="M547.6369 594.75 Q547.6369 586.75 555.6369 586.75 L699.6369 586.75 Q707.6369 586.75 707.6369 594.75 L707.6369 626.75 Q707.6369 634.75 699.6369 634.75 L555.6369 634.75 Q547.6369 634.75 547.6369 626.75 Z" stroke-width="2" clip-path="url(#clipPath2)" stroke="rgb(217,247,255)"/>
      <path fill="none" d="M547.6369 594.75 Q547.6369 586.75 555.6369 586.75 L699.6369 586.75 Q707.6369 586.75 707.6369 594.75 L707.6369 626.75 Q707.6369 634.75 699.6369 634.75 L555.6369 634.75 Q547.6369 634.75 547.6369 626.75 Z" clip-path="url(#clipPath2)"/>
    </g>
    <g text-rendering="geometricPrecision" stroke-miterlimit="1.45" shape-rendering="geometricPrecision" font-family="sans-serif" transform="matrix(1,0,0,1,-198,-69)" stroke-linecap="butt">
      <text x="582.2678" xml:space="preserve" y="615.4639" clip-path="url(#clipPath2)" stroke="none">Ergebnis nennen</text>
    </g>
    <g fill="rgb(0,204,255)" text-rendering="geometricPrecision" shape-rendering="geometricPrecision" transform="matrix(1,0,0,1,-198,-69)" stroke="rgb(0,204,255)">
      <path d="M545.6369 238.0625 L709.6369 238.0625 L709.6369 255.0625 Q709.6369 265.0625 699.6369 265.0625 L555.6369 265.0625 Q545.6369 265.0625 545.6369 255.0625 Z" stroke="none" clip-path="url(#clipPath2)"/>
      <path fill="url(#linearGradient3)" d="M545.6369 223.0625 Q545.6369 213.0625 555.6369 213.0625 L699.6369 213.0625 Q709.6369 213.0625 709.6369 223.0625 L709.6369 239.0625 L545.6369 239.0625 Z" clip-path="url(#clipPath2)" stroke="none"/>
      <path fill="none" d="M547.6369 223.0625 Q547.6369 215.0625 555.6369 215.0625 L699.6369 215.0625 Q707.6369 215.0625 707.6369 223.0625 L707.6369 255.0625 Q707.6369 263.0625 699.6369 263.0625 L555.6369 263.0625 Q547.6369 263.0625 547.6369 255.0625 Z" stroke-width="2" clip-path="url(#clipPath2)" stroke="rgb(217,247,255)"/>
      <path fill="none" d="M547.6369 223.0625 Q547.6369 215.0625 555.6369 215.0625 L699.6369 215.0625 Q707.6369 215.0625 707.6369 223.0625 L707.6369 255.0625 Q707.6369 263.0625 699.6369 263.0625 L555.6369 263.0625 Q547.6369 263.0625 547.6369 255.0625 Z" clip-path="url(#clipPath2)"/>
    </g>
    <g text-rendering="geometricPrecision" stroke-miterlimit="1.45" shape-rendering="geometricPrecision" font-family="sans-serif" transform="matrix(1,0,0,1,-198,-69)" stroke-linecap="butt">
      <text x="551.2687" xml:space="preserve" y="243.7764" clip-path="url(#clipPath2)" stroke="none">Spielbildschirm wird geöffnet</text>
    </g>
    <g fill="rgb(0,204,255)" text-rendering="geometricPrecision" shape-rendering="geometricPrecision" transform="matrix(1,0,0,1,-198,-69)" stroke="rgb(0,204,255)">
      <path d="M280.6369 361.25 L444.6369 361.25 L444.6369 378.25 Q444.6369 388.25 434.6369 388.25 L290.6369 388.25 Q280.6369 388.25 280.6369 378.25 Z" stroke="none" clip-path="url(#clipPath2)"/>
      <path fill="url(#linearGradient4)" d="M280.6369 346.25 Q280.6369 336.25 290.6369 336.25 L434.6369 336.25 Q444.6369 336.25 444.6369 346.25 L444.6369 362.25 L280.6369 362.25 Z" clip-path="url(#clipPath2)" stroke="none"/>
      <path fill="none" d="M282.6369 346.25 Q282.6369 338.25 290.6369 338.25 L434.6369 338.25 Q442.6369 338.25 442.6369 346.25 L442.6369 378.25 Q442.6369 386.25 434.6369 386.25 L290.6369 386.25 Q282.6369 386.25 282.6369 378.25 Z" stroke-width="2" clip-path="url(#clipPath2)" stroke="rgb(217,247,255)"/>
      <path fill="none" d="M282.6369 346.25 Q282.6369 338.25 290.6369 338.25 L434.6369 338.25 Q442.6369 338.25 442.6369 346.25 L442.6369 378.25 Q442.6369 386.25 434.6369 386.25 L290.6369 386.25 Q282.6369 386.25 282.6369 378.25 Z" clip-path="url(#clipPath2)"/>
    </g>
    <g text-rendering="geometricPrecision" stroke-miterlimit="1.45" shape-rendering="geometricPrecision" font-family="sans-serif" transform="matrix(1,0,0,1,-198,-69)" stroke-linecap="butt">
      <text x="312.2726" xml:space="preserve" y="366.9639" clip-path="url(#clipPath2)" stroke="none">Frage beantworten</text>
    </g>
    <g fill="rgb(0,204,255)" text-rendering="geometricPrecision" shape-rendering="geometricPrecision" transform="matrix(1,0,0,1,-198,-69)" stroke="rgb(0,204,255)">
      <path d="M545.6369 691.75 L709.6369 691.75 L709.6369 708.75 Q709.6369 718.75 699.6369 718.75 L555.6369 718.75 Q545.6369 718.75 545.6369 708.75 Z" stroke="none" clip-path="url(#clipPath2)"/>
      <path fill="url(#linearGradient5)" d="M545.6369 676.75 Q545.6369 666.75 555.6369 666.75 L699.6369 666.75 Q709.6369 666.75 709.6369 676.75 L709.6369 692.75 L545.6369 692.75 Z" clip-path="url(#clipPath2)" stroke="none"/>
      <path fill="none" d="M547.6369 676.75 Q547.6369 668.75 555.6369 668.75 L699.6369 668.75 Q707.6369 668.75 707.6369 676.75 L707.6369 708.75 Q707.6369 716.75 699.6369 716.75 L555.6369 716.75 Q547.6369 716.75 547.6369 708.75 Z" stroke-width="2" clip-path="url(#clipPath2)" stroke="rgb(217,247,255)"/>
      <path fill="none" d="M547.6369 676.75 Q547.6369 668.75 555.6369 668.75 L699.6369 668.75 Q707.6369 668.75 707.6369 676.75 L707.6369 708.75 Q707.6369 716.75 699.6369 716.75 L555.6369 716.75 Q547.6369 716.75 547.6369 708.75 Z" clip-path="url(#clipPath2)"/>
    </g>
    <g text-rendering="geometricPrecision" stroke-miterlimit="1.45" shape-rendering="geometricPrecision" font-family="sans-serif" transform="matrix(1,0,0,1,-198,-69)" stroke-linecap="butt">
      <text x="566.2599" xml:space="preserve" y="697.4639" clip-path="url(#clipPath2)" stroke="none">Gamemode 1 beenden</text>
    </g>
    <g text-rendering="geometricPrecision" shape-rendering="geometricPrecision" transform="matrix(1,0,0,1,-198,-69)">
      <circle r="9" clip-path="url(#clipPath2)" cx="627.6369" cy="785.125" stroke="none"/>
    </g>
    <g text-rendering="geometricPrecision" stroke-miterlimit="1.45" shape-rendering="geometricPrecision" transform="matrix(1,0,0,1,-198,-69)" stroke-linecap="butt">
      <circle fill="none" r="9" clip-path="url(#clipPath2)" cx="627.6369" cy="785.125"/>
      <circle stroke-linecap="square" clip-path="url(#clipPath2)" r="9" cx="362.6369" cy="163.0625" stroke="none" stroke-miterlimit="10"/>
      <circle fill="none" r="9" clip-path="url(#clipPath2)" cx="362.6369" cy="163.0625"/>
    </g>
    <g fill="rgb(0,204,255)" text-rendering="geometricPrecision" shape-rendering="geometricPrecision" transform="matrix(1,0,0,1,-198,-69)" stroke="rgb(0,204,255)">
      <path d="M280.6369 238.0625 L444.6369 238.0625 L444.6369 255.0625 Q444.6369 265.0625 434.6369 265.0625 L290.6369 265.0625 Q280.6369 265.0625 280.6369 255.0625 Z" stroke="none" clip-path="url(#clipPath2)"/>
      <path fill="url(#linearGradient6)" d="M280.6369 223.0625 Q280.6369 213.0625 290.6369 213.0625 L434.6369 213.0625 Q444.6369 213.0625 444.6369 223.0625 L444.6369 239.0625 L280.6369 239.0625 Z" clip-path="url(#clipPath2)" stroke="none"/>
      <path fill="none" d="M282.6369 223.0625 Q282.6369 215.0625 290.6369 215.0625 L434.6369 215.0625 Q442.6369 215.0625 442.6369 223.0625 L442.6369 255.0625 Q442.6369 263.0625 434.6369 263.0625 L290.6369 263.0625 Q282.6369 263.0625 282.6369 255.0625 Z" stroke-width="2" clip-path="url(#clipPath2)" stroke="rgb(217,247,255)"/>
      <path fill="none" d="M282.6369 223.0625 Q282.6369 215.0625 290.6369 215.0625 L434.6369 215.0625 Q442.6369 215.0625 442.6369 223.0625 L442.6369 255.0625 Q442.6369 263.0625 434.6369 263.0625 L290.6369 263.0625 Q282.6369 263.0625 282.6369 255.0625 Z" clip-path="url(#clipPath2)"/>
    </g>
    <g text-rendering="geometricPrecision" stroke-miterlimit="1.45" shape-rendering="geometricPrecision" font-family="sans-serif" transform="matrix(1,0,0,1,-198,-69)" stroke-linecap="butt">
      <text x="310.2746" xml:space="preserve" y="243.7764" clip-path="url(#clipPath2)" stroke="none">Denkt an eine Figur</text>
    </g>
    <g fill="rgb(0,204,255)" text-rendering="geometricPrecision" shape-rendering="geometricPrecision" transform="matrix(1,0,0,1,-198,-69)" stroke="rgb(0,204,255)">
      <path d="M557.6368 489.875 L627.6369 454.375 L697.6368 489.875 L627.6369 525.375 Z" fill-rule="evenodd" clip-path="url(#clipPath2)" stroke="none"/>
    </g>
    <g text-rendering="geometricPrecision" stroke-miterlimit="1.45" shape-rendering="geometricPrecision" font-family="sans-serif" transform="matrix(1,0,0,1,-198,-69)" stroke-linecap="butt">
      <text x="589.9523" xml:space="preserve" y="494.5889" clip-path="url(#clipPath2)" stroke="none">Figur erraten?</text>
      <path fill="none" d="M557.6368 489.875 L627.6369 454.375 L697.6368 489.875 L627.6369 525.375 Z" clip-path="url(#clipPath2)" fill-rule="evenodd"/>
    </g>
    <g fill="rgb(0,204,255)" text-rendering="geometricPrecision" shape-rendering="geometricPrecision" transform="matrix(1,0,0,1,-198,-69)" stroke="rgb(0,204,255)">
      <path d="M280.6369 609.75 L444.6369 609.75 L444.6369 626.75 Q444.6369 636.75 434.6369 636.75 L290.6369 636.75 Q280.6369 636.75 280.6369 626.75 Z" stroke="none" clip-path="url(#clipPath2)"/>
      <path fill="url(#linearGradient7)" d="M280.6369 594.75 Q280.6369 584.75 290.6369 584.75 L434.6369 584.75 Q444.6369 584.75 444.6369 594.75 L444.6369 610.75 L280.6369 610.75 Z" clip-path="url(#clipPath2)" stroke="none"/>
      <path fill="none" d="M282.6369 594.75 Q282.6369 586.75 290.6369 586.75 L434.6369 586.75 Q442.6369 586.75 442.6369 594.75 L442.6369 626.75 Q442.6369 634.75 434.6369 634.75 L290.6369 634.75 Q282.6369 634.75 282.6369 626.75 Z" stroke-width="2" clip-path="url(#clipPath2)" stroke="rgb(217,247,255)"/>
      <path fill="none" d="M282.6369 594.75 Q282.6369 586.75 290.6369 586.75 L434.6369 586.75 Q442.6369 586.75 442.6369 594.75 L442.6369 626.75 Q442.6369 634.75 434.6369 634.75 L290.6369 634.75 Q282.6369 634.75 282.6369 626.75 Z" clip-path="url(#clipPath2)"/>
    </g>
    <g text-rendering="geometricPrecision" stroke-miterlimit="1.45" shape-rendering="geometricPrecision" font-family="sans-serif" transform="matrix(1,0,0,1,-198,-69)" stroke-linecap="butt">
      <text x="309.6007" xml:space="preserve" y="615.4639" clip-path="url(#clipPath2)" stroke="none">Ergebnis bestätigen</text>
    </g>
    <g text-rendering="geometricPrecision" stroke-miterlimit="1.45" shape-rendering="geometricPrecision" transform="matrix(1,0,0,1,-198,-69)" stroke-linecap="butt">
      <path fill="none" d="M627.6369 265.0775 L627.6369 328.2962" clip-path="url(#clipPath2)"/>
      <path d="M627.6369 336.2962 L632.6369 324.2962 L627.6369 327.2962 L622.6369 324.2962 Z" clip-path="url(#clipPath2)" stroke="none"/>
      <path fill="none" d="M545.6331 362.25 L452.6188 362.25" clip-path="url(#clipPath2)"/>
      <path d="M444.6188 362.25 L456.6188 367.25 L453.6188 362.25 L456.6188 357.25 Z" clip-path="url(#clipPath2)" stroke="none"/>
      <path fill="none" d="M627.6369 718.7756 L627.6369 768.125" clip-path="url(#clipPath2)"/>
      <path d="M627.6369 776.125 L632.6369 764.125 L627.6369 767.125 L622.6369 764.125 Z" clip-path="url(#clipPath2)" stroke="none"/>
      <path fill="none" d="M362.6369 172.0625 L362.6369 205.0542" clip-path="url(#clipPath2)"/>
      <path d="M362.6369 213.0542 L367.6369 201.0542 L362.6369 204.0542 L357.6369 201.0542 Z" clip-path="url(#clipPath2)" stroke="none"/>
      <path fill="none" d="M444.6407 239.0625 L537.6549 239.0625" clip-path="url(#clipPath2)"/>
      <path d="M545.6549 239.0625 L533.6549 234.0625 L536.6549 239.0625 L533.6549 244.0625 Z" clip-path="url(#clipPath2)" stroke="none"/>
      <path fill="none" d="M362.6369 388.2673 L362.6369 489.875 L549.6668 489.875" clip-path="url(#clipPath2)"/>
      <path d="M557.6668 489.875 L545.6668 484.875 L548.6668 489.875 L545.6668 494.875 Z" clip-path="url(#clipPath2)" stroke="none"/>
      <path fill="none" d="M627.6369 454.3855 L627.6369 396.2081" clip-path="url(#clipPath2)"/>
      <path d="M627.6369 388.2081 L622.6369 400.2081 L627.6369 397.2081 L632.6369 400.2081 Z" clip-path="url(#clipPath2)" stroke="none"/>
      <text x="637.2971" xml:space="preserve" y="431.0264" clip-path="url(#clipPath2)" font-family="sans-serif" stroke="none">Nein</text>
      <path fill="none" d="M627.6369 525.3761 L627.6369 576.7794" clip-path="url(#clipPath2)"/>
      <path d="M627.6369 584.7794 L632.6369 572.7794 L627.6369 575.7794 L622.6369 572.7794 Z" clip-path="url(#clipPath2)" stroke="none"/>
      <text x="643.3" xml:space="preserve" y="556.7764" clip-path="url(#clipPath2)" font-family="sans-serif" stroke="none">Ja</text>
      <path fill="none" d="M545.6331 610.75 L452.6188 610.75" clip-path="url(#clipPath2)"/>
      <path d="M444.6188 610.75 L456.6188 615.75 L453.6188 610.75 L456.6188 605.75 Z" clip-path="url(#clipPath2)" stroke="none"/>
      <path fill="none" d="M362.6369 636.7354 L362.6369 692.75 L537.6331 692.75" clip-path="url(#clipPath2)"/>
      <path d="M545.6331 692.75 L533.6331 687.75 L536.6331 692.75 L533.6331 697.75 Z" clip-path="url(#clipPath2)" stroke="none"/>
    </g>
  </g>
</svg>
