<?xml version="1.0" encoding="UTF-8" standalone="no"?>
<!-- Created with Inkscape (http://www.inkscape.org/) -->

<svg
   xmlns:dc="http://purl.org/dc/elements/1.1/"
   xmlns:cc="http://creativecommons.org/ns#"
   xmlns:rdf="http://www.w3.org/1999/02/22-rdf-syntax-ns#"
   xmlns:svg="http://www.w3.org/2000/svg"
   xmlns="http://www.w3.org/2000/svg"
   xmlns:sodipodi="http://sodipodi.sourceforge.net/DTD/sodipodi-0.dtd"
   xmlns:inkscape="http://www.inkscape.org/namespaces/inkscape"
   width="64"
   height="64"
   id="svg3924"
   version="1.1"
   inkscape:version="0.48.4 r9939"
   sodipodi:docname="icon.svg"
   inkscape:export-filename="/home/mz/Dev/software engeneering/docs/pdfs/icon.png"
   inkscape:export-xdpi="90"
   inkscape:export-ydpi="90">
  <defs
     id="defs3926" />
  <sodipodi:namedview
     id="base"
     pagecolor="#ffffff"
     bordercolor="#666666"
     borderopacity="1.0"
     inkscape:pageopacity="0.0"
     inkscape:pageshadow="2"
     inkscape:zoom="7.9195959"
     inkscape:cx="30.911644"
     inkscape:cy="21.061519"
     inkscape:document-units="px"
     inkscape:current-layer="layer1"
     showgrid="true"
     inkscape:window-width="1539"
     inkscape:window-height="876"
     inkscape:window-x="61"
     inkscape:window-y="24"
     inkscape:window-maximized="1">
    <inkscape:grid
       type="xygrid"
       id="grid4121"
       empspacing="1"
       visible="true"
       enabled="true"
       snapvisiblegridlinesonly="true"
       spacingx="1px"
       spacingy="1px" />
  </sodipodi:namedview>
  <metadata
     id="metadata3929">
    <rdf:RDF>
      <cc:Work
         rdf:about="">
        <dc:format>image/svg+xml</dc:format>
        <dc:type
           rdf:resource="http://purl.org/dc/dcmitype/StillImage" />
        <dc:title></dc:title>
      </cc:Work>
    </rdf:RDF>
  </metadata>
  <g
     inkscape:label="Ebene 1"
     inkscape:groupmode="layer"
     id="layer1"
     transform="translate(0,-988.36218)">
    <path
       style="fill:#ffffff;fill-opacity:1;stroke:none"
       d="m 16.384895,1035.6566 0.06949,3.1729 12.955921,3.8496 9.236215,-8.9742 -4.519847,-1.8342 z"
       id="path3839"
       inkscape:connector-curvature="0"
       sodipodi:nodetypes="cccccc" />
    <path
       style="fill:#f4d815;fill-opacity:1;stroke:#000000;stroke-width:0.69999999;stroke-linecap:butt;stroke-linejoin:miter;stroke-miterlimit:4;stroke-opacity:1;stroke-dasharray:none"
       d="m 33.59375,991.47267 c -14.077017,0.31648 -25.6009722,7.31159 -25.5625,26.09373 0.00104,0.4412 0.28125,2.375 0.28125,2.375 l 0.3125,4 c 0,0 0.8320587,4.1628 1.84375,6.2813 0.55858,1.1697 0.286288,3.4269 1.3125,4.2187 1.235506,0.9534 2.887602,1.2554 4.4375,1.4375 4.394278,0.5161 8.90235,-0.2415 13.25,-1.0625 1.479672,-0.2794 2.257067,-0.3761 4.3125,-1.3125 1.452868,-0.6619 2.074531,1.8976 1.3125,2.375 -1.588024,0.9948 -2.806542,1.3253 -4.3125,1.6875 -4.393868,1.0568 -9.299939,2.1622 -13.75,1.375 -1.274077,-0.2254 -1.375528,-1.0831 -1.78125,-0.3437 -0.399695,0.7285 -0.479794,1.7487 -0.125,2.5 0.973438,2.0614 3.976898,1.6064 5.09375,3.5937 0.87916,1.5644 1.156312,3.4917 1,5.3438 1.352557,3.7772 7.289259,8.1565 11,8.1875 4.168134,0.035 10.094495,-3.7562 12.625,-8.0625 -0.551965,-3.8359 0.567272,-8.4385 1.46875,-13.375 0,0 10.857071,-5.2265 10.875,-17.5313 0.02734,-18.7704 -9.52052,-27.46484 -23.59375,-27.78123 z"
       id="path3845"
       inkscape:connector-curvature="0" />
    <path
       style="fill:#000000;fill-opacity:0.17647059;stroke:none"
       d="m 43.8125,993.53517 c 7.046949,4.04571 11.330802,12.12223 11.3125,24.68753 -0.01795,12.3049 -10.90625,17.5 -10.90625,17.5 -0.901478,4.9365 -1.728246,9.1503 -1.46875,13.375 0.135628,2.208 -0.336087,3.5621 -1.21875,4.9062 0.02789,-0.024 0.06602,-0.038 0.09375,-0.062 0.304782,-0.2692 0.591524,-0.5592 0.875,-0.8437 0.307912,-0.309 0.597245,-0.6137 0.875,-0.9375 0.268154,-0.3126 0.514773,-0.6455 0.75,-0.9688 0.0087,-0.012 0.02264,-0.019 0.03125,-0.031 0.05367,-0.074 0.104471,-0.1441 0.15625,-0.2188 0.183505,-0.2644 0.373093,-0.5121 0.53125,-0.7812 -0.551965,-3.8358 0.536022,-8.4385 1.4375,-13.375 0,0 10.888321,-5.2265 10.90625,-17.5313 0.02002,-13.7588 -5.096161,-22.11715 -13.375,-25.71873 z m -27.96875,48.46873 c 0.461511,0.3852 1.035164,0.6118 1.625,0.8438 -0.468847,-0.3818 -1.042708,-0.6145 -1.625,-0.8438 z"
       id="path4046"
       inkscape:connector-curvature="0" />
    <path
       style="fill:#000000;fill-opacity:0.17647059;stroke:none"
       d="m 33.60027,991.45856 c -13.686894,0.30771 -24.9542428,6.94632 -25.5333914,24.57694 l 0.1134818,-0.3405 c 0.076026,-1.0738 0.2038728,-2.1 0.4215035,-2.9343 1.063014,-4.0749 2.7723421,-8.3105 5.7551451,-11.2833 2.355585,-2.34775 5.597552,-4.86572 8.900211,-4.47444 0.787286,0.0932 1.674186,0.75729 1.799496,1.54011 0.482096,3.01173 -2.762288,4.26993 -4.782445,7.79783 -1.212452,2.1173 -1.71023,4.5128 -1.912978,6.971 -3.593342,0.6306 -6.982755,2.0001 -10.3106261,3.5179 -0.00363,0.2451 -0.016704,0.4804 -0.016186,0.7296 0.00104,0.4412 0.2755985,2.3831 0.2755985,2.3831 l 0.064847,0.9403 c 2.6659466,-0.9877 6.6843886,-2.3993 9.8566996,-3.2262 2.01833,-0.5261 3.791353,-0.9826 5.576817,-1.1672 3.180705,-0.3289 6.467961,0.027 9.532466,0.9403 2.2079,0.6579 4.06,1.9104 5.99832,3.3234 4.583978,3.3416 11.679126,9.783 11.510291,10.1161 l 2.302058,-3.1937 c -2.914616,-3.663 -7.808078,-8.0148 -12.207393,-10.9267 0.311493,-1.031 0.534052,-2.0245 0.648467,-2.8857 0.515189,-3.8779 -0.835173,-7.5122 -1.831919,-11.413 -1.655531,-6.47896 6.40423,-1.5033 8.21932,0.4215 1.745393,1.8509 2.640065,4.1727 3.258547,6.4685 0.925762,3.4363 0.77981,7.2614 0.372869,10.7969 -0.148748,1.2924 -0.540365,2.9161 -1.021336,4.5717 l 5.398488,1.2807 c 0.739932,-1.9548 1.195955,-4.2 1.199664,-6.744 0.02734,-18.7704 -9.51476,-27.47045 -23.587989,-27.78684 z"
       id="path3958"
       inkscape:connector-curvature="0" />
    <path
       style="fill:#000000;fill-opacity:0.17647059;stroke:none"
       d="m 21.776541,1022.1763 c 0,0 -0.06227,2.7431 -1.221271,5.0044 -1.130418,2.2056 -3.838385,3.7327 -3.422044,4.9196 0.416342,1.1868 3.892888,3.6142 6.060356,1.8729 2.167467,-1.7412 4.223679,-6.211 2.293016,-6.8607"
       id="path3974"
       inkscape:connector-curvature="0"
       sodipodi:nodetypes="cszzc" />
    <g
       id="g4024"
       transform="matrix(0.51877366,0,0,0.51877366,-55.369413,890.49224)">
      <path
         sodipodi:type="arc"
         style="fill:#ffffff;fill-opacity:1;stroke:#000000;stroke-width:1.83989275;stroke-miterlimit:4;stroke-opacity:1;stroke-dasharray:none"
         id="path3850"
         sodipodi:cx="370.53571"
         sodipodi:cy="249.14789"
         sodipodi:rx="16.25"
         sodipodi:ry="16.071428"
         d="m 386.78571,249.14789 c 0,8.876 -7.27538,16.07143 -16.25,16.07143 -8.97463,0 -16.25,-7.19543 -16.25,-16.07143 0,-8.87601 7.27537,-16.07143 16.25,-16.07143 8.97462,0 16.25,7.19542 16.25,16.07143 z"
         transform="matrix(0.36671088,-0.63516186,0.63508529,0.36666667,-158.88371,403.19042)" />
      <path
         transform="matrix(0.0528502,-0.09153923,0.09143127,0.05278787,91.155157,281.20072)"
         d="m 386.78571,249.14789 c 0,8.876 -7.27538,16.07143 -16.25,16.07143 -8.97463,0 -16.25,-7.19543 -16.25,-16.07143 0,-8.87601 7.27537,-16.07143 16.25,-16.07143 8.97462,0 16.25,7.19542 16.25,16.07143 z"
         sodipodi:ry="16.071428"
         sodipodi:rx="16.25"
         sodipodi:cy="249.14789"
         sodipodi:cx="370.53571"
         id="path3852"
         style="fill:#000000;fill-opacity:1;stroke:none"
         sodipodi:type="arc" />
      <path
         id="path4015"
         d="m 139.40625,248.0625 c 4.10814,3.29343 5.30538,9.1867 2.5625,13.9375 -3.0243,5.23824 -9.66369,7.08446 -14.84375,4.09375 -1.15734,-0.66819 -2.13778,-1.55267 -2.9375,-2.53125 0.92934,2.42641 2.67915,4.57468 5.09375,5.96875 5.63702,3.25454 12.86516,1.26284 16.15625,-4.4375 3.29109,-5.70034 1.38702,-12.96421 -4.25,-16.21875 -0.57645,-0.33281 -1.17726,-0.5876 -1.78125,-0.8125 z"
         style="fill:#000000;fill-opacity:0.17647059;stroke:none"
         inkscape:connector-curvature="0" />
    </g>
    <path
       sodipodi:nodetypes="cszzc"
       inkscape:connector-curvature="0"
       id="path3855"
       d="m 19.573559,1019.5344 c 0,0 0.43703,2.7088 -0.29192,5.143 -0.710974,2.3743 -3.096508,4.3678 -2.4715,5.4593 0.625009,1.0915 4.484643,2.847 6.299754,0.741 1.815112,-2.106 3.025198,-6.8749 1.008647,-7.1631"
       style="fill:#f4d815;fill-opacity:1;stroke:#000000;stroke-width:0.69999999;stroke-linecap:round;stroke-linejoin:miter;stroke-miterlimit:4;stroke-opacity:1;stroke-dasharray:none" />
    <path
       style="fill:#000000;fill-opacity:0.17647059;stroke:none"
       d="m 22.381789,1022.585 c 0,0 -0.523686,1.2432 -0.618129,2.0121 -0.17809,1.4497 0.89532,2.8704 0.569494,4.2942 -0.175568,0.7673 -0.817769,1.4531 -1.507686,1.832 -0.754079,0.414 -2.303396,0.4063 -2.837043,0.389 1.456301,0.7978 3.816338,1.289 5.12289,-0.2269 1.197008,-1.3889 2.123792,-3.9368 2.042671,-5.5931 -1.228134,-1.2284 -2.772197,-2.7073 -2.772197,-2.7073 z"
       id="path3976"
       inkscape:connector-curvature="0"
       sodipodi:nodetypes="cssscscc" />
    <path
       sodipodi:nodetypes="cc"
       inkscape:connector-curvature="0"
       id="path3883"
       d="m 16.384895,1035.6566 0.06949,3.1729"
       style="fill:none;stroke:#000000;stroke-width:0.69999999;stroke-linecap:butt;stroke-linejoin:miter;stroke-miterlimit:4;stroke-opacity:1;stroke-dasharray:none" />
    <path
       style="fill:none;stroke:#000000;stroke-width:0.69999999;stroke-linecap:butt;stroke-linejoin:miter;stroke-miterlimit:4;stroke-opacity:1;stroke-dasharray:none"
       d="m 18.561893,1035.8882 0.18528,3.4276"
       id="path3885"
       inkscape:connector-curvature="0" />
    <path
       inkscape:connector-curvature="0"
       id="path3887"
       d="m 21.341036,1035.7955 0.18528,3.4277"
       style="fill:none;stroke:#000000;stroke-width:0.69999999;stroke-linecap:butt;stroke-linejoin:miter;stroke-miterlimit:4;stroke-opacity:1;stroke-dasharray:none" />
    <path
       style="fill:none;stroke:#000000;stroke-width:0.69999999;stroke-linecap:butt;stroke-linejoin:miter;stroke-miterlimit:4;stroke-opacity:1;stroke-dasharray:none"
       d="m 24.073863,1035.7029 0.18528,3.4276"
       id="path3889"
       inkscape:connector-curvature="0" />
    <path
       sodipodi:nodetypes="cc"
       inkscape:connector-curvature="0"
       id="path3891"
       d="m 26.389819,1035.425 0.277917,3.0107"
       style="fill:none;stroke:#000000;stroke-width:0.69999999;stroke-linecap:butt;stroke-linejoin:miter;stroke-miterlimit:4;stroke-opacity:1;stroke-dasharray:none" />
    <path
       sodipodi:nodetypes="cc"
       style="fill:none;stroke:#000000;stroke-width:0.69999999;stroke-linecap:butt;stroke-linejoin:miter;stroke-miterlimit:4;stroke-opacity:1;stroke-dasharray:none"
       d="m 30.712947,1034.5605 0.572124,2.988"
       id="path3893"
       inkscape:connector-curvature="0" />
    <path
       sodipodi:nodetypes="cc"
       inkscape:connector-curvature="0"
       id="path3895"
       d="m 28.629199,1034.9766 0.418863,3.2404"
       style="fill:none;stroke:#000000;stroke-width:0.69999999;stroke-linecap:butt;stroke-linejoin:miter;stroke-miterlimit:4;stroke-opacity:1;stroke-dasharray:none" />
    <path
       sodipodi:nodetypes="cc"
       inkscape:connector-curvature="0"
       id="path3897"
       d="m 32.501528,1033.9113 1.07811,2.9506"
       style="fill:none;stroke:#000000;stroke-width:0.69999999;stroke-linecap:butt;stroke-linejoin:miter;stroke-miterlimit:4;stroke-opacity:1;stroke-dasharray:none" />
    <path
       style="fill:#ffffff;stroke:#000000;stroke-width:0.69999999;stroke-linecap:butt;stroke-linejoin:miter;stroke-miterlimit:4;stroke-opacity:1;stroke-dasharray:none"
       d="m 32.337543,989.77832 c -2.208767,-0.11431 -4.427655,0.0171 -6.566071,0.46164 -5.394297,1.12144 -10.441736,3.58268 -14.31296,7.50311 -2.4087233,2.43933 -4.1052325,5.68463 -4.9284848,9.01243 -0.8780504,3.5494 -1.1355073,7.2852 -0.8892299,10.9561 l 2.73678,-1.009 c -0.025627,-2.1742 0.049439,-4.902 0.5246358,-6.7237 1.0781725,-4.1334 2.7884549,-8.4047 5.8139949,-11.42018 2.389347,-2.38137 5.684058,-4.95817 9.034044,-4.56129 0.798564,0.0946 1.712721,0.76638 1.839826,1.56042 0.489001,3.05486 -2.801539,4.33439 -4.850653,7.91285 -2.131149,3.7216 -2.216362,7.9637 -2.169185,12.2113 2.047325,-0.6841 4.110301,-0.8741 5.733907,-1.0375 3.227176,-0.3249 6.615401,-0.104 9.68442,0.9455 2.028031,0.6935 3.875203,1.993 5.635215,3.2755 1.441677,-2.4414 2.43214,-5.52 2.728469,-7.7505 0.522587,-3.9335 -0.852096,-7.6367 -1.863134,-11.59345 -1.67925,-6.57178 6.49736,-1.50845 8.338477,0.44392 1.770398,1.87743 2.675228,4.23393 3.30257,6.56263 0.939027,3.4856 0.79567,7.3557 0.382902,10.9419 -0.327517,2.8455 -1.811417,7.2861 -2.865991,10.1823 1.059227,1.2701 2.066462,2.8076 3.161609,4.0105 0.679495,0.7464 1.59637,2.4449 2.145928,1.5984 1.172724,-1.8064 2.255,-4.8812 2.776747,-7.0845 0.667889,-2.8205 1.039259,-5.5468 1.004044,-8.4451 -0.04923,-4.0535 -0.428066,-8.4479 -1.897534,-12.226 -1.452275,-3.7339 -3.760709,-6.85795 -6.913131,-9.33051 -3.360548,-2.6358 -6.913323,-4.37363 -11.059476,-5.39841 -2.120326,-0.52407 -4.318977,-0.88406 -6.527744,-0.99836 z"
       id="path3944"
       inkscape:connector-curvature="0"
       sodipodi:nodetypes="csssccsscsscsscssssscssssssssc" />
    <path
       sodipodi:nodetypes="cscc"
       inkscape:connector-curvature="0"
       id="path3949"
       d="m 50.850474,1029.2082 c 0.20875,-0.4118 -10.786601,-10.0411 -14.149562,-11.9348 -1.748059,-0.9844 0.491881,-4.3054 1.983127,-3.572 4.8735,2.7522 11.046159,8.0087 14.472156,12.3143"
       style="fill:#ffffff;stroke:#000000;stroke-width:0.69999999;stroke-linecap:butt;stroke-linejoin:miter;stroke-miterlimit:4;stroke-opacity:1;stroke-dasharray:none" />
    <path
       style="fill:#000000;fill-opacity:0.17647059;stroke:none"
       d="m 53.23261,999.36986 c 0.866939,2.90404 1.802526,6.52124 1.945402,8.98124 0.315746,5.4366 -0.444522,11.0204 -2.139942,16.1955 -0.424657,1.2962 -1.363399,3.0348 -2.253423,4.5555 0.665099,0.8856 1.326043,1.7921 2.02646,2.5614 0.679495,0.7464 1.590383,2.4515 2.139941,1.605 1.172724,-1.8064 2.266662,-4.8812 2.788409,-7.0845 0.66789,-2.8205 1.024126,-5.548 0.988912,-8.4463 -0.04923,-4.0535 -0.427298,-8.4617 -1.896766,-12.2398 -0.884629,-2.2745 -2.081777,-4.3156 -3.598993,-6.12804 z"
       id="path4052"
       inkscape:connector-curvature="0" />
    <path
       style="fill:#ffffff;stroke:#000000;stroke-width:0.69999999;stroke-linecap:butt;stroke-linejoin:miter;stroke-miterlimit:4;stroke-opacity:1;stroke-dasharray:none"
       d="m 21.389832,1015.4067 c 2.003187,-0.1092 1.464083,-4.0786 -0.197783,-4.0807 -5.588245,0.3114 -10.637521,2.6604 -15.6151387,5.0056 l 0.027028,3.9672 c 0.2404049,-0.1819 11.9321057,-4.682 15.7858827,-4.8921 z"
       id="path3940"
       inkscape:connector-curvature="0"
       sodipodi:nodetypes="scccs" />
    <path
       sodipodi:type="arc"
       style="fill:#000000;fill-opacity:0.17647059;fill-rule:nonzero;stroke:#000000;stroke-width:0.67135;stroke-miterlimit:4;stroke-opacity:1;stroke-dasharray:none"
       id="path3954"
       sodipodi:cx="145.04527"
       sodipodi:cy="238.57066"
       sodipodi:rx="1.8561553"
       sodipodi:ry="0.92807764"
       d="m 146.90143,238.57066 a 1.8561553,0.92807764 0 1 1 -3.71231,0 1.8561553,0.92807764 0 1 1 3.71231,0 z"
       transform="matrix(0.73544285,0.05205418,-0.10410835,1.4708857,-61.633449,654.97081)" />
    <path
       transform="matrix(0.73544285,0.05205418,-0.10410835,1.4708857,-43.394912,657.45618)"
       d="m 146.90143,238.57066 a 1.8561553,0.92807764 0 1 1 -3.71231,0 1.8561553,0.92807764 0 1 1 3.71231,0 z"
       sodipodi:ry="0.92807764"
       sodipodi:rx="1.8561553"
       sodipodi:cy="238.57066"
       sodipodi:cx="145.04527"
       id="path3956"
       style="fill:#000000;fill-opacity:0.17647059;fill-rule:nonzero;stroke:#000000;stroke-width:0.67135;stroke-miterlimit:4;stroke-opacity:1;stroke-dasharray:none"
       sodipodi:type="arc" />
    <g
       id="g4029"
       transform="matrix(0.51877366,0,0,0.51877366,-55.369413,890.49224)">
      <path
         transform="translate(-204.39612,8.3169001)"
         d="m 386.78571,249.14789 c 0,8.876 -7.27538,16.07143 -16.25,16.07143 -8.97463,0 -16.25,-7.19543 -16.25,-16.07143 0,-8.87601 7.27537,-16.07143 16.25,-16.07143 8.97462,0 16.25,7.19542 16.25,16.07143 z"
         sodipodi:ry="16.071428"
         sodipodi:rx="16.25"
         sodipodi:cy="249.14789"
         sodipodi:cx="370.53571"
         id="path3859"
         style="fill:#ffffff;fill-opacity:1;stroke:#000000;stroke-width:1.34933603;stroke-miterlimit:4;stroke-opacity:1;stroke-dasharray:none"
         sodipodi:type="arc" />
      <path
         sodipodi:type="arc"
         style="fill:#000000;fill-opacity:1;stroke:none"
         id="path3863"
         sodipodi:cx="370.53571"
         sodipodi:cy="249.14789"
         sodipodi:rx="16.25"
         sodipodi:ry="16.071428"
         d="m 386.78571,249.14789 c 0,8.876 -7.27538,16.07143 -16.25,16.07143 -8.97463,0 -16.25,-7.19543 -16.25,-16.07143 0,-8.87601 7.27537,-16.07143 16.25,-16.07143 8.97462,0 16.25,7.19542 16.25,16.07143 z"
         transform="matrix(0.14411953,0,0,0.14396692,111.70664,223.54208)" />
      <path
         id="path4017"
         d="m 170.53125,242 c 3.57979,2.57232 5.90625,6.75771 5.90625,11.46875 0,7.8159 -6.40976,14.15625 -14.3125,14.15625 -4.83503,0 -9.06591,-2.39999 -11.65625,-6.03125 1.84334,6.87432 8.12559,11.9375 15.65625,11.9375 8.97463,0 16.25,-7.1865 16.25,-16.0625 0,-7.36806 -5.00671,-13.57137 -11.84375,-15.46875 z"
         style="fill:#000000;fill-opacity:0.17647059;stroke:none"
         inkscape:connector-curvature="0" />
    </g>
    <g
       id="g3858"
       transform="matrix(0.51877366,0,0,0.51877366,-55.369413,890.49224)">
      <path
         sodipodi:nodetypes="czc"
         inkscape:connector-curvature="0"
         id="path3879"
         d="m 198.73912,267.35979 c 0.96816,-1.03982 12.75054,-3.12145 11.30923,7.77164 -1.44131,10.8931 -14.43174,6.76412 -14.90928,3.26887"
         style="fill:#f4d815;fill-opacity:1;stroke:#000000;stroke-width:1.34933603;stroke-linecap:round;stroke-linejoin:miter;stroke-miterlimit:4;stroke-opacity:1;stroke-dasharray:none" />
      <path
         sodipodi:nodetypes="cscc"
         inkscape:connector-curvature="0"
         id="path3881"
         d="m 206.02475,273.47746 c 0,0 -2.1385,-2.37581 -4.62206,-0.91681 -1.26098,0.74079 -3.2286,2.97079 -3.2286,2.97079 3.63626,-4.66735 5.13213,-2.90744 5.73161,1.54422"
         style="fill:none;stroke:#000000;stroke-width:1.34933603;stroke-linecap:round;stroke-linejoin:round;stroke-miterlimit:4;stroke-opacity:1;stroke-dasharray:none" />
      <path
         id="path4034"
         d="m 202.6875,266.5 c 1.24521,0.87671 3.11645,2.19159 3.5625,3.28125 0.72417,1.76908 1.15965,3.50137 1,5.40625 -0.10588,1.26334 -0.87214,3.12833 -2.4375,4.3125 -2.19195,1.65817 -7.29481,0.38175 -9.25,-0.1875 2.27548,3.1784 13.18565,5.74606 14.5,-4.1875 0.93904,-7.09701 -3.73555,-8.66653 -7.375,-8.625 z"
         style="fill:#000000;fill-opacity:0.17647059;stroke:none"
         inkscape:connector-curvature="0" />
    </g>
  </g>
</svg>
