<?xml version="1.0" encoding="UTF-8" standalone="no"?>
<!-- Created with Inkscape (http://www.inkscape.org/) -->

<svg
   xmlns:dc="http://purl.org/dc/elements/1.1/"
   xmlns:cc="http://creativecommons.org/ns#"
   xmlns:rdf="http://www.w3.org/1999/02/22-rdf-syntax-ns#"
   xmlns:svg="http://www.w3.org/2000/svg"
   xmlns="http://www.w3.org/2000/svg"
   xmlns:sodipodi="http://sodipodi.sourceforge.net/DTD/sodipodi-0.dtd"
   xmlns:inkscape="http://www.inkscape.org/namespaces/inkscape"
   width="210mm"
   height="297mm"
   id="svg4713"
   version="1.1"
   inkscape:version="0.48.4 r9939"
   sodipodi:docname="logo.svg">
  <defs
     id="defs4715" />
  <sodipodi:namedview
     id="base"
     pagecolor="#ffffff"
     bordercolor="#666666"
     borderopacity="1.0"
     inkscape:pageopacity="0.0"
     inkscape:pageshadow="2"
     inkscape:zoom="3.959798"
     inkscape:cx="109.25932"
     inkscape:cy="912.16976"
     inkscape:document-units="px"
     inkscape:current-layer="layer1"
     showgrid="false"
     inkscape:window-width="1539"
     inkscape:window-height="876"
     inkscape:window-x="61"
     inkscape:window-y="24"
     inkscape:window-maximized="1" />
  <metadata
     id="metadata4718">
    <rdf:RDF>
      <cc:Work
         rdf:about="">
        <dc:format>image/svg+xml</dc:format>
        <dc:type
           rdf:resource="http://purl.org/dc/dcmitype/StillImage" />
        <dc:title></dc:title>
      </cc:Work>
    </rdf:RDF>
  </metadata>
  <g
     inkscape:label="Ebene 1"
     inkscape:groupmode="layer"
     id="layer1">
    <rect
       style="fill:none;fill-opacity:1;stroke:none"
       id="rect3912"
       width="100"
       height="100"
       x="44.177711"
       y="71.288841"
       rx="0.15296"
       ry="0.15296002"
       inkscape:export-xdpi="900.00006"
       inkscape:export-ydpi="900.00006" />
    <path
       style="fill:#ffffff;fill-opacity:1;stroke:none"
       d="m 78.52569,146.89483 0.0695,3.1729 12.95593,3.8496 9.23621,-8.9742 -4.51985,-1.8342 z"
       id="path3839"
       inkscape:connector-curvature="0"
       sodipodi:nodetypes="cccccc" />
    <path
       style="fill:#f4d815;fill-opacity:1;stroke:#000000;stroke-width:0.69999999;stroke-linecap:butt;stroke-linejoin:miter;stroke-miterlimit:4;stroke-opacity:1;stroke-dasharray:none"
       d="m 95.73455,102.7109 c -14.07702,0.31648 -25.60097,7.31159 -25.5625,26.09373 0.001,0.4412 0.28125,2.375 0.28125,2.375 l 0.3125,4 c 0,0 0.83206,4.1628 1.84375,6.2813 0.55858,1.1697 0.28629,3.4269 1.3125,4.2187 1.2355,0.9534 2.8876,1.2554 4.4375,1.4375 4.39428,0.5161 8.90235,-0.2415 13.25,-1.0625 1.47967,-0.2794 2.25707,-0.3761 4.3125,-1.3125 1.45287,-0.6619 2.07453,1.8976 1.3125,2.375 -1.58802,0.9948 -2.80654,1.3253 -4.3125,1.6875 -4.39387,1.0568 -9.29994,2.1622 -13.75,1.375 -1.27408,-0.2254 -1.37553,-1.0831 -1.78125,-0.3437 -0.3997,0.7285 -0.4798,1.7487 -0.125,2.5 0.97344,2.0614 3.9769,1.6064 5.09375,3.5937 0.87916,1.5644 1.15631,3.4917 1,5.3438 1.35256,3.7772 7.28926,8.1565 11,8.1875 4.16813,0.035 10.09449,-3.7562 12.625,-8.0625 -0.55197,-3.8359 0.56727,-8.4385 1.46875,-13.375 0,0 10.85707,-5.2265 10.875,-17.5313 0.0273,-18.7704 -9.52052,-27.46484 -23.59375,-27.78123 z"
       id="path3845"
       inkscape:connector-curvature="0" />
    <path
       style="fill:#000000;fill-opacity:0.17647059;stroke:none"
       d="m 105.9533,104.7734 c 7.04695,4.04571 11.3308,12.12223 11.3125,24.68753 -0.018,12.3049 -10.90625,17.5 -10.90625,17.5 -0.90148,4.9365 -1.72825,9.1503 -1.46875,13.375 0.13563,2.208 -0.33609,3.5621 -1.21875,4.9062 0.0279,-0.024 0.066,-0.038 0.0937,-0.062 0.30478,-0.2692 0.59152,-0.5592 0.875,-0.8437 0.30791,-0.309 0.59724,-0.6137 0.875,-0.9375 0.26815,-0.3126 0.51477,-0.6455 0.75,-0.9688 0.009,-0.012 0.0226,-0.019 0.0312,-0.031 0.0537,-0.074 0.10447,-0.1441 0.15625,-0.2188 0.1835,-0.2644 0.37309,-0.5121 0.53125,-0.7812 -0.55197,-3.8358 0.53602,-8.4385 1.4375,-13.375 0,0 10.88832,-5.2265 10.90625,-17.5313 0.02,-13.7588 -5.09616,-22.11715 -13.375,-25.71873 z m -27.96875,48.46873 c 0.46151,0.3852 1.03516,0.6118 1.625,0.8438 -0.46885,-0.3818 -1.04271,-0.6145 -1.625,-0.8438 z"
       id="path4046"
       inkscape:connector-curvature="0" />
    <path
       style="fill:#000000;fill-opacity:0.17647059;stroke:none"
       d="m 95.74107,102.69679 c -13.68689,0.30771 -24.95424,6.94632 -25.53339,24.57694 l 0.11348,-0.3405 c 0.076,-1.0738 0.20387,-2.1 0.4215,-2.9343 1.06302,-4.0749 2.77234,-8.3105 5.75515,-11.2833 2.35558,-2.34775 5.59755,-4.86572 8.90021,-4.47444 0.78729,0.0932 1.67419,0.75729 1.7995,1.54011 0.48209,3.01173 -2.76229,4.26993 -4.78245,7.79783 -1.21245,2.1173 -1.71023,4.5128 -1.91298,6.971 -3.59334,0.6306 -6.98275,2.0001 -10.31062,3.5179 -0.004,0.2451 -0.0167,0.4804 -0.0162,0.7296 0.001,0.4412 0.2756,2.3831 0.2756,2.3831 l 0.0648,0.9403 c 2.66594,-0.9877 6.68438,-2.3993 9.8567,-3.2262 2.01833,-0.5261 3.79135,-0.9826 5.57681,-1.1672 3.18071,-0.3289 6.46796,0.027 9.53247,0.9403 2.2079,0.6579 4.06,1.9104 5.99832,3.3234 4.58398,3.3416 11.67912,9.783 11.51029,10.1161 l 2.30206,-3.1937 c -2.91462,-3.663 -7.80808,-8.0148 -12.2074,-10.9267 0.3115,-1.031 0.53406,-2.0245 0.64847,-2.8857 0.51519,-3.8779 -0.83517,-7.5122 -1.83192,-11.413 -1.65553,-6.47896 6.40423,-1.5033 8.21932,0.4215 1.7454,1.8509 2.64007,4.1727 3.25855,6.4685 0.92576,3.4363 0.77981,7.2614 0.37287,10.7969 -0.14875,1.2924 -0.54037,2.9161 -1.02134,4.5717 l 5.39849,1.2807 c 0.73993,-1.9548 1.19596,-4.2 1.19966,-6.744 0.0273,-18.7704 -9.51476,-27.47045 -23.58798,-27.78684 z"
       id="path3958"
       inkscape:connector-curvature="0" />
    <path
       style="fill:#000000;fill-opacity:0.17647059;stroke:none"
       d="m 83.91734,133.41453 c 0,0 -0.0623,2.7431 -1.22127,5.0044 -1.13042,2.2056 -3.83839,3.7327 -3.42204,4.9196 0.41634,1.1868 3.89288,3.6142 6.06035,1.8729 2.16747,-1.7412 4.22368,-6.211 2.29302,-6.8607"
       id="path3974"
       inkscape:connector-curvature="0"
       sodipodi:nodetypes="cszzc" />
    <g
       id="g4024"
       transform="matrix(0.51877366,0,0,0.51877366,6.77139,1.73047)">
      <path
         sodipodi:type="arc"
         style="fill:#ffffff;fill-opacity:1;stroke:#000000;stroke-width:1.83989275;stroke-miterlimit:4;stroke-opacity:1;stroke-dasharray:none"
         id="path3850"
         sodipodi:cx="370.53571"
         sodipodi:cy="249.14789"
         sodipodi:rx="16.25"
         sodipodi:ry="16.071428"
         d="m 386.78571,249.14789 c 0,8.876 -7.27538,16.07143 -16.25,16.07143 -8.97463,0 -16.25,-7.19543 -16.25,-16.07143 0,-8.87601 7.27537,-16.07143 16.25,-16.07143 8.97462,0 16.25,7.19542 16.25,16.07143 z"
         transform="matrix(0.36671088,-0.63516186,0.63508529,0.36666667,-158.88371,403.19042)" />
      <path
         transform="matrix(0.0528502,-0.09153923,0.09143127,0.05278787,91.155157,281.20072)"
         d="m 386.78571,249.14789 c 0,8.876 -7.27538,16.07143 -16.25,16.07143 -8.97463,0 -16.25,-7.19543 -16.25,-16.07143 0,-8.87601 7.27537,-16.07143 16.25,-16.07143 8.97462,0 16.25,7.19542 16.25,16.07143 z"
         sodipodi:ry="16.071428"
         sodipodi:rx="16.25"
         sodipodi:cy="249.14789"
         sodipodi:cx="370.53571"
         id="path3852"
         style="fill:#000000;fill-opacity:1;stroke:none"
         sodipodi:type="arc" />
      <path
         id="path4015"
         d="m 139.40625,248.0625 c 4.10814,3.29343 5.30538,9.1867 2.5625,13.9375 -3.0243,5.23824 -9.66369,7.08446 -14.84375,4.09375 -1.15734,-0.66819 -2.13778,-1.55267 -2.9375,-2.53125 0.92934,2.42641 2.67915,4.57468 5.09375,5.96875 5.63702,3.25454 12.86516,1.26284 16.15625,-4.4375 3.29109,-5.70034 1.38702,-12.96421 -4.25,-16.21875 -0.57645,-0.33281 -1.17726,-0.5876 -1.78125,-0.8125 z"
         style="fill:#000000;fill-opacity:0.17647059;stroke:none"
         inkscape:connector-curvature="0" />
    </g>
    <path
       sodipodi:nodetypes="cszzc"
       inkscape:connector-curvature="0"
       id="path3855"
       d="m 81.71436,130.77263 c 0,0 0.43703,2.7088 -0.29192,5.143 -0.71098,2.3743 -3.09651,4.3678 -2.4715,5.4593 0.62501,1.0915 4.48464,2.847 6.29975,0.741 1.81511,-2.106 3.0252,-6.8749 1.00865,-7.1631"
       style="fill:#f4d815;fill-opacity:1;stroke:#000000;stroke-width:0.69999999;stroke-linecap:round;stroke-linejoin:miter;stroke-miterlimit:4;stroke-opacity:1;stroke-dasharray:none" />
    <path
       style="fill:#000000;fill-opacity:0.17647059;stroke:none"
       d="m 84.52259,133.82323 c 0,0 -0.52369,1.2432 -0.61813,2.0121 -0.17809,1.4497 0.89532,2.8704 0.56949,4.2942 -0.17556,0.7673 -0.81777,1.4531 -1.50768,1.832 -0.75408,0.414 -2.3034,0.4063 -2.83705,0.389 1.45631,0.7978 3.81634,1.289 5.12289,-0.2269 1.19701,-1.3889 2.1238,-3.9368 2.04268,-5.5931 -1.22814,-1.2284 -2.7722,-2.7073 -2.7722,-2.7073 z"
       id="path3976"
       inkscape:connector-curvature="0"
       sodipodi:nodetypes="cssscscc" />
    <path
       sodipodi:nodetypes="cc"
       inkscape:connector-curvature="0"
       id="path3883"
       d="m 78.52569,146.89483 0.0695,3.1729"
       style="fill:none;stroke:#000000;stroke-width:0.69999999;stroke-linecap:butt;stroke-linejoin:miter;stroke-miterlimit:4;stroke-opacity:1;stroke-dasharray:none" />
    <path
       style="fill:none;stroke:#000000;stroke-width:0.69999999;stroke-linecap:butt;stroke-linejoin:miter;stroke-miterlimit:4;stroke-opacity:1;stroke-dasharray:none"
       d="m 80.70269,147.12643 0.18528,3.4276"
       id="path3885"
       inkscape:connector-curvature="0" />
    <path
       inkscape:connector-curvature="0"
       id="path3887"
       d="m 83.48184,147.03373 0.18528,3.4277"
       style="fill:none;stroke:#000000;stroke-width:0.69999999;stroke-linecap:butt;stroke-linejoin:miter;stroke-miterlimit:4;stroke-opacity:1;stroke-dasharray:none" />
    <path
       style="fill:none;stroke:#000000;stroke-width:0.69999999;stroke-linecap:butt;stroke-linejoin:miter;stroke-miterlimit:4;stroke-opacity:1;stroke-dasharray:none"
       d="m 86.21466,146.94113 0.18528,3.4276"
       id="path3889"
       inkscape:connector-curvature="0" />
    <path
       sodipodi:nodetypes="cc"
       inkscape:connector-curvature="0"
       id="path3891"
       d="m 88.53062,146.66323 0.27792,3.0107"
       style="fill:none;stroke:#000000;stroke-width:0.69999999;stroke-linecap:butt;stroke-linejoin:miter;stroke-miterlimit:4;stroke-opacity:1;stroke-dasharray:none" />
    <path
       sodipodi:nodetypes="cc"
       style="fill:none;stroke:#000000;stroke-width:0.69999999;stroke-linecap:butt;stroke-linejoin:miter;stroke-miterlimit:4;stroke-opacity:1;stroke-dasharray:none"
       d="m 92.85375,145.79873 0.57212,2.988"
       id="path3893"
       inkscape:connector-curvature="0" />
    <path
       sodipodi:nodetypes="cc"
       inkscape:connector-curvature="0"
       id="path3895"
       d="m 90.77,146.21483 0.41886,3.2404"
       style="fill:none;stroke:#000000;stroke-width:0.69999999;stroke-linecap:butt;stroke-linejoin:miter;stroke-miterlimit:4;stroke-opacity:1;stroke-dasharray:none" />
    <path
       sodipodi:nodetypes="cc"
       inkscape:connector-curvature="0"
       id="path3897"
       d="m 94.64233,145.14953 1.07811,2.9506"
       style="fill:none;stroke:#000000;stroke-width:0.69999999;stroke-linecap:butt;stroke-linejoin:miter;stroke-miterlimit:4;stroke-opacity:1;stroke-dasharray:none" />
    <path
       style="fill:#ffffff;stroke:#000000;stroke-width:0.69999999;stroke-linecap:butt;stroke-linejoin:miter;stroke-miterlimit:4;stroke-opacity:1;stroke-dasharray:none"
       d="m 94.47834,101.01655 c -2.20876,-0.11431 -4.42765,0.0171 -6.56607,0.46164 -5.3943,1.12144 -10.44173,3.58268 -14.31296,7.50311 -2.40872,2.43933 -4.10523,5.68463 -4.92848,9.01243 -0.87805,3.5494 -1.13551,7.2852 -0.88923,10.9561 l 2.73678,-1.009 c -0.0256,-2.1742 0.0494,-4.902 0.52463,-6.7237 1.07817,-4.1334 2.78846,-8.4047 5.814,-11.42018 2.38934,-2.38137 5.68406,-4.95817 9.03404,-4.56129 0.79857,0.0946 1.71272,0.76638 1.83983,1.56042 0.489,3.05486 -2.80154,4.33439 -4.85066,7.91285 -2.13114,3.7216 -2.21636,7.9637 -2.16918,12.2113 2.04732,-0.6841 4.1103,-0.8741 5.73391,-1.0375 3.22717,-0.3249 6.6154,-0.104 9.68442,0.9455 2.02803,0.6935 3.8752,1.993 5.63521,3.2755 1.44168,-2.4414 2.43214,-5.52 2.72847,-7.7505 0.52259,-3.9335 -0.8521,-7.6367 -1.86313,-11.59345 -1.67925,-6.57178 6.49736,-1.50845 8.33847,0.44392 1.7704,1.87743 2.67523,4.23393 3.30257,6.56263 0.93903,3.4856 0.79567,7.3557 0.38291,10.9419 -0.32752,2.8455 -1.81142,7.2861 -2.866,10.1823 1.05923,1.2701 2.06647,2.8076 3.16161,4.0105 0.6795,0.7464 1.59637,2.4449 2.14593,1.5984 1.17273,-1.8064 2.255,-4.8812 2.77675,-7.0845 0.66789,-2.8205 1.03926,-5.5468 1.00404,-8.4451 -0.0492,-4.0535 -0.42806,-8.4479 -1.89753,-12.226 -1.45228,-3.7339 -3.76071,-6.85795 -6.91313,-9.33051 -3.36055,-2.6358 -6.91333,-4.37363 -11.05948,-5.39841 -2.12032,-0.52407 -4.31898,-0.88406 -6.52774,-0.99836 z"
       id="path3944"
       inkscape:connector-curvature="0"
       sodipodi:nodetypes="csssccsscsscsscssssscssssssssc" />
    <path
       sodipodi:nodetypes="cscc"
       inkscape:connector-curvature="0"
       id="path3949"
       d="m 112.99127,140.44643 c 0.20875,-0.4118 -10.7866,-10.0411 -14.14956,-11.9348 -1.74806,-0.9844 0.49188,-4.3054 1.98313,-3.572 4.8735,2.7522 11.04616,8.0087 14.47215,12.3143"
       style="fill:#ffffff;stroke:#000000;stroke-width:0.69999999;stroke-linecap:butt;stroke-linejoin:miter;stroke-miterlimit:4;stroke-opacity:1;stroke-dasharray:none" />
    <path
       style="fill:#000000;fill-opacity:0.17647059;stroke:none"
       d="m 115.37341,110.60809 c 0.86694,2.90404 1.80253,6.52124 1.9454,8.98124 0.31575,5.4366 -0.44452,11.0204 -2.13994,16.1955 -0.42466,1.2962 -1.3634,3.0348 -2.25342,4.5555 0.6651,0.8856 1.32604,1.7921 2.02646,2.5614 0.67949,0.7464 1.59038,2.4515 2.13994,1.605 1.17272,-1.8064 2.26666,-4.8812 2.78841,-7.0845 0.66789,-2.8205 1.02412,-5.548 0.98891,-8.4463 -0.0492,-4.0535 -0.4273,-8.4617 -1.89677,-12.2398 -0.88463,-2.2745 -2.08177,-4.3156 -3.59899,-6.12804 z"
       id="path4052"
       inkscape:connector-curvature="0" />
    <path
       style="fill:#ffffff;stroke:#000000;stroke-width:0.69999999;stroke-linecap:butt;stroke-linejoin:miter;stroke-miterlimit:4;stroke-opacity:1;stroke-dasharray:none"
       d="m 83.53063,126.64493 c 2.00319,-0.1092 1.46408,-4.0786 -0.19778,-4.0807 -5.58825,0.3114 -10.63752,2.6604 -15.61514,5.0056 l 0.027,3.9672 c 0.2404,-0.1819 11.9321,-4.682 15.78588,-4.8921 z"
       id="path3940"
       inkscape:connector-curvature="0"
       sodipodi:nodetypes="scccs" />
    <path
       sodipodi:type="arc"
       style="fill:#000000;fill-opacity:0.17647059;fill-rule:nonzero;stroke:#000000;stroke-width:0.67135;stroke-miterlimit:4;stroke-opacity:1;stroke-dasharray:none"
       id="path3954"
       sodipodi:cx="145.04527"
       sodipodi:cy="238.57066"
       sodipodi:rx="1.8561553"
       sodipodi:ry="0.92807764"
       d="m 146.90143,238.57066 a 1.8561553,0.92807764 0 1 1 -3.71231,0 1.8561553,0.92807764 0 1 1 3.71231,0 z"
       transform="matrix(0.73544285,0.05205418,-0.10410835,1.4708857,0.50735,-233.79096)" />
    <path
       transform="matrix(0.73544285,0.05205418,-0.10410835,1.4708857,18.74589,-231.30559)"
       d="m 146.90143,238.57066 a 1.8561553,0.92807764 0 1 1 -3.71231,0 1.8561553,0.92807764 0 1 1 3.71231,0 z"
       sodipodi:ry="0.92807764"
       sodipodi:rx="1.8561553"
       sodipodi:cy="238.57066"
       sodipodi:cx="145.04527"
       id="path3956"
       style="fill:#000000;fill-opacity:0.17647059;fill-rule:nonzero;stroke:#000000;stroke-width:0.67135;stroke-miterlimit:4;stroke-opacity:1;stroke-dasharray:none"
       sodipodi:type="arc" />
    <g
       id="g4029"
       transform="matrix(0.51877366,0,0,0.51877366,6.77139,1.73047)">
      <path
         transform="translate(-204.39612,8.3169001)"
         d="m 386.78571,249.14789 c 0,8.876 -7.27538,16.07143 -16.25,16.07143 -8.97463,0 -16.25,-7.19543 -16.25,-16.07143 0,-8.87601 7.27537,-16.07143 16.25,-16.07143 8.97462,0 16.25,7.19542 16.25,16.07143 z"
         sodipodi:ry="16.071428"
         sodipodi:rx="16.25"
         sodipodi:cy="249.14789"
         sodipodi:cx="370.53571"
         id="path3859"
         style="fill:#ffffff;fill-opacity:1;stroke:#000000;stroke-width:1.34933603;stroke-miterlimit:4;stroke-opacity:1;stroke-dasharray:none"
         sodipodi:type="arc" />
      <path
         sodipodi:type="arc"
         style="fill:#000000;fill-opacity:1;stroke:none"
         id="path3863"
         sodipodi:cx="370.53571"
         sodipodi:cy="249.14789"
         sodipodi:rx="16.25"
         sodipodi:ry="16.071428"
         d="m 386.78571,249.14789 c 0,8.876 -7.27538,16.07143 -16.25,16.07143 -8.97463,0 -16.25,-7.19543 -16.25,-16.07143 0,-8.87601 7.27537,-16.07143 16.25,-16.07143 8.97462,0 16.25,7.19542 16.25,16.07143 z"
         transform="matrix(0.14411953,0,0,0.14396692,111.70664,223.54208)" />
      <path
         id="path4017"
         d="m 170.53125,242 c 3.57979,2.57232 5.90625,6.75771 5.90625,11.46875 0,7.8159 -6.40976,14.15625 -14.3125,14.15625 -4.83503,0 -9.06591,-2.39999 -11.65625,-6.03125 1.84334,6.87432 8.12559,11.9375 15.65625,11.9375 8.97463,0 16.25,-7.1865 16.25,-16.0625 0,-7.36806 -5.00671,-13.57137 -11.84375,-15.46875 z"
         style="fill:#000000;fill-opacity:0.17647059;stroke:none"
         inkscape:connector-curvature="0" />
    </g>
    <g
       id="g3858"
       transform="matrix(0.51877366,0,0,0.51877366,6.77139,1.73047)">
      <path
         sodipodi:nodetypes="czc"
         inkscape:connector-curvature="0"
         id="path3879"
         d="m 198.73912,267.35979 c 0.96816,-1.03982 12.75054,-3.12145 11.30923,7.77164 -1.44131,10.8931 -14.43174,6.76412 -14.90928,3.26887"
         style="fill:#f4d815;fill-opacity:1;stroke:#000000;stroke-width:1.34933603;stroke-linecap:round;stroke-linejoin:miter;stroke-miterlimit:4;stroke-opacity:1;stroke-dasharray:none" />
      <path
         sodipodi:nodetypes="cscc"
         inkscape:connector-curvature="0"
         id="path3881"
         d="m 206.02475,273.47746 c 0,0 -2.1385,-2.37581 -4.62206,-0.91681 -1.26098,0.74079 -3.2286,2.97079 -3.2286,2.97079 3.63626,-4.66735 5.13213,-2.90744 5.73161,1.54422"
         style="fill:none;stroke:#000000;stroke-width:1.34933603;stroke-linecap:round;stroke-linejoin:round;stroke-miterlimit:4;stroke-opacity:1;stroke-dasharray:none" />
      <path
         id="path4034"
         d="m 202.6875,266.5 c 1.24521,0.87671 3.11645,2.19159 3.5625,3.28125 0.72417,1.76908 1.15965,3.50137 1,5.40625 -0.10588,1.26334 -0.87214,3.12833 -2.4375,4.3125 -2.19195,1.65817 -7.29481,0.38175 -9.25,-0.1875 2.27548,3.1784 13.18565,5.74606 14.5,-4.1875 0.93904,-7.09701 -3.73555,-8.66653 -7.375,-8.625 z"
         style="fill:#000000;fill-opacity:0.17647059;stroke:none"
         inkscape:connector-curvature="0" />
    </g>
    <text
       xml:space="preserve"
       style="font-size:12px;font-style:normal;font-variant:normal;font-weight:bold;font-stretch:normal;text-align:center;text-anchor:middle;fill:#f61313;fill-opacity:1;stroke:#000000;stroke-width:0.5;stroke-miterlimit:4;stroke-opacity:1;stroke-dasharray:none;font-family:Simpsonfont;-inkscape-font-specification:Simpsonfont Bold"
       id="text4835"
       x="41.99968"
       y="87.45182"><tspan
         style="font-size:12px;fill:#f61313;fill-opacity:1;stroke-width:0.5;stroke-miterlimit:4;stroke-dasharray:none"
         id="tspan3017" /></text>
    <text
       xml:space="preserve"
       style="font-size:12px;font-style:normal;font-variant:normal;font-weight:bold;font-stretch:normal;text-align:center;text-anchor:middle;fill:#f61313;fill-opacity:1;stroke:#000000;stroke-width:0.5;stroke-miterlimit:4;stroke-opacity:1;stroke-dasharray:none;font-family:Simpsonfont;-inkscape-font-specification:Simpsonfont Bold"
       x="41.99968"
       y="87.45182"
       id="text3830"><tspan
         style="font-size:12px;fill:#f61313;fill-opacity:1;stroke-width:0.5;stroke-miterlimit:4;stroke-dasharray:none"
         id="tspan3832" /></text>
    <text
       xml:space="preserve"
       style="font-size:12px;font-style:normal;font-variant:normal;font-weight:bold;font-stretch:normal;text-align:center;text-anchor:middle;fill:#f61313;fill-opacity:1;fill-rule:nonzero;stroke:#000000;stroke-width:0.5;stroke-miterlimit:4;stroke-opacity:1;stroke-dasharray:none;font-family:Simpsonfont;-inkscape-font-specification:Simpsonfont Bold"
       x="93.774399"
       y="84.183617"
       id="text3838"><tspan
         sodipodi:role="line"
         id="tspan3840"
         x="93.774399"
         y="84.183617">NapPy,</tspan><tspan
         sodipodi:role="line"
         x="93.774399"
         y="99.183617"
         id="tspan3842">the IngeNiouS</tspan></text>
  </g>
</svg>
