<?xml version="1.0" encoding="UTF-8" standalone="no"?>
<!-- Created with Inkscape (http://www.inkscape.org/) -->

<svg
   xmlns:dc="http://purl.org/dc/elements/1.1/"
   xmlns:cc="http://creativecommons.org/ns#"
   xmlns:rdf="http://www.w3.org/1999/02/22-rdf-syntax-ns#"
   xmlns:svg="http://www.w3.org/2000/svg"
   xmlns="http://www.w3.org/2000/svg"
   xmlns:sodipodi="http://sodipodi.sourceforge.net/DTD/sodipodi-0.dtd"
   xmlns:inkscape="http://www.inkscape.org/namespaces/inkscape"
   width="210mm"
   height="297mm"
   id="svg2"
   version="1.1"
   inkscape:version="0.48.4 r9939"
   sodipodi:docname="nappy2.svg">
  <defs
     id="defs4" />
  <sodipodi:namedview
     id="base"
     pagecolor="#ffffff"
     bordercolor="#666666"
     borderopacity="1.0"
     inkscape:pageopacity="0.0"
     inkscape:pageshadow="2"
     inkscape:zoom="2"
     inkscape:cx="133.89374"
     inkscape:cy="744.12618"
     inkscape:document-units="px"
     inkscape:current-layer="layer1"
     showgrid="false"
     inkscape:window-width="1539"
     inkscape:window-height="876"
     inkscape:window-x="61"
     inkscape:window-y="24"
     inkscape:window-maximized="1"
     showguides="true"
     inkscape:guide-bbox="true" />
  <metadata
     id="metadata7">
    <rdf:RDF>
      <cc:Work
         rdf:about="">
        <dc:format>image/svg+xml</dc:format>
        <dc:type
           rdf:resource="http://purl.org/dc/dcmitype/StillImage" />
        <dc:title></dc:title>
      </cc:Work>
    </rdf:RDF>
  </metadata>
  <g
     inkscape:label="Ebene 1"
     inkscape:groupmode="layer"
     id="layer1">
    <rect
       style="fill:none;stroke:#000000;stroke-width:0.99999994000000003;stroke-opacity:1"
       id="rect3863"
       width="191.7153"
       height="258.51175"
       x="75.346153"
       y="176.74559"
       rx="0.15296"
       ry="0.15296002"
       inkscape:export-xdpi="696.2934"
       inkscape:export-ydpi="696.2934"
       inkscape:export-filename="/home/mz/Dev/software engeneering/docs/logos/nappy2.png" />
    <g
       id="g3026">
      <path
         sodipodi:type="arc"
         style="fill:#c5c5c5;fill-opacity:1;fill-rule:nonzero;stroke:#000000;stroke-width:1.09869647;stroke-miterlimit:4;stroke-opacity:1;stroke-dasharray:none"
         id="path3831"
         sodipodi:cx="460.44016"
         sodipodi:cy="337.61612"
         sodipodi:rx="17.614534"
         sodipodi:ry="16.661757"
         d="m 478.05469,337.61612 a 17.614534,16.661757 0 1 1 -35.22907,0 17.614534,16.661757 0 1 1 35.22907,0 z"
         transform="matrix(0.57018831,0.10836794,-0.30176144,0.6545537,53.168641,53.06961)" />
      <path
         inkscape:transform-center-y="15.943728"
         inkscape:transform-center-x="3.6943228"
         transform="matrix(0.11951037,0.55670469,-0.70665424,-0.02314349,319.92133,77.984141)"
         d="m 478.05469,337.61612 a 17.614534,16.661757 0 1 1 -35.22907,0 17.614534,16.661757 0 1 1 35.22907,0 z"
         sodipodi:ry="16.661757"
         sodipodi:rx="17.614534"
         sodipodi:cy="337.61612"
         sodipodi:cx="460.44016"
         id="path3833"
         style="fill:#c5c5c5;fill-opacity:1;fill-rule:nonzero;stroke:#000000;stroke-width:1.11999023;stroke-miterlimit:4;stroke-opacity:1;stroke-dasharray:none"
         sodipodi:type="arc" />
      <path
         style="fill:#f4d815;fill-opacity:1;stroke:#000000;stroke-width:0.69999999;stroke-linecap:round;stroke-linejoin:round;stroke-miterlimit:4;stroke-opacity:1;stroke-dasharray:none"
         d="m 112.16199,347.57968 c 8.68236,-17.67702 11.32974,-17.23061 15.71375,-27.83946 l 13.08675,-7.74075 3.305,13.75268 c -1.14756,7.69613 -15.82492,37.5834 -32.04357,41.57392 -7.21624,1.77552 -10.9022,-19.74639 -0.0619,-19.74639 z"
         id="path3835"
         inkscape:connector-curvature="0"
         sodipodi:nodetypes="ccccssc" />
      <path
         sodipodi:nodetypes="ccccsssssscccsc"
         inkscape:connector-curvature="0"
         id="path3845"
         d="m 171.5,194.625 c -27.13518,0.61005 -49.35541,14.10762 -49.28125,50.3125 0.002,0.85052 0.53125,4.59375 0.53125,4.59375 l 0.59375,7.6875 c 0,0 1.58109,8.04138 3.53125,12.125 1.07673,2.25467 0.5531,6.56738 2.53125,8.09375 0.67718,0.52252 1.49032,0.82311 2.21875,1.28125 2.83601,1.78368 5.70401,4.66129 4.5,6.78125 -0.79096,1.39268 -0.93391,3.33299 -0.25,4.78125 1.87642,3.97352 7.65963,3.10671 9.8125,6.9375 1.69469,3.01551 2.20756,6.74234 1.90625,10.3125 -1.41437,24.82125 47.32381,24.7417 45.5625,0.21875 -1.06398,-7.394 1.07479,-16.26553 2.8125,-25.78125 0,0 20.96544,-10.06221 21,-33.78125 0.0527,-36.1823 -18.34087,-52.95262 -45.46875,-53.5625 z"
         style="fill:#f4d815;fill-opacity:1;stroke:#000000;stroke-width:0.69999999;stroke-linecap:butt;stroke-linejoin:miter;stroke-miterlimit:4;stroke-opacity:1;stroke-dasharray:none" />
      <path
         sodipodi:nodetypes="cc"
         inkscape:connector-curvature="0"
         id="path3808"
         d="m 136.30295,283.31661 c 4.70994,1.09529 10.13199,-0.23669 12.98497,-0.64017"
         style="fill:none;stroke:#000000;stroke-width:0.69999999000000002;stroke-linecap:round;stroke-linejoin:miter;stroke-miterlimit:4;stroke-opacity:1;stroke-dasharray:none" />
      <path
         sodipodi:nodetypes="cscscccscccc"
         inkscape:connector-curvature="0"
         id="path4046"
         d="m 191.1875,198.65625 c 13.58386,7.7986 21.81653,23.30993 21.78125,47.53125 -0.0346,23.71904 -21,33.78125 -21,33.78125 -1.73771,9.51572 -3.31271,17.63756 -2.8125,25.78125 0.26144,4.25629 -0.64231,6.84651 -2.34375,9.4375 2.56612,-2.24265 4.78887,-4.79143 6.34375,-7.4375 -1.06398,-7.394 1.07479,-16.26553 2.8125,-25.78125 0,0 20.96544,-10.06221 21,-33.78125 0.0386,-26.52166 -9.82277,-42.58876 -25.78125,-49.53125 z m -53.9375,93.375 c 0.88962,0.74252 1.98802,1.20903 3.125,1.65625 -0.90376,-0.73592 -2.00256,-1.21428 -3.125,-1.65625 z"
         style="fill:#000000;fill-opacity:0.17647059;stroke:none" />
      <path
         id="path3958"
         d="M 171.5,194.625 C 145.11683,195.21814 123.39763,208.01487 122.28125,242 L 122.5,241.34375 c 0.14655,-2.06995 0.39299,-4.04814 0.8125,-5.65625 2.04909,-7.85489 5.34403,-16.01946 11.09375,-21.75 4.54068,-4.52554 10.78997,-9.37923 17.15625,-8.625 1.51759,0.17974 3.2272,1.45978 3.46875,2.96875 0.9293,5.80543 -5.32465,8.23085 -9.21875,15.03125 -2.33715,4.0814 -3.29668,8.69894 -3.6875,13.4375 -6.92661,1.21553 -13.46012,3.85536 -19.875,6.78125 -0.007,0.47237 -0.0322,0.92591 -0.0312,1.40625 0.002,0.85052 0.53125,4.59375 0.53125,4.59375 l 0.125,1.8125 c 5.13894,-1.90379 12.88498,-4.62479 19,-6.21875 3.89058,-1.01413 7.3083,-1.89408 10.75,-2.25 6.1312,-0.63407 12.46779,0.0523 18.375,1.8125 4.256,1.26817 7.82615,3.68252 11.5625,6.40625 8.83618,6.44142 22.51295,18.85801 22.1875,19.5 l 4.4375,-6.15625 c -5.61828,-7.06085 -15.05103,-15.44946 -23.53125,-21.0625 0.60044,-1.98735 1.02945,-3.90252 1.25,-5.5625 0.99309,-7.47523 -1.6099,-14.48065 -3.53125,-22 -3.19124,-12.48895 12.34494,-2.89776 15.84375,0.8125 3.36446,3.56776 5.08905,8.04342 6.28125,12.46875 1.78452,6.62397 1.50318,13.99733 0.71875,20.8125 -0.28673,2.49112 -1.04162,5.62112 -1.96875,8.8125 l 10.40625,2.46875 c 1.42631,-3.76817 2.30535,-8.09605 2.3125,-13 0.0527,-36.1823 -18.34087,-52.95262 -45.46875,-53.5625 z"
         style="fill:#000000;fill-opacity:0.17647059;stroke:none"
         inkscape:connector-curvature="0" />
      <path
         sodipodi:nodetypes="cszzc"
         inkscape:connector-curvature="0"
         id="path3974"
         d="m 148.70831,253.83724 c 0,0 -0.12003,5.28756 -2.35415,9.6466 -2.17902,4.25157 -7.39896,7.19515 -6.59641,9.48299 0.80255,2.28784 7.50402,6.96694 11.68208,3.61041 4.17806,-3.35654 8.14166,-11.97255 4.42007,-13.22486"
         style="fill:#000000;fill-opacity:0.17647059;stroke:none" />
      <g
         id="g4024">
        <path
           transform="matrix(0.36671088,-0.63516186,0.63508529,0.36666667,-158.88371,403.19042)"
           d="m 386.78571,249.14789 a 16.25,16.071428 0 1 1 -32.5,0 16.25,16.071428 0 1 1 32.5,0 z"
           sodipodi:ry="16.071428"
           sodipodi:rx="16.25"
           sodipodi:cy="249.14789"
           sodipodi:cx="370.53571"
           id="path3850"
           style="fill:#ffffff;fill-opacity:1;stroke:#000000;stroke-width:0.95448792;stroke-miterlimit:4;stroke-opacity:1;stroke-dasharray:none"
           sodipodi:type="arc" />
        <path
           sodipodi:type="arc"
           style="fill:#000000;fill-opacity:1;stroke:none"
           id="path3852"
           sodipodi:cx="370.53571"
           sodipodi:cy="249.14789"
           sodipodi:rx="16.25"
           sodipodi:ry="16.071428"
           d="m 386.78571,249.14789 a 16.25,16.071428 0 1 1 -32.5,0 16.25,16.071428 0 1 1 32.5,0 z"
           transform="matrix(0.0528502,-0.09153923,0.09143127,0.05278787,91.155157,281.20072)" />
        <path
           style="fill:#000000;fill-opacity:0.17647059;stroke:none"
           d="m 139.40625,248.0625 c 4.10814,3.29343 5.30538,9.1867 2.5625,13.9375 -3.0243,5.23824 -9.66369,7.08446 -14.84375,4.09375 -1.15734,-0.66819 -2.13778,-1.55267 -2.9375,-2.53125 0.92934,2.42641 2.67915,4.57468 5.09375,5.96875 5.63702,3.25454 12.86516,1.26284 16.15625,-4.4375 3.29109,-5.70034 1.38702,-12.96421 -4.25,-16.21875 -0.57645,-0.33281 -1.17726,-0.5876 -1.78125,-0.8125 z"
           id="path4015"
           inkscape:connector-curvature="0" />
      </g>
      <path
         style="fill:#f4d815;fill-opacity:1;stroke:#000000;stroke-width:0.69999999;stroke-linecap:round;stroke-linejoin:miter;stroke-miterlimit:4;stroke-opacity:1;stroke-dasharray:none"
         d="m 144.46179,248.74468 c 0,0 0.84243,5.2214 -0.56271,9.91374 -1.37049,4.57665 -5.9689,8.41944 -4.76412,10.52344 1.20478,2.104 8.6447,5.48796 12.14355,1.42834 3.49885,-4.05963 5.83144,-13.25228 1.94429,-13.80774"
         id="path3855"
         inkscape:connector-curvature="0"
         sodipodi:nodetypes="cszzc" />
      <path
         sodipodi:nodetypes="cssscscc"
         inkscape:connector-curvature="0"
         id="path3976"
         d="m 149.875,254.625 c 0,0 -1.00947,2.39651 -1.19152,3.87853 -0.34329,2.7946 1.72584,5.53305 1.09777,8.27772 -0.33843,1.47896 -1.57635,2.80101 -2.90625,3.53125 -1.45358,0.79816 -4.44008,0.78323 -5.46875,0.75 2.8072,1.53784 7.35646,2.48469 9.875,-0.4375 2.30738,-2.67719 4.09387,-7.58869 3.9375,-10.78125 C 152.85137,257.4758 149.875,254.625 149.875,254.625 z"
         style="fill:#000000;fill-opacity:0.17647059;stroke:none" />
      <g
         inkscape:transform-center-y="5.3885126"
         inkscape:transform-center-x="3.2048552"
         transform="matrix(-0.25343076,-0.96735353,-0.96735353,0.25343076,535.86312,578.64214)"
         id="g3899">
        <path
           style="fill:#ffffff;fill-opacity:1;stroke:#000000;stroke-width:0.69999999;stroke-linecap:butt;stroke-linejoin:miter;stroke-miterlimit:4;stroke-opacity:1;stroke-dasharray:none"
           d="m 365.87486,316.03829 c 0.50321,5.82945 -8.35673,12.17994 -13.63699,16.47412 2.06059,-10.46148 -3.76488,-20.29093 -13.02202,-20.35326 6.54872,-3.18553 12.26341,-5.96793 17.57637,-5.19402 4.43452,0.64595 8.69723,4.60844 9.08264,9.07316 z"
           id="path3901"
           inkscape:connector-curvature="0"
           sodipodi:nodetypes="sccss" />
        <path
           id="path3903"
           d="m 359.0625,307.59375 c 0,0 -4.26439,7.14656 -5.875,10.96875 -0.56417,1.33884 -1.3125,4.15625 -1.3125,4.15625 0.86954,2.97863 1.05261,6.34108 0.375,9.78125 5.28026,-4.29418 14.12821,-10.6393 13.625,-16.46875 -0.31861,-3.69087 -3.28785,-7.02299 -6.8125,-8.4375 z"
           style="fill:#000000;fill-opacity:0.17647059;stroke:none"
           inkscape:connector-curvature="0"
           sodipodi:nodetypes="csccsc" />
      </g>
      <path
         style="fill:#ffffff;fill-opacity:1;stroke:#000000;stroke-width:0.69999999;stroke-miterlimit:4;stroke-opacity:1;stroke-dasharray:none"
         d="m 147.60543,307.54476 c -5.87631,11.83331 -8.77829,17.64681 -12.43455,42.27385 -6.14833,6.70882 -18.25187,35.03071 -18.59224,54.69043 17.77588,20.24358 95.75322,13.33201 104.68304,-1.16964 -0.34464,-23.82846 -10.97012,-44.86989 -14.2908,-51.43535 -0.99681,-10.80403 -4.55807,-45.48526 -13.80295,-44.14054 -4.87786,8.30109 -16.32172,15.64613 -24.35631,15.57828 -7.15291,-0.0604 -18.59897,-8.51596 -21.20619,-15.79703 z"
         id="path3905"
         inkscape:connector-curvature="0"
         sodipodi:nodetypes="cccccccc" />
      <path
         style="fill:#000000;fill-opacity:0.17647059;stroke:none"
         d="m 147.59375,307.53125 c -5.87631,11.83331 -8.78124,17.65421 -12.4375,42.28125 -6.14833,6.70882 -18.22213,35.02778 -18.5625,54.6875 0.60475,0.6887 1.26099,1.34214 2,1.96875 0.35263,-19.65847 12.41742,-47.95098 18.5625,-54.65625 3.54879,-23.90315 6.43176,-30.11844 11.96875,-41.28125 -0.64246,-1.0029 -1.17903,-2.01638 -1.53125,-3 z"
         id="path3907"
         inkscape:connector-curvature="0"
         sodipodi:nodetypes="ccccccc" />
      <path
         style="fill:#000000;fill-opacity:0.17647059;stroke:none"
         d="m 193.59375,307.71875 c -0.14169,0.004 -0.29305,0.0102 -0.4375,0.0312 -0.44612,0.7592 -0.95167,1.51173 -1.5,2.25 7.22567,5.00621 10.17098,33.7434 11.0625,43.40625 3.32068,6.56546 13.93661,27.60904 14.28125,51.4375 -1.54153,2.50339 -5.16434,4.76839 -10.15625,6.71875 7.20854,-2.24104 12.45285,-5.04651 14.40625,-8.21875 -0.34464,-23.82846 -10.96057,-44.87204 -14.28125,-51.4375 -0.98123,-10.63522 -4.44866,-44.41738 -13.375,-44.1875 z"
         id="path3909"
         inkscape:connector-curvature="0"
         sodipodi:nodetypes="scccccccs" />
      <path
         inkscape:connector-curvature="0"
         id="path3911"
         d="m 218.57838,390.24546 c 2.43679,0 3.09372,-0.85328 4.35484,-4.00938 0.83237,-2.08311 3.24229,-8.968 4.08657,-15.49743 2.44981,-18.94613 -11.19252,-32.4307 -18.55945,-38.4804 -2.29311,-1.88309 -6.01608,-3.57069 -7.23409,-4.3204 -1.31998,-0.81248 0.36808,-7.90855 4.13306,-11.47158 3.76499,-3.56302 4.23891,-3.33731 6.88161,-3.84495 2.39127,-0.45935 4.85929,1.19415 7.81956,4.08447 12.7474,12.44618 26.51183,27.55138 23.96719,54.54826 -1.19539,12.68233 -6.73973,33.74327 -20.41049,35.81341 -0.91769,0.33286 -3.764,-0.60794 -5.05744,-0.51487"
         style="fill:#f4d815;fill-opacity:1;stroke:#000000;stroke-width:0.69999999;stroke-linecap:round;stroke-linejoin:round;stroke-miterlimit:4;stroke-opacity:1;stroke-dasharray:none"
         sodipodi:nodetypes="csssszssscc" />
      <path
         id="path3913"
         d="m 213.15625,312.53125 c -0.30212,-0.007 -0.60734,0.0365 -0.90625,0.0937 -0.0504,0.01 -0.0761,0.0222 -0.125,0.0312 -2.51396,0.47208 -3.08809,0.31746 -6.78125,3.8125 -3.76498,3.56303 -5.44498,10.65627 -4.125,11.46875 1.21801,0.74971 5.20689,2.86691 7.5,4.75 0.32481,-1.70282 1.4209,-3.92992 1.875,-4.9375 1.38504,-3.07322 3.54583,-5.5055 5.84375,-7.34375 11.72317,11.46201 24.46622,24.68033 22.15625,49.1875 -1.14246,12.12082 -4.62202,30.20902 -17.6875,32.1875 -0.0339,0.0123 -2.30275,3.83456 -2.34375,3.84375 l 0,0.9375 c 1.29344,-0.0931 4.14481,0.83286 5.0625,0.5 13.67076,-2.07014 19.21086,-23.13017 20.40625,-35.8125 2.48746,-26.39029 -10.59658,-41.40034 -23.09375,-53.6875 -0.28914,-0.28432 -0.5867,-0.56226 -0.875,-0.84375 -0.38267,-0.37363 -0.72709,-0.6998 -1.09375,-1.03125 -0.26945,-0.24327 -0.51935,-0.46915 -0.78125,-0.6875 -0.0866,-0.0728 -0.16421,-0.14879 -0.25,-0.21875 -0.22155,-0.17927 -0.43955,-0.34023 -0.65625,-0.5 -0.12779,-0.0955 -0.2488,-0.16152 -0.375,-0.25 -0.32181,-0.22563 -0.62491,-0.41617 -0.9375,-0.59375 -0.0327,-0.0186 -0.0613,-0.0445 -0.0937,-0.0625 -0.0984,-0.0539 -0.18364,-0.10733 -0.28125,-0.15625 -0.23577,-0.11982 -0.48712,-0.22319 -0.71875,-0.3125 -0.044,-0.0166 -0.0812,-0.047 -0.125,-0.0625 -0.23901,-0.0866 -0.452,-0.1355 -0.6875,-0.1875 -0.0826,-0.0183 -0.16849,-0.0473 -0.25,-0.0625 -0.22124,-0.0413 -0.43547,-0.0575 -0.65625,-0.0625 z"
         style="fill:#000000;fill-opacity:0.17647059;stroke:none"
         inkscape:connector-curvature="0" />
      <path
         inkscape:connector-curvature="0"
         id="path3927"
         d="m 205.34653,407.24538 c -3.05608,-0.28032 -2.16653,-6.7509 0.73644,-6.5646 0.49033,0.0314 11.78248,0.45362 11.78248,0.45362 0,0 -12.91656,-0.47204 -13.55568,-0.49621 -3.42777,-0.12975 -2.78728,-7.85423 0.79254,-7.78415 3.38326,0.0662 13.23663,0.45954 13.23663,0.45954 0,0 -9.36576,-0.28962 -12.38583,-0.36181 -2.8932,-0.0691 -3.02803,-6.90428 0.57392,-6.93865 2.2304,-0.0213 6.02299,0.24776 9.53682,0.47226 0.0328,-1.9533 -2.91459,-11.685 -1.24103,-12.96847 1.77893,-1.36429 3.19349,-0.47875 4.1449,1.25636 1.72679,3.1492 1.67339,11.19159 2.92297,11.94376 3.23927,0.97059 5.11303,20.29161 0.34826,20.62428 -4.76476,0.33266 -15.61935,0.0208 -16.89242,-0.0959 z"
         style="fill:#f4d815;fill-opacity:1;stroke:#000000;stroke-width:0.69999999;stroke-linecap:round;stroke-linejoin:round;stroke-miterlimit:4;stroke-opacity:1;stroke-dasharray:none"
         sodipodi:nodetypes="ccccsccscsscccc" />
      <path
         style="fill:#ffffff;fill-opacity:1;stroke:#000000;stroke-width:0.69999999;stroke-linecap:butt;stroke-linejoin:miter;stroke-miterlimit:4;stroke-opacity:1;stroke-dasharray:none"
         d="m 192.58369,314.64419 c -1.08403,5.86548 7.28027,13.18071 12.21502,18.05732 -1.06145,-10.81769 5.81593,-20.21831 15.21409,-19.37093 -6.33076,-3.87647 -11.85499,-7.26184 -17.32151,-6.99922 -4.56269,0.2192 -9.27735,3.8205 -10.1076,8.31283 z"
         id="path3931"
         inkscape:connector-curvature="0"
         sodipodi:nodetypes="sccss" />
      <path
         style="fill:#000000;fill-opacity:0.17647059;stroke:none"
         d="m 194.39955,310.70962 c -0.91672,1.16645 -1.5613,2.52247 -1.82475,3.94795 -1.08403,5.86548 7.29867,13.18128 12.23342,18.05789 -0.18052,-1.83981 -0.12229,-3.63884 0.1298,-5.35322 -1.85349,-1.52622 -6.7733,-5.73268 -8.52422,-8.94448 -1.20618,-2.21257 -1.69946,-7.36649 -1.69946,-7.36649 l -0.31479,-0.34165 z"
         id="path3933"
         inkscape:connector-curvature="0" />
      <path
         sodipodi:nodetypes="csssccsscsscsscssssscssssssssc"
         inkscape:connector-curvature="0"
         id="path3944"
         d="m 169.06594,191.38613 c -4.25767,-0.22035 -8.53485,0.0329 -12.65691,0.88986 -10.39817,2.16172 -20.12773,6.90606 -27.58999,14.46316 -4.64311,4.70212 -7.91334,10.95778 -9.50026,17.37261 -1.69255,6.84179 -2.18883,14.04301 -1.7141,21.11918 l 5.27548,-1.94489 c -0.0494,-4.19121 0.0953,-9.44937 1.0113,-12.96094 2.07831,-7.9675 5.37509,-16.20102 11.20719,-22.01368 4.60576,-4.59039 10.95672,-9.55749 17.41423,-8.79245 1.53933,0.18234 3.30148,1.47729 3.54649,3.0079 0.94261,5.88861 -5.40031,8.35507 -9.35023,15.25291 -4.10805,7.17397 -4.27231,15.35103 -4.18137,23.53879 3.94647,-1.31865 7.92311,-1.68486 11.05281,-1.99989 6.22078,-0.62618 12.752,-0.20039 18.66791,1.82255 3.90928,1.33677 7.46993,3.84182 10.86257,6.31393 2.77901,-4.70601 4.68825,-10.64045 5.25946,-14.9399 1.00735,-7.58236 -1.64252,-14.72078 -3.59142,-22.34788 -3.23696,-12.66791 12.52446,-2.90772 16.07344,0.85571 3.41266,3.61887 5.15683,8.16145 6.36611,12.65019 1.81009,6.71891 1.53375,14.17902 0.73809,21.09184 -0.63133,5.48517 -3.49173,14.04503 -5.52455,19.62769 2.04179,2.44832 3.98336,5.41204 6.09439,7.73082 1.30981,1.4387 3.0772,4.71272 4.13654,3.08099 2.26057,-3.48201 4.34679,-9.40897 5.35252,-13.65618 1.28744,-5.43686 2.0033,-10.69217 1.93542,-16.27898 -0.0949,-7.81367 -0.82515,-16.28426 -3.65773,-23.56705 -2.79944,-7.1976 -7.24923,-13.21957 -13.32591,-17.98573 -6.47787,-5.08084 -13.32628,-8.43072 -21.3185,-10.40611 -4.08719,-1.01021 -8.32536,-1.70412 -12.58303,-1.92445 z"
         style="fill:#ffffff;stroke:#000000;stroke-width:0.69999999;stroke-linecap:butt;stroke-linejoin:miter;stroke-miterlimit:4;stroke-opacity:1;stroke-dasharray:none" />
      <path
         style="fill:#ffffff;stroke:#000000;stroke-width:0.69999999;stroke-linecap:butt;stroke-linejoin:miter;stroke-miterlimit:4;stroke-opacity:1;stroke-dasharray:none"
         d="m 204.75189,267.39203 c 0.40239,-0.79377 -20.7925,-19.35543 -27.27502,-23.00585 -3.3696,-1.89749 0.94816,-8.29915 3.82272,-6.88531 9.39427,5.30516 21.29283,15.43762 27.89686,23.73733"
         id="path3949"
         inkscape:connector-curvature="0"
         sodipodi:nodetypes="cscc" />
      <path
         id="path4052"
         d="m 209.34375,209.875 c 1.67113,5.59794 3.47459,12.57043 3.75,17.3125 0.60864,10.47963 -0.85687,21.24316 -4.125,31.21875 -0.81858,2.49862 -2.62812,5.84987 -4.34375,8.78125 1.28206,1.70707 2.55611,3.45449 3.90625,4.9375 1.30981,1.4387 3.06566,4.72548 4.125,3.09375 2.26057,-3.48201 4.36927,-9.40904 5.375,-13.65625 1.28744,-5.43686 1.97413,-10.69444 1.90625,-16.28125 -0.0949,-7.81367 -0.82367,-16.31096 -3.65625,-23.59375 -1.70523,-4.38428 -4.01288,-8.31875 -6.9375,-11.8125 z"
         style="fill:#000000;fill-opacity:0.17647059;stroke:none"
         inkscape:connector-curvature="0" />
      <path
         sodipodi:nodetypes="scccs"
         inkscape:connector-curvature="0"
         id="path3940"
         d="m 147.96288,240.78791 c 3.86139,-0.21051 2.8222,-7.86195 -0.38125,-7.86609 -10.77203,0.6004 -20.50513,5.12842 -30.1001,9.64893 l 0.0521,7.64733 c 0.46341,-0.35062 23.0006,-9.02519 30.42923,-9.43017 z"
         style="fill:#ffffff;stroke:#000000;stroke-width:0.69999999;stroke-linecap:butt;stroke-linejoin:miter;stroke-miterlimit:4;stroke-opacity:1;stroke-dasharray:none" />
      <path
         transform="matrix(1.4176565,0.10034083,-0.20068165,2.8353129,-12.0747,-453.99651)"
         d="m 146.90143,238.57066 a 1.8561553,0.92807764 0 1 1 -3.71231,0 1.8561553,0.92807764 0 1 1 3.71231,0 z"
         sodipodi:ry="0.92807764"
         sodipodi:rx="1.8561553"
         sodipodi:cy="238.57066"
         sodipodi:cx="145.04527"
         id="path3954"
         style="fill:#000000;fill-opacity:0.17647059;fill-rule:nonzero;stroke:#000000;stroke-width:0.3482787;stroke-miterlimit:4;stroke-opacity:1;stroke-dasharray:none"
         sodipodi:type="arc" />
      <path
         sodipodi:type="arc"
         style="fill:#000000;fill-opacity:0.17647059;fill-rule:nonzero;stroke:#000000;stroke-width:0.3482787;stroke-miterlimit:4;stroke-opacity:1;stroke-dasharray:none"
         id="path3956"
         sodipodi:cx="145.04527"
         sodipodi:cy="238.57066"
         sodipodi:rx="1.8561553"
         sodipodi:ry="0.92807764"
         d="m 146.90143,238.57066 a 1.8561553,0.92807764 0 1 1 -3.71231,0 1.8561553,0.92807764 0 1 1 3.71231,0 z"
         transform="matrix(1.4176565,0.10034083,-0.20068165,2.8353129,23.082323,-449.20566)" />
      <g
         id="g4029">
        <path
           sodipodi:type="arc"
           style="fill:#ffffff;fill-opacity:1;stroke:#000000;stroke-width:0.69999999;stroke-miterlimit:4;stroke-opacity:1;stroke-dasharray:none"
           id="path3859"
           sodipodi:cx="370.53571"
           sodipodi:cy="249.14789"
           sodipodi:rx="16.25"
           sodipodi:ry="16.071428"
           d="m 386.78571,249.14789 a 16.25,16.071428 0 1 1 -32.5,0 16.25,16.071428 0 1 1 32.5,0 z"
           transform="translate(-204.39612,8.3169001)" />
        <path
           transform="matrix(0.14411953,0,0,0.14396692,111.70664,223.54208)"
           d="m 386.78571,249.14789 a 16.25,16.071428 0 1 1 -32.5,0 16.25,16.071428 0 1 1 32.5,0 z"
           sodipodi:ry="16.071428"
           sodipodi:rx="16.25"
           sodipodi:cy="249.14789"
           sodipodi:cx="370.53571"
           id="path3863"
           style="fill:#000000;fill-opacity:1;stroke:none"
           sodipodi:type="arc" />
        <path
           style="fill:#000000;fill-opacity:0.17647059;stroke:none"
           d="m 170.53125,242 c 3.57979,2.57232 5.90625,6.75771 5.90625,11.46875 0,7.8159 -6.40976,14.15625 -14.3125,14.15625 -4.83503,0 -9.06591,-2.39999 -11.65625,-6.03125 1.84334,6.87432 8.12559,11.9375 15.65625,11.9375 8.97463,0 16.25,-7.1865 16.25,-16.0625 0,-7.36806 -5.00671,-13.57137 -11.84375,-15.46875 z"
           id="path4017"
           inkscape:connector-curvature="0" />
      </g>
      <g
         id="g3858">
        <path
           style="fill:#f4d815;fill-opacity:1;stroke:#000000;stroke-width:0.69999999;stroke-linecap:round;stroke-linejoin:miter;stroke-miterlimit:4;stroke-opacity:1;stroke-dasharray:none"
           d="m 198.73912,267.35979 c 0.96816,-1.03982 12.75054,-3.12145 11.30923,7.77164 -1.44131,10.8931 -14.43174,6.76412 -14.90928,3.26887"
           id="path3879"
           inkscape:connector-curvature="0"
           sodipodi:nodetypes="czc" />
        <path
           style="fill:none;stroke:#000000;stroke-width:0.69999999;stroke-linecap:round;stroke-linejoin:round;stroke-miterlimit:4;stroke-opacity:1;stroke-dasharray:none"
           d="m 206.02475,273.47746 c 0,0 -2.1385,-2.37581 -4.62206,-0.91681 -1.26098,0.74079 -3.2286,2.97079 -3.2286,2.97079 3.63626,-4.66735 5.13213,-2.90744 5.73161,1.54422"
           id="path3881"
           inkscape:connector-curvature="0"
           sodipodi:nodetypes="cscc" />
        <path
           style="fill:#000000;fill-opacity:0.17647059;stroke:none"
           d="m 202.6875,266.5 c 1.24521,0.87671 3.11645,2.19159 3.5625,3.28125 0.72417,1.76908 1.15965,3.50137 1,5.40625 -0.10588,1.26334 -0.87214,3.12833 -2.4375,4.3125 -2.19195,1.65817 -7.29481,0.38175 -9.25,-0.1875 2.27548,3.1784 13.18565,5.74606 14.5,-4.1875 0.93904,-7.09701 -3.73555,-8.66653 -7.375,-8.625 z"
           id="path4034"
           inkscape:connector-curvature="0" />
      </g>
      <path
         sodipodi:nodetypes="ccssssssscccccccscccc"
         inkscape:connector-curvature="0"
         id="path3038"
         d="m 129.6875,272.75 c -1.18725,-0.0549 -2.05743,0.79037 -2.46875,2.0625 -0.99537,3.07871 5.55139,11.34634 1.6875,13.57813 -0.56511,0.32641 -1.11542,0.77078 -2.01563,1.23437 -2.43839,1.25572 -4.4241,7.77559 -6.35937,12.09375 -4.95423,11.05438 -9.33395,19.55669 -13.9375,36.59375 -2.12083,7.84887 -4.22631,24.494 0.90625,28.5 1.3503,1.05392 5.86465,0.97694 6.875,-0.40625 5.55984,-7.61158 6.34212,-17.33993 11.0625,-34.625 2.27665,-8.3366 4.73805,-16.04103 6.40625,-23.65625 0.37946,0.11551 0.76662,0.14414 1.1875,0.0937 3.15511,-0.37772 9.25819,-1.68276 10.46875,-2.03125 2.8035,-0.80717 0.96718,-6.49282 -1.65625,-6.25 0.46483,-0.10746 1.32696,-0.28701 1.4375,-0.3125 3.22171,-0.74311 1.31477,-7.78196 -2,-7.40625 4.80695,-1.08027 9.27465,-2.10279 10.96875,-2.46875 4.11324,-1.13243 3.19557,-7.62455 -1.84375,-6.59375 -1.87389,0.38331 -13.32281,2.98296 -13.32281,2.98296 0.85533,-3.67722 -2.71581,-10.79268 -6.11424,-13.0142 -0.44726,-0.25975 -0.8855,-0.35671 -1.28125,-0.375 z"
         style="fill:#f4d815;fill-opacity:1;stroke:#000000;stroke-width:0.69999999;stroke-linecap:butt;stroke-linejoin:round;stroke-miterlimit:4;stroke-opacity:1;stroke-dasharray:none" />
      <path
         sodipodi:nodetypes="ccccsccscssc"
         inkscape:connector-curvature="0"
         id="path3028"
         d="m 216.67233,372.85708 c -0.15711,-0.0133 -0.3341,0.005 -0.5,0.0312 0.10459,0.15545 0.21712,0.29481 0.3125,0.46875 1.72679,3.1492 2.41712,12.931 3.6667,13.68317 3.23927,0.97059 4.37932,18.54666 -0.38545,18.87933 -4.38261,0.30598 -13.60183,0.0687 -16.09375,-0.0625 0.28139,0.75799 0.83844,1.29712 1.6875,1.375 1.27307,0.1167 12.11024,0.42641 16.875,0.0937 4.76477,-0.33267 2.89552,-19.62316 -0.34375,-20.59375 -1.24958,-0.75217 -1.21071,-8.81955 -2.9375,-11.96875 -0.59463,-1.08444 -1.3489,-1.82739 -2.28125,-1.90625 z"
         style="fill:#000000;fill-opacity:0.17647059;stroke:none" />
      <path
         inkscape:transform-center-y="-70.51632"
         inkscape:transform-center-x="-30.291146"
         sodipodi:nodetypes="cccccscc"
         style="fill:none;fill-opacity:1;stroke:#000000;stroke-width:0.63062686000000001;stroke-linecap:round;stroke-linejoin:round;stroke-miterlimit:4;stroke-opacity:1;stroke-dasharray:none"
         d="m 133.03899,308.22219 c 3.15511,-0.37772 9.24216,-1.67555 10.45272,-2.02404 2.90597,-0.83667 0.84803,-6.93468 -1.92716,-6.21735 -0.46876,0.12111 -6.25498,1.47217 -6.25498,1.47217 0,0 7.34917,-1.69979 7.96328,-1.8414 3.29358,-0.75969 1.24475,-8.11737 -2.20707,-7.38731 -3.26225,0.68993 -7.66127,1.74689 -7.66127,1.74689 0,0 15.92723,-3.58844 18.83687,-4.21698"
         id="path3929"
         inkscape:connector-curvature="0" />
    </g>
  </g>
</svg>
