<?xml version="1.0" encoding="UTF-8" standalone="no"?>
<!-- Created with Inkscape (http://www.inkscape.org/) -->

<svg
   xmlns:dc="http://purl.org/dc/elements/1.1/"
   xmlns:cc="http://creativecommons.org/ns#"
   xmlns:rdf="http://www.w3.org/1999/02/22-rdf-syntax-ns#"
   xmlns:svg="http://www.w3.org/2000/svg"
   xmlns="http://www.w3.org/2000/svg"
   xmlns:sodipodi="http://sodipodi.sourceforge.net/DTD/sodipodi-0.dtd"
   xmlns:inkscape="http://www.inkscape.org/namespaces/inkscape"
   width="210mm"
   height="297mm"
   id="svg2"
   version="1.1"
   inkscape:version="0.48.4 r9939"
   sodipodi:docname="nappy.svg">
  <defs
     id="defs4" />
  <sodipodi:namedview
     id="base"
     pagecolor="#ffffff"
     bordercolor="#666666"
     borderopacity="1.0"
     inkscape:pageopacity="0.0"
     inkscape:pageshadow="2"
     inkscape:zoom="5.6568542"
     inkscape:cx="138.93882"
     inkscape:cy="715.02025"
     inkscape:document-units="px"
     inkscape:current-layer="layer1"
     showgrid="false"
     inkscape:window-width="1539"
     inkscape:window-height="876"
     inkscape:window-x="61"
     inkscape:window-y="24"
     inkscape:window-maximized="1"
     showguides="true"
     inkscape:guide-bbox="true" />
  <metadata
     id="metadata7">
    <rdf:RDF>
      <cc:Work
         rdf:about="">
        <dc:format>image/svg+xml</dc:format>
        <dc:type
           rdf:resource="http://purl.org/dc/dcmitype/StillImage" />
        <dc:title />
      </cc:Work>
    </rdf:RDF>
  </metadata>
  <g
     inkscape:label="Ebene 1"
     inkscape:groupmode="layer"
     id="layer1">
    <g
       id="g3865">
      <path
         sodipodi:type="arc"
         style="fill:#c5c5c5;fill-opacity:1;fill-rule:nonzero;stroke:#000000;stroke-width:1.09869651;stroke-opacity:1;stroke-miterlimit:4;stroke-dasharray:none"
         id="path3831"
         sodipodi:cx="460.44016"
         sodipodi:cy="337.61612"
         sodipodi:rx="17.614534"
         sodipodi:ry="16.661757"
         d="m 478.05469,337.61612 c 0,9.20203 -7.8863,16.66176 -17.61453,16.66176 -9.72824,0 -17.61454,-7.45973 -17.61454,-16.66176 0,-9.20203 7.8863,-16.66176 17.61454,-16.66176 9.72823,0 17.61453,7.45973 17.61453,16.66176 z"
         transform="matrix(0.57018831,0.10836794,-0.30176144,0.6545537,53.168641,53.06961)" />
      <path
         transform="matrix(-0.56702433,0.05182903,0.23268855,0.66764652,312.27188,73.845089)"
         d="m 478.05469,337.61612 c 0,9.20203 -7.8863,16.66176 -17.61453,16.66176 -9.72824,0 -17.61454,-7.45973 -17.61454,-16.66176 0,-9.20203 7.8863,-16.66176 17.61454,-16.66176 9.72823,0 17.61453,7.45973 17.61453,16.66176 z"
         sodipodi:ry="16.661757"
         sodipodi:rx="17.614534"
         sodipodi:cy="337.61612"
         sodipodi:cx="460.44016"
         id="path3833"
         style="fill:#c5c5c5;fill-opacity:1;fill-rule:nonzero;stroke:#000000;stroke-width:1.11999019;stroke-opacity:1;stroke-miterlimit:4;stroke-dasharray:none"
         sodipodi:type="arc" />
      <path
         style="fill:#f4d815;fill-opacity:1;stroke:#000000;stroke-width:0.7;stroke-linecap:round;stroke-linejoin:round;stroke-opacity:1;stroke-miterlimit:4;stroke-dasharray:none"
         d="m 119.03368,386.31427 c -1.9872,-0.58007 -2.89704,-1.38072 -3.5873,-4.70862 -0.45559,-2.1965 -3.65311,-9.43892 -3.36726,-16.0165 0.95754,-22.03329 19.2521,-31.5831 26.408,-34.89539 l 5.03056,-16.2607 -15.37946,-1.97173 c -7.15405,3.06053 -33.844259,22.78022 -34.778469,49.14776 -0.45105,12.73055 7.813719,33.97902 19.420699,40.68031 0.84541,0.48809 1.97194,0.85461 3.22922,1.17225"
         id="path3835"
         inkscape:connector-curvature="0"
         sodipodi:nodetypes="csscccssc" />
      <path
         style="fill:#000000;fill-opacity:0.17647059;stroke:none"
         d="m 127.6875,313.09375 c -1.23776,0.52952 -3.07721,1.58747 -5.25,3.0625 1.87305,0.71755 5.44729,2.50028 7.75,6.21875 1.73307,2.79861 2.14579,5.67134 2.15625,7.75 -8.00974,3.89353 -23.79867,13.64155 -24.6875,34.09375 -0.28585,6.57758 2.88816,13.8035 3.34375,16 0.69026,3.3279 1.60655,4.13868 3.59375,4.71875 l 2.0625,1.03125 c -0.75761,-0.67848 -1.24267,-1.75603 -1.65625,-3.75 -0.45559,-2.1965 -3.6296,-9.42242 -3.34375,-16 0.78839,-18.14109 13.31886,-27.82656 21.71875,-32.53125 0.54259,-0.30344 1.02386,-0.54807 1.53125,-0.8125 0.35351,-0.18509 0.66897,-0.36531 1,-0.53125 0.11549,-0.0578 0.19995,-0.10069 0.3125,-0.15625 0.66286,-0.32816 1.29787,-0.62233 1.84375,-0.875 l 1.25,-4.0625 3.78125,-12.1875 -15.40625,-1.96875 z m -11.03125,72.875 c 0.50683,0.45389 1.14097,0.73624 1.9375,0.96875 l -1.9375,-0.96875 z"
         id="path3837"
         inkscape:connector-curvature="0" />
      <path
         sodipodi:nodetypes="cccccc"
         inkscape:connector-curvature="0"
         id="path3839"
         d="m 138.31525,279.82212 0.13394,6.11607 24.97413,7.42062 17.80394,-17.29886 -8.71256,-3.53553 z"
         style="fill:#ffffff;fill-opacity:1;stroke:none" />
      <rect
         style="fill:none;stroke:none"
         id="rect3841"
         width="159.28572"
         height="234.64285"
         x="91.560944"
         y="186.54637"
         rx="0.15296"
         ry="0.15296002"
         inkscape:export-filename="/home/mz/Studium/Mitschrieb/Software Engeneering/bound_to_change.png"
         inkscape:export-xdpi="345.20554"
         inkscape:export-ydpi="345.20554" />
      <path
         style="fill:#f4d815;fill-opacity:1;stroke:#000000;stroke-width:0.7;stroke-linecap:butt;stroke-linejoin:miter;stroke-opacity:1;stroke-miterlimit:4;stroke-dasharray:none"
         d="m 171.51168,194.63851 c -27.13518,0.61005 -49.35541,14.10762 -49.28125,50.3125 0.002,0.85052 0.53125,4.59375 0.53125,4.59375 l 0.59375,7.6875 c 0,0 1.58109,8.04138 3.53125,12.125 1.07673,2.25467 0.5531,6.56738 2.53125,8.09375 2.38159,1.83767 5.60613,2.43031 8.59375,2.78125 8.47051,0.99499 17.11937,-0.44868 25.5,-2.03125 2.85225,-0.53861 4.38165,-0.72622 8.34375,-2.53125 2.80058,-1.27587 3.96891,3.64226 2.5,4.5625 -3.06111,1.91771 -5.40958,2.58307 -8.3125,3.28125 -8.46972,2.03706 -17.89071,4.14256 -26.46875,2.625 -2.45594,-0.43449 -2.65542,-2.05031 -3.4375,-0.625 -0.77046,1.40413 -0.93391,3.33299 -0.25,4.78125 1.87642,3.97352 7.65963,3.10671 9.8125,6.9375 1.69469,3.01551 2.20756,6.74234 1.90625,10.3125 -1.41437,24.82125 47.32381,24.7417 45.5625,0.21875 -1.06398,-7.394 1.07479,-16.26553 2.8125,-25.78125 0,0 20.96544,-10.06221 21,-33.78125 0.0527,-36.1823 -18.34087,-52.95262 -45.46875,-53.5625 z"
         id="path3845"
         inkscape:connector-curvature="0"
         sodipodi:nodetypes="ccccssssssssssscccsc" />
      <path
         sodipodi:nodetypes="cscscccscccc"
         inkscape:connector-curvature="0"
         id="path4046"
         d="m 191.1875,198.65625 c 13.58386,7.7986 21.81653,23.30993 21.78125,47.53125 -0.0346,23.71904 -21,33.78125 -21,33.78125 -1.73771,9.51572 -3.31271,17.63756 -2.8125,25.78125 0.26144,4.25629 -0.64231,6.84651 -2.34375,9.4375 2.56612,-2.24265 4.78887,-4.79143 6.34375,-7.4375 -1.06398,-7.394 1.07479,-16.26553 2.8125,-25.78125 0,0 20.96544,-10.06221 21,-33.78125 0.0386,-26.52166 -9.82277,-42.58876 -25.78125,-49.53125 z m -53.9375,93.375 c 0.88962,0.74252 1.98802,1.20903 3.125,1.65625 -0.90376,-0.73592 -2.00256,-1.21428 -3.125,-1.65625 z"
         style="fill:#000000;fill-opacity:0.17647059;stroke:none" />
      <path
         id="path3958"
         d="M 171.5 194.625 C 145.11683 195.21814 123.39763 208.01487 122.28125 242 L 122.5 241.34375 C 122.64655 239.2738 122.89299 237.29561 123.3125 235.6875 C 125.36159 227.83261 128.65653 219.66804 134.40625 213.9375 C 138.94693 209.41196 145.19622 204.55827 151.5625 205.3125 C 153.08009 205.49224 154.7897 206.77228 155.03125 208.28125 C 155.96055 214.08668 149.7066 216.5121 145.8125 223.3125 C 143.47535 227.3939 142.51582 232.01144 142.125 236.75 C 135.19839 237.96553 128.66488 240.60536 122.25 243.53125 C 122.24318 244.00362 122.21777 244.45716 122.21875 244.9375 C 122.22075 245.78802 122.75 249.53125 122.75 249.53125 L 122.875 251.34375 C 128.01394 249.43996 135.75998 246.71896 141.875 245.125 C 145.76558 244.11087 149.1833 243.23092 152.625 242.875 C 158.7562 242.24093 165.09279 242.9273 171 244.6875 C 175.256 245.95567 178.82615 248.37002 182.5625 251.09375 C 191.39868 257.53517 205.07545 269.95176 204.75 270.59375 L 209.1875 264.4375 C 203.56922 257.37665 194.13647 248.98804 185.65625 243.375 C 186.25669 241.38765 186.6857 239.47248 186.90625 237.8125 C 187.89934 230.33727 185.29635 223.33185 183.375 215.8125 C 180.18376 203.32355 195.71994 212.91474 199.21875 216.625 C 202.58321 220.19276 204.3078 224.66842 205.5 229.09375 C 207.28452 235.71772 207.00318 243.09108 206.21875 249.90625 C 205.93202 252.39737 205.17713 255.52737 204.25 258.71875 L 214.65625 261.1875 C 216.08256 257.41933 216.9616 253.09145 216.96875 248.1875 C 217.02145 212.0052 198.62788 195.23488 171.5 194.625 z "
         style="fill:#000000;fill-opacity:0.17647059;stroke:none" />
      <path
         sodipodi:nodetypes="cszzc"
         inkscape:connector-curvature="0"
         id="path3974"
         d="m 148.70831,253.83724 c 0,0 -0.12003,5.28756 -2.35415,9.6466 -2.17902,4.25157 -7.39896,7.19515 -6.59641,9.48299 0.80255,2.28784 7.50402,6.96694 11.68208,3.61041 4.17806,-3.35654 8.14166,-11.97255 4.42007,-13.22486"
         style="fill:#000000;fill-opacity:0.17647059;stroke:none" />
      <g
         id="g4024">
        <path
           transform="matrix(0.36671088,-0.63516186,0.63508529,0.36666667,-158.88371,403.19042)"
           d="m 386.78571,249.14789 c 0,8.876 -7.27538,16.07143 -16.25,16.07143 -8.97463,0 -16.25,-7.19543 -16.25,-16.07143 0,-8.87601 7.27537,-16.07143 16.25,-16.07143 8.97462,0 16.25,7.19542 16.25,16.07143 z"
           sodipodi:ry="16.071428"
           sodipodi:rx="16.25"
           sodipodi:cy="249.14789"
           sodipodi:cx="370.53571"
           id="path3850"
           style="fill:#ffffff;fill-opacity:1;stroke:#000000;stroke-width:0.95448792;stroke-opacity:1;stroke-miterlimit:4;stroke-dasharray:none"
           sodipodi:type="arc" />
        <path
           sodipodi:type="arc"
           style="fill:#000000;fill-opacity:1;stroke:none"
           id="path3852"
           sodipodi:cx="370.53571"
           sodipodi:cy="249.14789"
           sodipodi:rx="16.25"
           sodipodi:ry="16.071428"
           d="m 386.78571,249.14789 c 0,8.876 -7.27538,16.07143 -16.25,16.07143 -8.97463,0 -16.25,-7.19543 -16.25,-16.07143 0,-8.87601 7.27537,-16.07143 16.25,-16.07143 8.97462,0 16.25,7.19542 16.25,16.07143 z"
           transform="matrix(0.0528502,-0.09153923,0.09143127,0.05278787,91.155157,281.20072)" />
        <path
           style="fill:#000000;fill-opacity:0.17647059;stroke:none;stroke-width:0.99999994000000003;stroke-opacity:1"
           d="M 139.40625 248.0625 C 143.51439 251.35593 144.71163 257.2492 141.96875 262 C 138.94445 267.23824 132.30506 269.08446 127.125 266.09375 C 125.96766 265.42556 124.98722 264.54108 124.1875 263.5625 C 125.11684 265.98891 126.86665 268.13718 129.28125 269.53125 C 134.91827 272.78579 142.14641 270.79409 145.4375 265.09375 C 148.72859 259.39341 146.82452 252.12954 141.1875 248.875 C 140.61105 248.54219 140.01024 248.2874 139.40625 248.0625 z "
           id="path4015" />
      </g>
      <path
         style="fill:#f4d815;fill-opacity:1;stroke:#000000;stroke-width:0.7;stroke-linecap:round;stroke-linejoin:miter;stroke-opacity:1;stroke-miterlimit:4;stroke-dasharray:none"
         d="m 144.46179,248.74468 c 0,0 0.84243,5.2214 -0.56271,9.91374 -1.37049,4.57665 -5.9689,8.41944 -4.76412,10.52344 1.20478,2.104 8.6447,5.48796 12.14355,1.42834 3.49885,-4.05963 5.83144,-13.25228 1.94429,-13.80774"
         id="path3855"
         inkscape:connector-curvature="0"
         sodipodi:nodetypes="cszzc" />
      <path
         sodipodi:nodetypes="cssscscc"
         inkscape:connector-curvature="0"
         id="path3976"
         d="m 149.875,254.625 c 0,0 -1.00947,2.39651 -1.19152,3.87853 -0.34329,2.7946 1.72584,5.53305 1.09777,8.27772 -0.33843,1.47896 -1.57635,2.80101 -2.90625,3.53125 -1.45358,0.79816 -4.44008,0.78323 -5.46875,0.75 2.8072,1.53784 7.35646,2.48469 9.875,-0.4375 2.30738,-2.67719 4.09387,-7.58869 3.9375,-10.78125 C 152.85137,257.4758 149.875,254.625 149.875,254.625 z"
         style="fill:#000000;fill-opacity:0.17647059;stroke:none" />
      <path
         style="fill:none;stroke:#000000;stroke-width:0.7;stroke-linecap:butt;stroke-linejoin:miter;stroke-opacity:1;stroke-miterlimit:4;stroke-dasharray:none"
         d="m 138.31525,279.82212 0.13394,6.11607"
         id="path3883"
         inkscape:connector-curvature="0"
         sodipodi:nodetypes="cc" />
      <path
         inkscape:connector-curvature="0"
         id="path3885"
         d="m 142.51168,280.26854 0.35715,6.60714"
         style="fill:none;stroke:#000000;stroke-width:0.7;stroke-linecap:butt;stroke-linejoin:miter;stroke-opacity:1;stroke-miterlimit:4;stroke-dasharray:none" />
      <path
         style="fill:none;stroke:#000000;stroke-width:0.7;stroke-linecap:butt;stroke-linejoin:miter;stroke-opacity:1;stroke-miterlimit:4;stroke-dasharray:none"
         d="m 147.86882,280.08997 0.35715,6.60714"
         id="path3887"
         inkscape:connector-curvature="0" />
      <path
         inkscape:connector-curvature="0"
         id="path3889"
         d="m 153.13668,279.9114 0.35715,6.60714"
         style="fill:none;stroke:#000000;stroke-width:0.7;stroke-linecap:butt;stroke-linejoin:miter;stroke-opacity:1;stroke-miterlimit:4;stroke-dasharray:none" />
      <path
         style="fill:none;stroke:#000000;stroke-width:0.7;stroke-linecap:butt;stroke-linejoin:miter;stroke-opacity:1;stroke-miterlimit:4;stroke-dasharray:none"
         d="m 157.60097,279.37568 0.53572,5.80357"
         id="path3891"
         inkscape:connector-curvature="0"
         sodipodi:nodetypes="cc" />
      <path
         inkscape:connector-curvature="0"
         id="path3893"
         d="m 165.93433,277.70928 1.10284,5.75978"
         style="fill:none;stroke:#000000;stroke-width:0.7;stroke-linecap:butt;stroke-linejoin:miter;stroke-opacity:1;stroke-miterlimit:4;stroke-dasharray:none"
         sodipodi:nodetypes="cc" />
      <path
         style="fill:none;stroke:#000000;stroke-width:0.7;stroke-linecap:butt;stroke-linejoin:miter;stroke-opacity:1;stroke-miterlimit:4;stroke-dasharray:none"
         d="m 161.91765,278.51132 0.80741,6.24624"
         id="path3895"
         inkscape:connector-curvature="0"
         sodipodi:nodetypes="cc" />
      <path
         style="fill:none;stroke:#000000;stroke-width:0.7;stroke-linecap:butt;stroke-linejoin:miter;stroke-opacity:1;stroke-miterlimit:4;stroke-dasharray:none"
         d="m 169.38204,276.45791 2.07819,5.68762"
         id="path3897"
         inkscape:connector-curvature="0"
         sodipodi:nodetypes="cc" />
      <g
         transform="translate(-214.5,0)"
         id="g3899">
        <path
           style="fill:#ffffff;fill-opacity:1;stroke:#000000;stroke-width:0.7;stroke-linecap:butt;stroke-linejoin:miter;stroke-opacity:1;stroke-miterlimit:4;stroke-dasharray:none"
           d="m 365.87486,316.03829 c 0.50321,5.82945 -8.35673,12.17994 -13.63699,16.47412 2.06059,-10.46148 -3.76488,-20.29093 -13.02202,-20.35326 6.54872,-3.18553 12.26341,-5.96793 17.57637,-5.19402 4.43452,0.64595 8.69723,4.60844 9.08264,9.07316 z"
           id="path3901"
           inkscape:connector-curvature="0"
           sodipodi:nodetypes="sccss" />
        <path
           id="path3903"
           d="m 359.0625,307.59375 c 0,0 -4.26439,7.14656 -5.875,10.96875 -0.56417,1.33884 -1.3125,4.15625 -1.3125,4.15625 0.86954,2.97863 1.05261,6.34108 0.375,9.78125 5.28026,-4.29418 14.12821,-10.6393 13.625,-16.46875 -0.31861,-3.69087 -3.28785,-7.02299 -6.8125,-8.4375 z"
           style="fill:#000000;fill-opacity:0.17647059;stroke:none"
           inkscape:connector-curvature="0"
           sodipodi:nodetypes="csccsc" />
      </g>
      <path
         style="fill:#ffffff;fill-opacity:1;stroke:#000000;stroke-opacity:1;stroke-width:0.7;stroke-miterlimit:4;stroke-dasharray:none"
         d="m 147.60543,307.54476 c -5.87631,11.83331 -8.77829,17.64681 -12.43455,42.27385 -6.14833,6.70882 -18.25187,35.03071 -18.59224,54.69043 17.77588,20.24358 95.75322,13.33201 104.68304,-1.16964 -0.34464,-23.82846 -10.97012,-44.86989 -14.2908,-51.43535 -0.99681,-10.80403 -4.55807,-45.48526 -13.80295,-44.14054 -4.87786,8.30109 -16.32172,15.64613 -24.35631,15.57828 -7.15291,-0.0604 -18.59897,-8.51596 -21.20619,-15.79703 z"
         id="path3905"
         inkscape:connector-curvature="0"
         sodipodi:nodetypes="cccccccc" />
      <path
         style="fill:#000000;fill-opacity:0.17647059;stroke:none"
         d="m 147.59375,307.53125 c -5.87631,11.83331 -8.78124,17.65421 -12.4375,42.28125 -6.14833,6.70882 -18.22213,35.02778 -18.5625,54.6875 0.60475,0.6887 1.26099,1.34214 2,1.96875 0.35263,-19.65847 12.41742,-47.95098 18.5625,-54.65625 3.54879,-23.90315 6.43176,-30.11844 11.96875,-41.28125 -0.64246,-1.0029 -1.17903,-2.01638 -1.53125,-3 z"
         id="path3907"
         inkscape:connector-curvature="0"
         sodipodi:nodetypes="ccccccc" />
      <path
         style="fill:#000000;fill-opacity:0.17647059;stroke:none"
         d="m 193.59375,307.71875 c -0.14169,0.004 -0.29305,0.0102 -0.4375,0.0312 -0.44612,0.7592 -0.95167,1.51173 -1.5,2.25 7.22567,5.00621 10.17098,33.7434 11.0625,43.40625 3.32068,6.56546 13.93661,27.60904 14.28125,51.4375 -1.54153,2.50339 -5.16434,4.76839 -10.15625,6.71875 7.20854,-2.24104 12.45285,-5.04651 14.40625,-8.21875 -0.34464,-23.82846 -10.96057,-44.87204 -14.28125,-51.4375 -0.98123,-10.63522 -4.44866,-44.41738 -13.375,-44.1875 z"
         id="path3909"
         inkscape:connector-curvature="0"
         sodipodi:nodetypes="scccccccs" />
      <path
         inkscape:connector-curvature="0"
         id="path3911"
         d="m 218.57838,390.24546 c 2.43679,0 3.09372,-0.85328 4.35484,-4.00938 0.83237,-2.08311 3.24229,-8.968 4.08657,-15.49743 2.44981,-18.94613 -11.19252,-32.4307 -18.55945,-38.4804 -2.29311,-1.88309 -6.01608,-3.57069 -7.23409,-4.3204 -1.31998,-0.81248 0.36808,-7.90855 4.13306,-11.47158 3.76499,-3.56302 4.23891,-3.33731 6.88161,-3.84495 2.39127,-0.45935 4.85929,1.19415 7.81956,4.08447 12.7474,12.44618 26.51183,27.55138 23.96719,54.54826 -1.19539,12.68233 -6.73973,33.74327 -20.41049,35.81341 -0.91769,0.33286 -3.764,-0.60794 -5.05744,-0.51487"
         style="fill:#f4d815;fill-opacity:1;stroke:#000000;stroke-width:0.7;stroke-linecap:round;stroke-linejoin:round;stroke-opacity:1;stroke-miterlimit:4;stroke-dasharray:none"
         sodipodi:nodetypes="csssszssscc" />
      <path
         id="path3913"
         d="M 213.15625 312.53125 C 212.85413 312.52425 212.54891 312.5677 212.25 312.625 C 212.1996 312.635 212.1739 312.64715 212.125 312.65625 C 209.61104 313.12833 209.03691 312.97371 205.34375 316.46875 C 201.57877 320.03178 199.89877 327.12502 201.21875 327.9375 C 202.43676 328.68721 206.42564 330.80441 208.71875 332.6875 C 209.04356 330.98468 210.13965 328.75758 210.59375 327.75 C 211.97879 324.67678 214.13958 322.2445 216.4375 320.40625 C 228.16067 331.86826 240.90372 345.08658 238.59375 369.59375 C 237.45129 381.71457 233.97173 399.80277 220.90625 401.78125 C 220.87235 401.79355 218.6035 405.61581 218.5625 405.625 L 218.5625 406.5625 C 219.85594 406.4694 222.70731 407.39536 223.625 407.0625 C 237.29576 404.99236 242.83586 383.93233 244.03125 371.25 C 246.51871 344.85971 233.43467 329.84966 220.9375 317.5625 C 220.64836 317.27818 220.3508 317.00024 220.0625 316.71875 C 219.67983 316.34512 219.33541 316.01895 218.96875 315.6875 C 218.6993 315.44423 218.4494 315.21835 218.1875 315 C 218.1009 314.9272 218.02329 314.85121 217.9375 314.78125 C 217.71595 314.60198 217.49795 314.44102 217.28125 314.28125 C 217.15346 314.18575 217.03245 314.11973 216.90625 314.03125 C 216.58444 313.80562 216.28134 313.61508 215.96875 313.4375 C 215.93605 313.4189 215.9075 313.393 215.875 313.375 C 215.7766 313.3211 215.69136 313.26767 215.59375 313.21875 C 215.35798 313.09893 215.10663 312.99556 214.875 312.90625 C 214.831 312.88965 214.7938 312.85925 214.75 312.84375 C 214.51099 312.75715 214.298 312.70825 214.0625 312.65625 C 213.97986 312.638 213.89401 312.60896 213.8125 312.59375 C 213.59126 312.55246 213.37703 312.53629 213.15625 312.53125 z "
         style="fill:#000000;fill-opacity:0.17647059;stroke:none" />
      <g
         transform="translate(-214.5,0)"
         id="g3917">
        <rect
           ry="0.15296002"
           rx="0.15296"
           y="355.10657"
           x="331.15839"
           height="70"
           width="100"
           id="rect3919"
           style="fill:#e28655;fill-opacity:1;fill-rule:nonzero;stroke:none;stroke-width:0.7;stroke-miterlimit:4;stroke-dasharray:none" />
        <path
           inkscape:connector-curvature="0"
           id="path3921"
           d="m 350.9375,355.09375 c -0.0313,0.0305 -0.0625,0.0633 -0.0937,0.0937 -3.27691,3.19075 -6.36907,6.0584 -10.03125,6 -2.07516,-0.0331 -5.33559,-2.00708 -7.90625,-4.0625 -0.63051,-0.50414 -1.21565,-0.99649 -1.75,-1.46875 l 0,2.625 c 0.17153,0.14128 0.32226,0.26413 0.5,0.40625 2.69374,2.15384 5.99376,4.45007 9.125,4.5 4.68114,0.0746 8.15181,-3.3632 11.4375,-6.5625 0.54586,-0.53151 1.0842,-1.02299 1.625,-1.53125 l -2.90625,0 z m 20.28125,0 c 2.76606,2.29034 5.76031,4.64619 9.46875,4.28125 2.34633,-0.2309 3.79582,-2.04861 5.09375,-3.625 0.18891,-0.22944 0.37736,-0.43942 0.5625,-0.65625 l -2.625,0 c -1.07223,1.24651 -2.0863,2.19798 -3.25,2.3125 -2.07335,0.20404 -4.02839,-0.83471 -6.03125,-2.3125 l -3.21875,0 z m 31.53125,0 c 0.19829,0.0855 0.3947,0.16273 0.59375,0.25 4.7062,2.06332 9.55203,4.55366 14.78125,4.9375 2.93313,0.2153 7.05357,-0.28409 10.5,-0.8125 0.91701,-0.1406 1.75246,-0.29977 2.53125,-0.4375 l 0,-2.03125 c -0.89639,0.16068 -1.72641,0.32869 -2.84375,0.5 -3.38777,0.51942 -7.4712,0.96917 -10.03125,0.78125 -3.50857,-0.25754 -7.01456,-1.62876 -10.5625,-3.1875 l -4.96875,0 z m -37.375,5.375 c -4.69425,0.13331 -8.74738,2.92052 -12.625,5.5625 -4.13613,2.81811 -8.11743,5.47604 -12.375,5.34375 -2.52567,-0.0785 -5.91851,-1.39406 -9.21875,-3.0625 l 0,2.28125 c 3.1166,1.52533 6.32786,2.69337 9.15625,2.78125 5.10152,0.15851 9.43007,-2.87192 13.5625,-5.6875 4.13243,-2.81558 8.06225,-5.427 12.3125,-5.21875 3.17425,0.15553 6.09905,2.87843 9.15625,5.65625 1.5286,1.38891 3.09251,2.78131 4.8125,3.75 1.71999,0.96869 3.66614,1.52191 5.75,1.125 1.36245,-0.25951 2.37325,-1.12705 3.125,-2.125 0.75175,-0.99795 1.28915,-2.15588 1.8125,-3.28125 0.52335,-1.12537 1.05126,-2.20605 1.625,-3.03125 0.57374,-0.8252 1.1748,-1.36543 1.9375,-1.59375 3.98354,-1.19248 7.99501,0.27465 12.28125,2.375 4.28624,2.10035 8.72993,4.79685 13.53125,5.5 3.6196,0.5301 7.38766,-0.35263 10.9375,-1.03125 l 0,-2.0625 c -3.7389,0.69067 -7.47888,1.59032 -10.65625,1.125 -4.23584,-0.62034 -8.54551,-3.16033 -12.9375,-5.3125 -4.39199,-2.15217 -8.98362,-3.92682 -13.75,-2.5 -1.32178,0.39568 -2.2772,1.30417 -3,2.34375 -0.7228,1.03958 -1.26187,2.2269 -1.78125,3.34375 -0.51938,1.11685 -1.02247,2.17911 -1.59375,2.9375 -0.57128,0.75839 -1.13125,1.19614 -1.90625,1.34375 -1.53979,0.29328 -2.91737,-0.0853 -4.375,-0.90625 -1.45763,-0.82093 -2.95828,-2.09631 -4.46875,-3.46875 -3.02093,-2.74487 -6.1805,-5.98199 -10.375,-6.1875 -0.31888,-0.0156 -0.62455,-0.009 -0.9375,0 z m -1.34375,7.5 c -0.31817,-0.003 -0.62397,0.015 -0.9375,0.0312 -0.83608,0.0433 -1.6577,0.15607 -2.4375,0.34375 -1.94482,0.46808 -3.3808,1.74662 -4.46875,3.28125 -1.08795,1.53463 -1.87146,3.3544 -2.65625,5.125 -0.78479,1.7706 -1.55077,3.50176 -2.46875,4.84375 -0.91798,1.34199 -1.95806,2.26481 -3.3125,2.65625 -2.45155,0.7085 -4.96673,-0.59912 -7.78125,-2.3125 -2.6805,-1.63179 -5.52974,-3.60622 -8.8125,-3.625 l 0,2 c 2.48099,0.0304 5.06039,1.65614 7.78125,3.3125 2.85906,1.74049 5.96753,3.54727 9.375,2.5625 1.91866,-0.5545 3.3037,-1.90261 4.375,-3.46875 1.0713,-1.56614 1.87314,-3.38944 2.65625,-5.15625 0.78311,-1.76681 1.54774,-3.48209 2.46875,-4.78125 0.92101,-1.29916 1.94485,-2.13959 3.3125,-2.46875 2.58047,-0.62106 5.96239,-0.28432 8.84375,0.90625 2.88136,1.19057 5.22409,3.20162 6.0625,5.59375 0.0187,0.0534 0.0316,0.0666 -0.15625,0.34375 -0.18781,0.27719 -0.55853,0.66121 -0.96875,1.0625 -0.41022,0.40129 -0.87864,0.81572 -1.21875,1.375 -0.34011,0.55928 -0.5207,1.45979 -0.0937,2.1875 1.09314,1.86365 2.80661,2.9705 4.71875,3.46875 1.91214,0.49825 4.02447,0.45393 6.21875,0.1875 4.38856,-0.53286 9.14608,-1.97466 12.75,-2.4375 4.13774,-0.5314 7.44708,-3.13814 10.78125,-3.21875 1.85852,-0.0449 4.06083,1.17759 6.34375,2.28125 1.14146,0.55183 2.30503,1.03997 3.53125,1.28125 1.22622,0.24128 2.55067,0.17738 3.78125,-0.46875 0.76012,-0.39911 1.19504,-1.10674 1.40625,-1.78125 0.21121,-0.67451 0.25626,-1.34193 0.3125,-1.96875 0.0562,-0.62682 0.10329,-1.21518 0.21875,-1.625 0.11546,-0.40982 0.24383,-0.59588 0.4375,-0.71875 1.21434,-0.77044 2.7211,-0.81711 4.53125,-0.4375 0.80816,0.16948 1.65393,0.4519 2.53125,0.75 l 0,-2.125 c -0.71253,-0.22876 -1.41897,-0.44569 -2.125,-0.59375 -2.07444,-0.43503 -4.19019,-0.42949 -6,0.71875 -0.7211,0.45751 -1.08966,1.19498 -1.28125,1.875 -0.19159,0.68002 -0.25687,1.34871 -0.3125,1.96875 -0.0556,0.62004 -0.10072,1.18556 -0.21875,1.5625 -0.11803,0.37694 -0.23845,0.52049 -0.4375,0.625 -0.77622,0.40756 -1.54912,0.4622 -2.46875,0.28125 -0.91963,-0.18095 -1.93732,-0.6274 -3.03125,-1.15625 -2.18785,-1.05771 -4.60789,-2.53336 -7.28125,-2.46875 -4.23509,0.10239 -7.62796,2.78569 -11,3.21875 -3.89774,0.50057 -8.56884,1.96866 -12.6875,2.46875 -2.05933,0.25005 -3.9733,0.24157 -5.5,-0.15625 -1.5267,-0.39782 -2.67984,-1.133 -3.5,-2.53125 -0.0311,-0.0531 -0.0426,0.0679 0.0937,-0.15625 0.13633,-0.22419 0.47088,-0.57343 0.875,-0.96875 0.40412,-0.39532 0.88208,-0.83199 1.25,-1.375 0.36792,-0.54301 0.65569,-1.35538 0.375,-2.15625 -1.10065,-3.14032 -3.94282,-5.40931 -7.1875,-6.75 -2.12932,-0.87983 -4.46031,-1.38387 -6.6875,-1.40625 z m 52.03125,20.84375 c -1.68169,-0.0288 -3.35085,0.21567 -4.96875,0.8125 -1.00653,0.3713 -1.70328,1.1708 -2.125,2 -0.42172,0.8292 -0.62998,1.72943 -0.84375,2.59375 -0.42755,1.72864 -0.84179,3.17695 -1.6875,3.71875 -4.05821,2.59987 -10.01778,1.49327 -15.4375,0.9375 -7.35911,-0.75466 -14.37914,-6.03166 -22.59375,-6.25 -7.85985,-0.20891 -14.82039,4.37548 -21.875,4.8125 -3.24725,0.20116 -6.78925,0.80522 -10.03125,0.84375 -1.94981,0.0231 -3.76343,-0.16073 -5.34375,-0.71875 l 0,2.09375 c 1.70509,0.49748 3.53595,0.64686 5.375,0.625 3.47301,-0.0413 7.04684,-0.65306 10.125,-0.84375 7.79217,-0.48272 14.70862,-4.99883 21.71875,-4.8125 7.34785,0.1953 14.27862,5.38529 22.40625,6.21875 5.26234,0.53963 11.73524,1.97392 16.71875,-1.21875 1.77832,-1.13928 2.14485,-3.24891 2.5625,-4.9375 0.20882,-0.8443 0.40807,-1.60683 0.6875,-2.15625 0.27943,-0.54942 0.57591,-0.86328 1.03125,-1.03125 3.64035,-1.34289 7.74727,-0.59331 11.78125,1.25 2.66281,1.21676 5.26692,2.91227 7.59375,4.75 l 0,-2.5 c -2.09799,-1.56156 -4.36975,-3.00611 -6.75,-4.09375 -2.7022,-1.23476 -5.54093,-2.04583 -8.34375,-2.09375 z m -52.375,11.15625 c -1.47086,0.0227 -2.93788,0.13507 -4.375,0.34375 -2.60434,0.37817 -5.97549,0.478 -8.875,1.21875 -1.44975,0.37038 -2.79277,0.89742 -3.875,1.78125 -1.08223,0.88383 -1.86177,2.15523 -2.03125,3.75 -0.36162,3.40265 2.10414,6.17122 5.15625,8.03125 3.05211,1.86003 6.81114,2.97934 9.90625,3.09375 2.54192,0.094 4.41552,-1.25361 5.96875,-2.65625 1.55323,-1.40264 2.93301,-2.88306 4.6875,-3.6875 1.47057,-0.67426 4.09405,-0.69316 6.5,-0.9375 1.20297,-0.12217 2.35713,-0.30799 3.375,-0.8125 1.01787,-0.50451 1.89831,-1.46382 2.125,-2.75 0.14024,-0.79568 -0.10975,-1.55578 -0.53125,-2.125 -0.4215,-0.56922 -1.00105,-0.99402 -1.59375,-1.34375 -1.1854,-0.69946 -2.57042,-1.14781 -3.5,-1.53125 -4.04618,-1.66903 -8.52491,-2.44317 -12.9375,-2.375 z m 0.0312,2 c 4.15619,-0.0616 8.39079,0.66552 12.15625,2.21875 1.02985,0.42481 2.33329,0.86534 3.25,1.40625 0.45836,0.27046 0.7934,0.5757 0.96875,0.8125 0.17535,0.2368 0.19996,0.34572 0.15625,0.59375 -0.12127,0.68807 -0.37923,1.00481 -1,1.3125 -0.62077,0.30769 -1.60714,0.48086 -2.71875,0.59375 -2.22323,0.22578 -4.95104,0.12823 -7.125,1.125 -2.22637,1.0208 -3.74075,2.72476 -5.1875,4.03125 -1.44675,1.30649 -2.69681,2.19281 -4.53125,2.125 -2.66494,-0.0985 -6.25502,-1.12744 -8.96875,-2.78125 -2.71373,-1.65381 -4.43502,-3.79595 -4.1875,-6.125 0.11796,-1.10992 0.57038,-1.80018 1.3125,-2.40625 0.74212,-0.60607 1.80614,-1.0773 3.09375,-1.40625 2.57521,-0.6579 5.87721,-0.78396 8.65625,-1.1875 1.35035,-0.19608 2.7396,-0.29198 4.125,-0.3125 z M 426.6875,406.25 c -0.40389,0.002 -0.81033,0.0477 -1.21875,0.15625 -1.19994,0.31891 -2.0884,1.12795 -2.75,2.03125 -0.6616,0.9033 -1.15191,1.91016 -1.625,2.875 -0.47309,0.96484 -0.93674,1.88865 -1.4375,2.53125 -0.50076,0.6426 -0.98445,0.97759 -1.625,1.09375 -1.06776,0.19362 -2.02451,-0.0298 -3.0625,-0.59375 -1.03799,-0.56394 -2.11301,-1.45923 -3.21875,-2.4375 -2.21149,-1.95654 -4.55176,-4.35507 -7.71875,-4.65625 -2.8495,-0.27098 -5.48487,0.6698 -7.96875,1.75 -2.48388,1.0802 -4.87139,2.32615 -7.21875,2.9375 -3.77812,0.98397 -8.02898,0.99548 -12.0625,2.53125 -3.02552,1.15198 -5.46565,3.33627 -7.875,5.21875 -2.40935,1.88248 -4.73165,3.4482 -7.375,3.65625 -4.32434,0.34036 -8.62675,-2.80185 -13.03125,-5.09375 -3.87782,-2.01783 -7.02542,-6.03559 -11.71875,-7.875 -1.70993,-0.67016 -3.63464,-1.52316 -5.625,-2.34375 l 0,2.125 c 1.69359,0.70699 3.34599,1.45101 4.90625,2.0625 4.00665,1.57029 7.0886,5.51701 11.5,7.8125 3.31392,1.72441 6.88307,4.27592 10.875,5.0625 l 4.6875,0 c 2.66077,-0.59324 4.89364,-2.16676 7,-3.8125 2.4744,-1.9333 4.81856,-3.96413 7.375,-4.9375 3.58162,-1.36371 7.73645,-1.39904 11.84375,-2.46875 2.66272,-0.69348 5.14542,-2.02494 7.53125,-3.0625 2.38583,-1.03756 4.6643,-1.78165 6.96875,-1.5625 2.21492,0.21063 4.33771,2.1603 6.59375,4.15625 1.12802,0.99797 2.29539,1.9821 3.59375,2.6875 1.29836,0.7054 2.78304,1.10118 4.375,0.8125 1.22723,-0.22254 2.16135,-0.96807 2.84375,-1.84375 0.6824,-0.87568 1.14867,-1.90355 1.625,-2.875 0.47633,-0.97145 0.93255,-1.90432 1.4375,-2.59375 0.50495,-0.68943 1.02163,-1.08133 1.65625,-1.25 0.92237,-0.24514 2.02478,0.0203 3.28125,0.6875 0.61658,0.3274 1.25933,0.73965 1.90625,1.1875 l 0,-2.40625 c -0.31981,-0.19999 -0.64131,-0.38863 -0.96875,-0.5625 -1.1047,-0.58658 -2.28833,-1.00706 -3.5,-1 z m 0.375,8.3125 c -0.14031,0.006 -0.29441,0.006 -0.4375,0.0312 -1.33729,0.23432 -2.28261,1.21608 -2.8125,2.28125 -0.52989,1.06517 -0.76943,2.28589 -1.03125,3.46875 -0.26182,1.18286 -0.53988,2.32512 -0.90625,3.1875 -0.35251,0.82974 -0.74044,1.31758 -1.3125,1.5625 l 2.78125,0 c 0.1435,-0.24864 0.26399,-0.51996 0.375,-0.78125 0.47982,-1.12943 0.74089,-2.39191 1,-3.5625 0.25911,-1.17059 0.53821,-2.26018 0.90625,-3 0.36804,-0.73982 0.70383,-1.07537 1.34375,-1.1875 0.38421,-0.0673 0.96479,0.0967 1.65625,0.5625 0.69146,0.46577 1.43561,1.18595 2.09375,1.9375 0.15676,0.17901 0.29174,0.35259 0.4375,0.53125 l 0,-2.96875 c -0.43945,-0.42391 -0.9094,-0.82157 -1.40625,-1.15625 -0.80591,-0.54287 -1.7053,-0.94502 -2.6875,-0.90625 z m -95.90625,4.125 0,2.40625 c 0.98844,0.63822 1.99053,1.28325 3.09375,1.96875 1.07166,0.66589 2.20498,1.35617 3.34375,2.03125 l 4.0625,0 c -2.17753,-1.22171 -4.34197,-2.50617 -6.34375,-3.75 -1.49839,-0.93104 -2.88558,-1.82885 -4.15625,-2.65625 z m 74.1875,1.1875 c -6.53931,-0.0369 -12.5445,2.51285 -18.40625,5.21875 l 4.9375,0 c 4.42667,-1.85216 8.83857,-3.24474 13.4375,-3.21875 2.29631,0.013 4.80598,1.66188 7.40625,3.21875 l 4.53125,0 c -1.0981,-0.35317 -2.2709,-0.98285 -3.5,-1.71875 -2.52756,-1.51333 -5.24558,-3.48213 -8.40625,-3.5 z"
           style="font-size:medium;font-style:normal;font-variant:normal;font-weight:normal;font-stretch:normal;text-indent:0;text-align:start;text-decoration:none;line-height:normal;letter-spacing:normal;word-spacing:normal;text-transform:none;direction:ltr;block-progression:tb;writing-mode:lr-tb;text-anchor:start;baseline-shift:baseline;color:#000000;fill:#ea9a6b;fill-opacity:1;stroke:none;stroke-width:2;marker:none;visibility:visible;display:inline;overflow:visible;enable-background:accumulate;font-family:Sans;-inkscape-font-specification:Sans" />
        <path
           inkscape:connector-curvature="0"
           id="path3923"
           d="m 366.125,377.875 c -0.73758,-0.007 -1.51129,0.10342 -2.3125,0.375 -1.06827,0.3621 -2.00565,0.91989 -2.65625,1.59375 -0.6506,0.67387 -1.1067,1.60234 -0.78125,2.5625 0.32545,0.96016 1.26124,1.42312 2.1875,1.5625 0.92626,0.13938 1.99422,0.0184 3.0625,-0.34375 1.06827,-0.3621 1.9744,-0.91989 2.625,-1.59375 0.65061,-0.67387 1.1067,-1.60234 0.78125,-2.5625 -0.32545,-0.96016 -1.26124,-1.42312 -2.1875,-1.5625 -0.23156,-0.0349 -0.47289,-0.0288 -0.71875,-0.0312 z M 359,405.53125 c -0.73758,-0.007 -1.54255,0.13467 -2.34375,0.40625 -1.06828,0.3621 -1.97439,0.91989 -2.625,1.59375 -0.6506,0.67387 -1.13795,1.60234 -0.8125,2.5625 0.32545,0.96016 1.26124,1.39187 2.1875,1.53125 0.92626,0.13938 1.99423,0.0184 3.0625,-0.34375 1.06828,-0.3621 1.9744,-0.88864 2.625,-1.5625 0.65061,-0.67387 1.13795,-1.60234 0.8125,-2.5625 -0.32545,-0.96016 -1.26125,-1.42312 -2.1875,-1.5625 -0.23156,-0.0349 -0.47289,-0.0601 -0.71875,-0.0625 z"
           style="fill:#c56840;fill-opacity:0.71103893;fill-rule:nonzero;stroke:none" />
        <rect
           style="fill:none;stroke:#000000;stroke-width:0.7;stroke-miterlimit:4;stroke-opacity:1;stroke-dasharray:none"
           id="rect3925"
           width="100"
           height="70"
           x="331.15839"
           y="355.10657"
           rx="0.15296"
           ry="0.15296002" />
      </g>
      <path
         inkscape:connector-curvature="0"
         id="path3927"
         d="m 222.44731,407.13365 c -3.51863,0.24568 -16.18657,-0.0954 -17.57902,-0.22309 -3.34266,-0.30661 -2.3697,-7.38396 0.80549,-7.18019 0.53631,0.0343 12.88736,0.49616 12.88736,0.49616 0,0 -14.12778,-0.5163 -14.82683,-0.54274 -3.7492,-0.14192 -3.04865,-8.59074 0.86686,-8.51409 3.70051,0.0724 14.47786,0.50263 14.47786,0.50263 0,0 -10.24401,-0.31678 -13.54728,-0.39574 -3.16451,-0.0756 -3.31198,-7.55171 0.62774,-7.5893 2.43954,-0.0233 7.02972,0.31518 10.87305,0.56074 0.0359,-2.13647 0,-9.89022 0,-12.85245 0,0 1.86766,0.40514 2.81907,2.14025 1.72679,3.1492 1.74547,10.09867 3.11223,10.92138 3.54302,1.0616 6.38798,22.19441 -0.51653,22.6765 z"
         style="fill:#f4d815;fill-opacity:1;stroke:#000000;stroke-width:0.7;stroke-linecap:round;stroke-linejoin:round;stroke-opacity:1;stroke-miterlimit:4;stroke-dasharray:none"
         sodipodi:nodetypes="cccccsccsccscsc" />
      <path
         sodipodi:nodetypes="cccccsccsccscsc"
         style="fill:#f4d815;fill-opacity:1;stroke:#000000;stroke-width:0.7;stroke-linecap:round;stroke-linejoin:round;stroke-opacity:1;stroke-miterlimit:4;stroke-dasharray:none"
         d="m 108.82421,403.33914 c 3.47747,0.59023 16.11762,1.49557 17.51588,1.50532 3.3566,0.0233 3.08378,-7.11537 -0.0961,-7.22459 -0.53709,-0.0185 -12.87375,-0.77256 -12.87375,-0.77256 0,0 14.11015,0.8744 14.80841,0.91678 3.745,0.22716 3.87803,-8.24961 -0.0261,-8.55806 -3.68972,-0.29157 -14.45719,-0.92241 -14.45719,-0.92241 0,0 10.22557,0.69133 13.52061,0.93734 3.15662,0.23571 4.03799,-7.18974 0.12103,-7.61426 -2.42545,-0.2629 -7.29454,-0.42173 -11.1434,-0.55501 0.0626,-2.1743 -0.0103,-9.262 0.0575,-12.25454 0,0 -0.42522,-0.27141 -1.54253,1.36181 -2.02787,2.9643 -2.72932,9.8783 -4.17031,10.56273 -3.63019,0.70832 -8.53791,21.45932 -1.71417,22.61751 z"
         id="path3929"
         inkscape:connector-curvature="0" />
      <path
         style="fill:#ffffff;fill-opacity:1;stroke:#000000;stroke-width:0.7;stroke-linecap:butt;stroke-linejoin:miter;stroke-opacity:1;stroke-miterlimit:4;stroke-dasharray:none"
         d="m 192.58369,314.64419 c -1.08403,5.86548 7.28027,13.18071 12.21502,18.05732 -1.06145,-10.81769 5.81593,-20.21831 15.21409,-19.37093 -6.33076,-3.87647 -11.85499,-7.26184 -17.32151,-6.99922 -4.56269,0.2192 -9.27735,3.8205 -10.1076,8.31283 z"
         id="path3931"
         inkscape:connector-curvature="0"
         sodipodi:nodetypes="sccss" />
      <path
         style="fill:#000000;fill-opacity:0.17647059;stroke:none"
         d="m 194.39955,310.70962 c -0.91672,1.16645 -1.5613,2.52247 -1.82475,3.94795 -1.08403,5.86548 7.29867,13.18128 12.23342,18.05789 -0.18052,-1.83981 -0.12229,-3.63884 0.1298,-5.35322 -1.85349,-1.52622 -6.7733,-5.73268 -8.52422,-8.94448 -1.20618,-2.21257 -1.69946,-7.36649 -1.69946,-7.36649 l -0.31479,-0.34165 z"
         id="path3933"
         inkscape:connector-curvature="0" />
      <path
         id="path3936"
         d="M 129.3125 382.875 C 129.28144 384.64112 127.83611 387.18184 125.625 387.03125 C 124.71474 386.96925 119.13293 386.7693 116.71875 386.65625 C 115.29055 386.58935 113.5 388.125 113.5 388.125 L 128.34375 389.375 L 127.78125 389.1875 C 127.96015 389.14596 128.12198 389.05941 128.28125 388.96875 C 128.32046 388.94643 128.36828 388.93127 128.40625 388.90625 C 128.52387 388.82908 128.64446 388.75739 128.75 388.65625 C 128.8164 388.59264 128.87611 388.50954 128.9375 388.4375 C 129.00375 388.35998 129.06467 388.27389 129.125 388.1875 C 129.20694 388.06958 129.27329 387.94465 129.34375 387.8125 C 129.46763 387.5804 129.56924 387.32781 129.65625 387.0625 C 129.71662 386.87843 129.77084 386.69453 129.8125 386.5 C 129.82348 386.44884 129.83411 386.39545 129.84375 386.34375 C 129.86712 386.21842 129.8909 386.09641 129.90625 385.96875 C 129.92972 385.77331 129.9333 385.57224 129.9375 385.375 C 129.94038 385.24004 129.94393 385.10289 129.9375 384.96875 C 129.93474 384.91743 129.91041 384.86356 129.90625 384.8125 C 129.89146 384.63075 129.87659 384.4263 129.84375 384.25 C 129.80782 384.05712 129.77701 383.86959 129.71875 383.6875 C 129.70665 383.6573 129.6998 383.62335 129.6875 383.59375 C 129.61275 383.37755 129.51745 383.18843 129.40625 383 C 129.37931 382.95162 129.34161 382.9216 129.3125 382.875 z M 130.3125 390.78125 C 130.13996 392.28174 129.95697 395.4571 127.375 395.28125 C 126.45398 395.21855 120.16147 395.02066 117.71875 394.90625 C 115.87443 394.81985 113.53125 396.75 113.53125 396.75 L 127 397.8125 C 126.8941 397.7645 126.77057 397.7204 126.65625 397.6875 C 126.54193 397.6546 126.43684 397.6331 126.3125 397.625 C 126.77513 397.65358 128.09908 397.74463 128.1875 397.75 C 128.36107 397.76053 128.52957 397.74367 128.6875 397.71875 C 128.84543 397.69383 128.98279 397.6508 129.125 397.59375 C 129.26721 397.5367 129.40483 397.46085 129.53125 397.375 C 129.83246 397.17045 130.10165 396.89864 130.3125 396.5625 C 130.36748 396.47423 130.41992 396.37654 130.46875 396.28125 C 130.52612 396.17008 130.57619 396.05717 130.625 395.9375 C 130.71164 395.72388 130.78409 395.51588 130.84375 395.28125 C 130.88632 395.11385 130.90875 394.92493 130.9375 394.75 C 130.95167 394.66119 130.95819 394.55898 130.96875 394.46875 C 130.9952 394.25012 131.02585 394.03599 131.03125 393.8125 C 131.03213 393.77013 131.03113 393.72994 131.03125 393.6875 C 131.03266 393.46222 131.02005 393.22428 131 393 C 130.96197 392.60907 130.88552 392.21026 130.78125 391.84375 C 130.67698 391.47724 130.5461 391.12799 130.375 390.8125 C 130.3516 390.8065 130.3362 390.78675 130.3125 390.78125 z M 127.90625 398.75 C 127.66923 400.20399 127.44701 403.24772 125.1875 403.0625 C 124.33689 402.9928 114.28022 402.26316 110.0625 401.96875 C 108.07336 401.83001 107.00257 401.49343 106.25 401.125 C 106.79532 402.31532 107.61835 403.14107 108.8125 403.34375 C 112.28997 403.93398 124.94549 404.834 126.34375 404.84375 C 128.88606 404.8614 129.33921 400.78336 128.03125 398.75 C 127.99108 398.75126 127.95173 398.75229 127.90625 398.75 z "
         style="fill:#000000;fill-opacity:0.17647059;stroke:none" />
      <path
         sodipodi:nodetypes="csssccsscsscsscssssscssssssssc"
         inkscape:connector-curvature="0"
         id="path3944"
         d="m 169.06594,191.38613 c -4.25767,-0.22035 -8.53485,0.0329 -12.65691,0.88986 -10.39817,2.16172 -20.12773,6.90606 -27.58999,14.46316 -4.64311,4.70212 -7.91334,10.95778 -9.50026,17.37261 -1.69255,6.84179 -2.18883,14.04301 -1.7141,21.11918 l 5.27548,-1.94489 c -0.0494,-4.19121 0.0953,-9.44937 1.0113,-12.96094 2.07831,-7.9675 5.37509,-16.20102 11.20719,-22.01368 4.60576,-4.59039 10.95672,-9.55749 17.41423,-8.79245 1.53933,0.18234 3.30148,1.47729 3.54649,3.0079 0.94261,5.88861 -5.40031,8.35507 -9.35023,15.25291 -4.10805,7.17397 -4.27231,15.35103 -4.18137,23.53879 3.94647,-1.31865 7.92311,-1.68486 11.05281,-1.99989 6.22078,-0.62618 12.752,-0.20039 18.66791,1.82255 3.90928,1.33677 7.46993,3.84182 10.86257,6.31393 2.77901,-4.70601 4.68825,-10.64045 5.25946,-14.9399 1.00735,-7.58236 -1.64252,-14.72078 -3.59142,-22.34788 -3.23696,-12.66791 12.52446,-2.90772 16.07344,0.85571 3.41266,3.61887 5.15683,8.16145 6.36611,12.65019 1.81009,6.71891 1.53375,14.17902 0.73809,21.09184 -0.63133,5.48517 -3.49173,14.04503 -5.52455,19.62769 2.04179,2.44832 3.98336,5.41204 6.09439,7.73082 1.30981,1.4387 3.0772,4.71272 4.13654,3.08099 2.26057,-3.48201 4.34679,-9.40897 5.35252,-13.65618 1.28744,-5.43686 2.0033,-10.69217 1.93542,-16.27898 -0.0949,-7.81367 -0.82515,-16.28426 -3.65773,-23.56705 -2.79944,-7.1976 -7.24923,-13.21957 -13.32591,-17.98573 -6.47787,-5.08084 -13.32628,-8.43072 -21.3185,-10.40611 -4.08719,-1.01021 -8.32536,-1.70412 -12.58303,-1.92445 z"
         style="fill:#ffffff;stroke:#000000;stroke-width:0.7;stroke-linecap:butt;stroke-linejoin:miter;stroke-opacity:1;stroke-miterlimit:4;stroke-dasharray:none" />
      <path
         style="fill:#ffffff;stroke:#000000;stroke-width:0.7;stroke-linecap:butt;stroke-linejoin:miter;stroke-opacity:1;stroke-miterlimit:4;stroke-dasharray:none"
         d="m 204.75189,267.39203 c 0.40239,-0.79377 -20.7925,-19.35543 -27.27502,-23.00585 -3.3696,-1.89749 0.94816,-8.29915 3.82272,-6.88531 9.39427,5.30516 21.29283,15.43762 27.89686,23.73733"
         id="path3949"
         inkscape:connector-curvature="0"
         sodipodi:nodetypes="cscc" />
      <path
         id="path4052"
         d="M 209.34375 209.875 C 211.01488 215.47294 212.81834 222.44543 213.09375 227.1875 C 213.70239 237.66713 212.23688 248.43066 208.96875 258.40625 C 208.15017 260.90487 206.34063 264.25612 204.625 267.1875 C 205.90706 268.89457 207.18111 270.64199 208.53125 272.125 C 209.84106 273.5637 211.59691 276.85048 212.65625 275.21875 C 214.91682 271.73674 217.02552 265.80971 218.03125 261.5625 C 219.31869 256.12564 220.00538 250.86806 219.9375 245.28125 C 219.8426 237.46758 219.11383 228.97029 216.28125 221.6875 C 214.57602 217.30322 212.26837 213.36875 209.34375 209.875 z "
         style="fill:#000000;stroke:none;stroke-width:1px;stroke-linecap:butt;stroke-linejoin:miter;stroke-opacity:1;fill-opacity:0.17647059000000001" />
      <path
         sodipodi:nodetypes="scccs"
         inkscape:connector-curvature="0"
         id="path3940"
         d="m 147.96288,240.78791 c 3.86139,-0.21051 2.8222,-7.86195 -0.38125,-7.86609 -10.77203,0.6004 -20.50513,5.12842 -30.1001,9.64893 l 0.0521,7.64733 c 0.46341,-0.35062 23.0006,-9.02519 30.42923,-9.43017 z"
         style="fill:#ffffff;stroke:#000000;stroke-width:0.7;stroke-linecap:butt;stroke-linejoin:miter;stroke-opacity:1;stroke-miterlimit:4;stroke-dasharray:none" />
      <path
         transform="matrix(1.4176565,0.10034083,-0.20068165,2.8353129,-12.0747,-453.99651)"
         d="m 146.90143,238.57066 c 0,0.51257 -0.83103,0.92808 -1.85616,0.92808 -1.02512,0 -1.85615,-0.41551 -1.85615,-0.92808 0,-0.51256 0.83103,-0.92807 1.85615,-0.92807 1.02513,0 1.85616,0.41551 1.85616,0.92807 z"
         sodipodi:ry="0.92807764"
         sodipodi:rx="1.8561553"
         sodipodi:cy="238.57066"
         sodipodi:cx="145.04527"
         id="path3954"
         style="fill:#000000;fill-opacity:0.17647059000000001;fill-rule:nonzero;stroke:#000000;stroke-width:0.34827869;stroke-opacity:1;stroke-miterlimit:4;stroke-dasharray:none"
         sodipodi:type="arc" />
      <path
         sodipodi:type="arc"
         style="fill:#000000;fill-opacity:0.17647059000000001;fill-rule:nonzero;stroke:#000000;stroke-width:0.34827869;stroke-opacity:1;stroke-miterlimit:4;stroke-dasharray:none"
         id="path3956"
         sodipodi:cx="145.04527"
         sodipodi:cy="238.57066"
         sodipodi:rx="1.8561553"
         sodipodi:ry="0.92807764"
         d="m 146.90143,238.57066 c 0,0.51257 -0.83103,0.92808 -1.85616,0.92808 -1.02512,0 -1.85615,-0.41551 -1.85615,-0.92808 0,-0.51256 0.83103,-0.92807 1.85615,-0.92807 1.02513,0 1.85616,0.41551 1.85616,0.92807 z"
         transform="matrix(1.4176565,0.10034083,-0.20068165,2.8353129,23.082323,-449.20566)" />
      <g
         id="g4029">
        <path
           sodipodi:type="arc"
           style="fill:#ffffff;fill-opacity:1;stroke:#000000;stroke-opacity:1;stroke-width:0.7;stroke-miterlimit:4;stroke-dasharray:none"
           id="path3859"
           sodipodi:cx="370.53571"
           sodipodi:cy="249.14789"
           sodipodi:rx="16.25"
           sodipodi:ry="16.071428"
           d="m 386.78571,249.14789 c 0,8.876 -7.27538,16.07143 -16.25,16.07143 -8.97463,0 -16.25,-7.19543 -16.25,-16.07143 0,-8.87601 7.27537,-16.07143 16.25,-16.07143 8.97462,0 16.25,7.19542 16.25,16.07143 z"
           transform="translate(-204.39612,8.3169001)" />
        <path
           transform="matrix(0.14411953,0,0,0.14396692,111.70664,223.54208)"
           d="m 386.78571,249.14789 c 0,8.876 -7.27538,16.07143 -16.25,16.07143 -8.97463,0 -16.25,-7.19543 -16.25,-16.07143 0,-8.87601 7.27537,-16.07143 16.25,-16.07143 8.97462,0 16.25,7.19542 16.25,16.07143 z"
           sodipodi:ry="16.071428"
           sodipodi:rx="16.25"
           sodipodi:cy="249.14789"
           sodipodi:cx="370.53571"
           id="path3863"
           style="fill:#000000;fill-opacity:1;stroke:none"
           sodipodi:type="arc" />
        <path
           style="fill:#000000;fill-opacity:0.17647059;stroke:none;stroke-opacity:1"
           d="M 170.53125 242 C 174.11104 244.57232 176.4375 248.75771 176.4375 253.46875 C 176.4375 261.28465 170.02774 267.625 162.125 267.625 C 157.28997 267.625 153.05909 265.22501 150.46875 261.59375 C 152.31209 268.46807 158.59434 273.53125 166.125 273.53125 C 175.09963 273.53125 182.375 266.34475 182.375 257.46875 C 182.375 250.10069 177.36829 243.89738 170.53125 242 z "
           id="path4017" />
      </g>
      <g
         id="g3858">
        <path
           style="fill:#f4d815;fill-opacity:1;stroke:#000000;stroke-width:0.7;stroke-linecap:round;stroke-linejoin:miter;stroke-opacity:1;stroke-miterlimit:4;stroke-dasharray:none"
           d="m 198.73912,267.35979 c 0.96816,-1.03982 12.75054,-3.12145 11.30923,7.77164 -1.44131,10.8931 -14.43174,6.76412 -14.90928,3.26887"
           id="path3879"
           inkscape:connector-curvature="0"
           sodipodi:nodetypes="czc" />
        <path
           style="fill:none;stroke:#000000;stroke-width:0.7;stroke-linecap:round;stroke-linejoin:round;stroke-opacity:1;stroke-miterlimit:4;stroke-dasharray:none"
           d="m 206.02475,273.47746 c 0,0 -2.1385,-2.37581 -4.62206,-0.91681 -1.26098,0.74079 -3.2286,2.97079 -3.2286,2.97079 3.63626,-4.66735 5.13213,-2.90744 5.73161,1.54422"
           id="path3881"
           inkscape:connector-curvature="0"
           sodipodi:nodetypes="cscc" />
        <path
           style="fill:#000000;fill-opacity:0.17647059;stroke:none"
           d="M 202.6875 266.5 C 203.93271 267.37671 205.80395 268.69159 206.25 269.78125 C 206.97417 271.55033 207.40965 273.28262 207.25 275.1875 C 207.14412 276.45084 206.37786 278.31583 204.8125 279.5 C 202.62055 281.15817 197.51769 279.88175 195.5625 279.3125 C 197.83798 282.4909 208.74815 285.05856 210.0625 275.125 C 211.00154 268.02799 206.32695 266.45847 202.6875 266.5 z "
           id="path4034" />
      </g>
      <path
         id="path4074"
         d="M 217.03125 371.40625 C 217.03125 374.36092 217.06669 382.05921 217.03125 384.21875 L 217.4375 384.375 C 218.26001 384.34196 218.68748 378.79452 218.90625 375.3125 C 219.10037 375.6624 219.25031 376.00944 219.3125 376.34375 C 220.10559 380.60711 221.07541 384.24321 221.1875 384.375 C 224.05063 387.74115 225.85911 404.40122 219.96875 404.8125 C 216.71663 405.03957 205.00573 404.743 203.71875 404.625 C 203.44545 404.5999 203.21223 404.52027 203 404.40625 C 202.93758 404.42312 202.87183 404.44385 202.8125 404.46875 C 202.97035 405.73334 203.63155 406.79219 204.875 406.90625 C 206.26745 407.03394 218.91887 407.37068 222.4375 407.125 C 229.34201 406.64291 226.51177 385.53035 222.96875 384.46875 C 221.60199 383.64604 221.57054 376.68045 219.84375 373.53125 C 218.89234 371.79614 217.03125 371.40625 217.03125 371.40625 z "
         style="fill:#000000;fill-opacity:0.17647059;stroke:none" />
    </g>
    <rect
       style="fill:none;stroke:#000000;stroke-width:0.99999994;stroke-opacity:1"
       id="rect3863"
       width="191.7153"
       height="258.51175"
       x="75.346153"
       y="176.74559"
       rx="0.15296"
       ry="0.15296002" />
  </g>
</svg>
